<svg width="20" height="20" viewBox="0 0 20 20" fill="none" xmlns="http://www.w3.org/2000/svg">
<path d="M14.2767 7.21937C14.3465 7.28903 14.4018 7.37175 14.4395 7.46279C14.4773 7.55384 14.4967 7.65144 14.4967 7.75C14.4967 7.84856 14.4773 7.94616 14.4395 8.03721C14.4018 8.12825 14.3465 8.21097 14.2767 8.28063L9.02672 13.5306C8.95707 13.6004 8.87435 13.6557 8.7833 13.6934C8.69226 13.7312 8.59466 13.7506 8.4961 13.7506C8.39754 13.7506 8.29994 13.7312 8.20889 13.6934C8.11784 13.6557 8.03513 13.6004 7.96547 13.5306L5.71547 11.2806C5.57474 11.1399 5.49568 10.949 5.49568 10.75C5.49568 10.551 5.57474 10.3601 5.71547 10.2194C5.8562 10.0786 6.04708 9.99958 6.2461 9.99958C6.44512 9.99958 6.63599 10.0786 6.77672 10.2194L8.4961 11.9397L13.2155 7.21937C13.2851 7.14964 13.3678 7.09432 13.4589 7.05658C13.5499 7.01884 13.6475 6.99941 13.7461 6.99941C13.8447 6.99941 13.9423 7.01884 14.0333 7.05658C14.1244 7.09432 14.2071 7.14964 14.2767 7.21937ZM19.7461 10C19.7461 11.9284 19.1743 13.8134 18.1029 15.4168C17.0316 17.0202 15.5088 18.2699 13.7273 19.0078C11.9457 19.7458 9.98528 19.9389 8.09397 19.5627C6.20265 19.1865 4.46537 18.2579 3.10181 16.8943C1.73825 15.5307 0.809648 13.7934 0.433442 11.9021C0.0572357 10.0108 0.250318 8.05042 0.988273 6.26884C1.72623 4.48726 2.97591 2.96451 4.57929 1.89317C6.18267 0.821828 8.06773 0.25 9.9961 0.25C12.5811 0.25273 15.0595 1.28084 16.8874 3.10872C18.7153 4.93661 19.7434 7.41498 19.7461 10ZM18.2461 10C18.2461 8.3683 17.7622 6.77325 16.8557 5.41655C15.9492 4.05984 14.6607 3.00242 13.1532 2.37799C11.6457 1.75357 9.98695 1.59019 8.3866 1.90852C6.78626 2.22685 5.31625 3.01259 4.16247 4.16637C3.00868 5.32015 2.22295 6.79016 1.90462 8.3905C1.58629 9.99085 1.74967 11.6496 2.37409 13.1571C2.99851 14.6646 4.05594 15.9531 5.41264 16.8596C6.76935 17.7661 8.3644 18.25 9.9961 18.25C12.1834 18.2475 14.2804 17.3775 15.827 15.8309C17.3736 14.2843 18.2436 12.1873 18.2461 10Z" fill="#096D49"/>
</svg>
