<svg width="74" height="32" viewBox="0 0 74 32" fill="none" xmlns="http://www.w3.org/2000/svg">
<path fill-rule="evenodd" clip-rule="evenodd" d="M12.4228 0.0965533C9.15933 0.433993 5.40213 1.49371 2.94138 2.77088C-0.671101 4.64581 -0.952672 7.75104 2.07796 12.2924C2.48051 12.8957 3.3754 14.1671 4.0666 15.1177C5.6523 17.2986 6.95622 19.1434 6.92587 19.163C6.19362 19.6354 4.93677 20.7349 4.38262 21.388C3.58544 22.3274 3.14467 23.0947 2.85986 24.0385C2.70397 24.5552 2.68255 24.7412 2.67726 25.6211C2.67204 26.5016 2.69022 26.6799 2.83309 27.1451C3.0219 27.7597 3.47199 28.4871 3.91706 28.897C4.56469 29.4933 6.34951 30.4918 8.25776 31.3255C10.1967 32.1725 11.6299 32.2255 11.9937 31.4635C12.3772 30.6601 12.0048 28.0019 11.1673 25.5632C10.5606 23.7967 9.29492 21.2694 8.22193 19.6816C8.13255 19.5493 8.05943 19.4196 8.05943 19.3933C8.05943 19.3124 8.5474 19.0031 10.5056 17.8425C11.5419 17.2284 12.5815 16.5967 12.8159 16.4389C13.0503 16.2811 13.2519 16.1619 13.264 16.174C13.276 16.1862 13.2524 16.2826 13.2113 16.3881C13.0351 16.8416 13.12 17.7207 13.3987 18.3294C13.4914 18.5318 13.4881 18.602 13.3572 19.1936C13.1464 20.147 13.0867 20.6755 13.0853 21.5992C13.0843 22.2527 13.1105 22.5003 13.2079 22.7581C13.3564 23.1512 13.5729 23.3941 13.7748 23.3941C13.9462 23.3941 14.1417 23.2032 14.1417 23.0358C14.1417 22.8898 13.9424 22.2558 13.8646 22.1544C13.7827 22.0475 13.9114 20.3511 14.0493 19.7213L14.1621 19.2061H14.3866C14.6678 19.2061 14.942 19.0673 15.3648 18.7109C15.5466 18.5577 15.8738 18.3004 16.092 18.1391C17.2096 17.313 18.0298 16.5239 18.8335 15.5019C19.0686 15.2028 19.2671 14.9643 19.2746 14.9718C19.282 14.9793 19.0938 15.7331 18.8561 16.6468C18.4614 18.1644 18.4029 18.334 18.1793 18.6075C16.8741 20.204 15.7625 22.4083 15.1118 24.6905C14.7409 25.9911 14.7052 26.3057 14.7044 28.2802L14.7037 30.0751L14.8857 30.4408C15.0909 30.853 15.2962 31.0308 15.6298 31.0853C16.1425 31.169 16.4 30.7426 16.5208 29.6098C16.5783 29.0708 16.9351 27.528 17.8778 23.7422L19.1567 18.6058L19.5261 18.1827C20.0243 17.6121 21.309 16.4178 22.0583 15.8285C23.1119 15 24.8799 13.8879 25.1435 13.8879C25.2502 13.8879 24.5414 15.8822 23.9622 17.2117C23.4852 18.3066 23.2552 18.9941 23.0983 19.794C22.9723 20.436 23.0027 20.6498 23.2279 20.7067C23.6605 20.8159 23.7244 20.7005 24.4267 18.5413C24.7062 17.6821 25.0408 16.7846 25.1702 16.547C25.4962 15.9479 26.0843 15.0727 26.5326 14.5194C27.0515 13.8789 28.1151 12.7964 28.143 12.8805C28.1556 12.9183 28.0868 13.6731 27.9902 14.5577C27.773 16.5466 27.7758 17.8143 27.9982 18.2421C28.1154 18.4676 28.1725 18.5112 28.3737 18.5284C28.6486 18.552 29.038 18.374 29.4797 18.0228C29.6433 17.8927 29.8082 17.7631 29.8462 17.7348C29.893 17.7001 29.9065 17.8211 29.8882 18.1107C29.8536 18.6557 29.8999 18.8329 30.1008 18.9249C30.5127 19.1136 31.1767 18.6071 31.8239 17.6106C32.0021 17.3364 32.5367 16.6047 33.0119 15.9848C33.4872 15.3647 33.9111 14.8113 33.9539 14.7549C34.0094 14.6817 34.0051 14.7927 33.9391 15.1427C33.6993 16.4123 33.6545 18.3938 33.8459 19.2668C33.942 19.7054 34.15 19.9373 34.4472 19.9373C34.7554 19.9373 35.1696 19.4701 35.6874 18.538C35.9199 18.1193 36.184 17.6965 36.2741 17.5983C36.5641 17.2823 36.4525 16.8793 36.0751 16.8793C35.8048 16.8793 35.56 17.1625 35.0442 18.0719C34.8001 18.5025 34.5972 18.7907 34.5564 18.7653C34.5091 18.736 34.498 18.2997 34.5219 17.4183C34.5515 16.3299 34.5912 15.9409 34.7624 15.0607C35.0781 13.4375 35.0845 13.3312 34.8784 13.139L34.7066 12.979L35.0402 12.9016C35.4501 12.8065 36.1734 12.8019 36.4972 12.8923C36.6638 12.9388 36.75 13.007 36.7765 13.1132C36.7976 13.1977 36.8936 13.3029 36.9899 13.3469C37.3905 13.5305 37.6384 13.055 37.3957 12.5687C37.353 12.4829 37.1683 12.3336 36.9854 12.2367C36.6787 12.0744 36.591 12.0608 35.8594 12.062C34.9088 12.0635 34.4329 12.1911 33.5801 12.6734C32.909 13.053 32.0857 13.8469 31.4961 14.6831C31.2779 14.9924 31.0027 15.3345 30.8845 15.4432C30.7663 15.5519 30.6697 15.685 30.6697 15.7391C30.6697 15.86 29.2902 17.2258 28.8515 17.5395L28.5325 17.7674L28.5761 16.8747C28.6002 16.3836 28.6939 15.3238 28.7845 14.5194C29.0351 12.2934 29.0059 11.8393 28.6033 11.6981C28.4254 11.6358 28.3645 11.6481 28.1517 11.7898C27.8696 11.9775 26.3081 13.5074 26.1501 13.7509C26.0258 13.9425 25.9551 13.8996 25.9697 13.6414C25.9915 13.2568 25.9786 13.1902 25.8669 13.108C25.2619 12.6632 22.8738 14.0109 20.4876 16.1436C20.178 16.4203 19.8538 16.7065 19.767 16.7796L19.6092 16.9126L19.6549 16.7131C19.68 16.6035 19.8372 16.0014 20.0041 15.3752L20.3076 14.2367L20.646 14.1936C20.832 14.1699 21.3958 14.1316 21.8988 14.1084C22.9148 14.0617 23.0833 13.9973 23.0833 13.6564C23.0833 13.3099 22.946 13.2711 21.8737 13.3147C21.3448 13.3363 20.8167 13.3731 20.7002 13.3965C20.5388 13.429 20.4884 13.4159 20.4884 13.3414C20.4884 13.1989 20.2705 13.0236 20.0934 13.0236C20.004 13.0236 19.813 13.1432 19.6345 13.3112C19.3798 13.5507 19.2576 13.6124 18.9004 13.6817C18.3179 13.7947 17.0629 14.1156 16.4391 14.3111C16.1573 14.3995 15.9267 14.4508 15.9267 14.4252C15.9267 14.3995 15.9704 14.3206 16.0238 14.2496C16.2466 13.9534 16.0673 13.5555 15.7109 13.5555C15.4208 13.5555 15.2049 13.6739 14.8141 14.0474C14.3427 14.4979 12.5464 15.7163 11.0345 16.6111C10.3981 16.9877 9.3615 17.6091 8.73086 17.9921C8.10022 18.3751 7.5624 18.6627 7.53569 18.6314C7.50898 18.6001 7.16731 18.1159 6.77639 17.5553C6.38554 16.9947 5.38428 15.5948 4.5514 14.4444C2.74443 11.9485 2.29613 11.2742 1.78469 10.2831C0.698537 8.17843 0.501061 6.59633 1.16945 5.35393C1.43568 4.85901 1.98871 4.29355 2.61862 3.87208C3.88579 3.02429 6.91543 1.91432 9.49623 1.35238C10.3872 1.15833 10.4199 1.15707 10.4693 1.31349C10.5471 1.55979 10.7757 1.58858 11.2705 1.41447C11.7921 1.23086 12.6264 1.05682 13.7781 0.891492C14.2144 0.828804 14.6682 0.748499 14.7863 0.713C15.0516 0.63336 15.1306 0.40029 14.9739 0.159775C14.868 -0.00276287 14.8504 -0.00582222 14.0576 0.00255395C13.6129 0.00727386 12.8773 0.0495537 12.4228 0.0965533ZM40.4397 0.642201C40.3609 0.732943 40.3219 1.088 40.263 2.25428C40.1515 4.46326 39.9308 6.21249 39.4235 8.90729L39.2536 9.80999L38.7796 9.96043C38.5189 10.0433 37.8891 10.316 37.38 10.5667C36.871 10.8173 36.3265 11.0511 36.1701 11.086C35.8787 11.1512 35.4719 11.0853 35.3951 10.9604C35.3286 10.8522 34.9936 10.8895 34.878 11.018C34.5273 11.4076 35.0719 11.8935 35.8594 11.8935C36.3223 11.8935 36.8326 11.7214 37.7672 11.2501C38.4864 10.8874 38.9985 10.6735 39.0422 10.7175C39.0542 10.7296 38.872 11.6946 38.6372 12.8621C37.6777 17.6333 37.3522 19.7952 37.2986 21.7548C37.2602 23.1548 37.3139 23.6394 37.5505 24.0309C37.7284 24.325 37.9592 24.4096 38.6692 24.441C39.4255 24.4745 40.0868 24.3406 41.3531 23.8978C42.3584 23.5462 43.2444 23.2902 48.3546 21.8739C53.0443 20.5742 55.297 19.9747 56.1227 19.8068C56.8507 19.6588 57.8735 19.5384 58.404 19.5384C58.7103 19.5384 58.8016 19.5099 58.9396 19.3711C59.1269 19.1827 59.1102 19.0099 58.8803 18.7573C58.7368 18.5997 58.512 18.5651 58.32 18.6711C58.2569 18.706 57.7739 18.7813 57.2466 18.8384C56.4864 18.9208 55.8365 19.0585 54.1063 19.5041C49.9902 20.5641 43.1036 22.4912 41.1323 23.1347C39.6988 23.6026 38.8241 23.7736 38.4214 23.6646C38.0713 23.5698 38.0446 23.4604 38.0553 22.1643C38.064 21.1054 38.1749 19.9783 38.442 18.2342C38.8056 15.8593 39.8804 10.5001 40.009 10.4201C40.1215 10.3502 41.9097 9.85719 42.6028 9.70502C43.5483 9.49748 44.4515 9.37084 45.4061 9.312C46.2181 9.26195 46.3023 9.24453 46.4158 9.10366C46.5419 8.94711 46.5294 8.76356 46.3801 8.57669C46.2711 8.44002 44.6906 8.5271 43.516 8.73438C42.6399 8.88901 40.3235 9.45048 40.1713 9.54507C40.1268 9.57273 40.1166 9.50858 40.1422 9.36106C40.1637 9.23655 40.2718 8.6112 40.3825 7.97135C40.5885 6.78007 40.79 5.37002 40.9146 4.24861C41.0253 3.25184 41.1162 0.935567 41.0513 0.763988C40.9551 0.509579 40.6141 0.441639 40.4397 0.642201ZM15.4411 6.76339C15.1584 7.07756 15.4353 7.43953 15.9585 7.43953H16.1973L16.0786 7.6022C15.9775 7.74067 15.9226 7.75922 15.7101 7.72645C15.3908 7.67712 15.1995 7.83321 15.1995 8.143C15.1995 8.41722 15.4535 8.63613 15.7717 8.63613C16.1966 8.63613 16.778 8.13641 16.9243 7.64554C17.0874 7.09797 16.6203 6.64645 15.8874 6.64326C15.6437 6.6422 15.5203 6.67544 15.4411 6.76339ZM72.0237 10.0974C71.9269 10.205 71.9113 10.3067 71.9389 10.6521L71.9727 11.0751L71.5052 11.2265C70.9518 11.4057 70.6334 11.6768 70.7028 11.9097C70.755 12.0847 70.9858 12.2888 71.134 12.2909C71.1907 12.2917 71.2919 12.3327 71.359 12.3821C71.4775 12.4692 71.4776 12.4817 71.36 12.8105C71.2436 13.1359 71.2435 13.1593 71.3564 13.4111C71.4212 13.5557 71.5504 13.7082 71.6444 13.7513C71.7896 13.8178 71.8403 13.809 71.9849 13.6921C72.4203 13.3401 72.425 13.3384 72.6424 13.4515C73.0424 13.6594 73.3893 13.2795 73.1623 12.8819C73.0601 12.7028 73.0641 12.692 73.3849 12.2901C73.9135 11.6278 74.0867 11.1867 73.9607 10.8233C73.8656 10.549 73.4818 10.4861 73.0202 10.6693C72.9131 10.7117 72.8998 10.6963 72.933 10.5688C72.9911 10.3456 72.927 10.2404 72.6452 10.0958C72.3242 9.93118 72.1729 9.93157 72.0237 10.0974ZM45.0567 12.2425C45.0046 12.3248 44.9152 12.6249 44.8578 12.9094C44.7959 13.2166 44.5637 13.8646 44.2862 14.5049C43.2191 16.9665 42.9317 17.6103 42.9 17.6105C42.8816 17.6105 42.7329 17.0796 42.5695 16.4306C42.2739 15.257 42.2723 15.2445 42.2723 14.0986C42.2723 13.0349 42.2624 12.9392 42.144 12.8521C41.9652 12.7206 41.7519 12.7344 41.6153 12.8862C41.5146 12.9979 41.4992 13.1682 41.4958 14.1991L41.4919 15.3836L41.8268 16.6467C42.3396 18.5814 42.4776 18.8737 42.8783 18.8737C43.1697 18.8737 43.3556 18.5903 43.9467 17.245C44.2681 16.5137 44.6029 15.7381 44.6908 15.5215L44.8507 15.1275L44.8929 15.5978C44.9445 16.1731 45.0482 16.5126 45.2589 16.7963C45.7339 17.4358 46.5434 17.3169 46.7278 16.5805C46.8489 16.0969 46.711 15.8157 46.3528 15.8157C46.1781 15.8157 46.0076 16.0235 46.0076 16.2364C46.0076 16.4533 45.9394 16.4629 45.8087 16.2644C45.7271 16.1406 45.7101 15.7871 45.7101 14.2142C45.7101 12.1418 45.7016 12.093 45.3399 12.093C45.2163 12.093 45.1186 12.1445 45.0567 12.2425ZM48.9053 12.206C48.824 12.2998 48.785 12.6342 48.7244 13.7549C48.6819 14.541 48.6196 15.5731 48.586 16.0484C48.5116 17.0983 48.5047 18.0168 48.5704 18.1158C48.5971 18.156 48.688 18.2255 48.7722 18.2701C48.8976 18.3366 48.954 18.3325 49.0831 18.2474C49.2747 18.1212 49.2948 18.0037 49.3458 16.7139C49.3903 15.5888 49.3922 15.5835 50.096 14.6191C50.5897 13.9426 51.171 13.3899 51.5363 13.2496L51.836 13.1345L51.9831 13.3201C52.0788 13.4406 52.1927 13.5056 52.3085 13.5056C52.4064 13.5056 52.4866 13.514 52.4866 13.5242C52.4866 13.5345 52.3799 13.6712 52.2496 13.8281C51.6912 14.5001 51.3906 15.5119 51.4424 16.5452C51.4731 17.1584 51.59 17.4731 51.8512 17.6452C52.1874 17.8667 53.3111 18.0238 54.5691 18.0254C56.599 18.0279 56.9003 17.9695 62.6868 16.4521C64.4356 15.9935 65.7162 15.7588 66.8302 15.6926C67.6397 15.6445 67.7215 15.6278 67.8356 15.486C67.9598 15.3318 67.95 15.1462 67.8083 14.9681C67.582 14.6837 64.6884 15.0812 62.3703 15.7152C60.6673 16.1809 58.1921 16.8123 57.5481 16.9453C55.8218 17.3017 54.1071 17.3553 52.8171 17.0932L52.2552 16.9791L52.235 16.5137C52.2112 15.9657 52.3157 15.2911 52.4821 14.9183C52.5473 14.772 52.727 14.4944 52.8814 14.3014L53.162 13.9505L53.3128 14.114C53.8339 14.6795 55.6594 14.3162 55.9625 13.5868C56.0844 13.2934 56.0832 12.6699 55.9603 12.4309C55.6689 11.8643 54.0536 12.1952 53.0531 13.0266C52.7345 13.2913 52.6429 13.3451 52.7175 13.2239C52.7397 13.1877 52.6985 13.023 52.6258 12.8579C52.4732 12.511 52.3098 12.425 51.8046 12.426C51.248 12.4271 50.8303 12.6685 50.1153 13.4025L49.4959 14.0383L49.5393 13.2485C49.5897 12.3306 49.5342 12.1386 49.2091 12.1063C49.0798 12.0936 48.9723 12.1288 48.9053 12.206ZM54.3377 13.1439C54.0013 13.2868 53.9031 13.3606 53.8856 13.4839C53.8637 13.6378 53.8723 13.6406 54.2567 13.6056C54.4731 13.5858 54.7881 13.5083 54.9567 13.4333C55.2061 13.3225 55.2633 13.2653 55.2633 13.1271C55.2633 12.9747 55.2377 12.9574 55.0153 12.9593C54.879 12.9604 54.574 13.0435 54.3377 13.1439ZM33.8698 13.4111C33.2521 13.8139 32.755 14.314 32.1022 15.1891C31.3781 16.1599 30.9922 16.7944 30.8518 17.245C30.7282 17.6414 30.6736 17.8765 30.7049 17.8765C30.7175 17.8765 30.9278 17.5699 31.1722 17.1951C31.4166 16.8203 31.7964 16.2744 32.0161 15.9819C32.5896 15.2186 34.1132 13.3374 34.2353 13.2418C34.4556 13.0696 34.242 13.1685 33.8698 13.4111ZM17.6435 14.7861C16.6935 15.0428 15.7875 15.3612 15.4924 15.5419C15.3313 15.6406 15.2404 15.7952 15.0527 16.2894C14.7322 17.133 14.374 18.3317 14.4266 18.3846C14.4501 18.4083 14.5667 18.3488 14.6857 18.2526C14.8047 18.1563 15.2441 17.8115 15.6623 17.4863C16.8502 16.5626 17.6742 15.744 18.4982 14.669C18.6109 14.522 18.6298 14.5195 17.6435 14.7861ZM14.0061 16.5725C13.9306 16.7442 13.8788 16.9507 13.891 17.0316C13.9065 17.1337 13.9581 17.0483 14.0601 16.7514C14.2347 16.2437 14.2004 16.1306 14.0061 16.5725ZM6.83636 20.2051C5.47578 21.2354 4.48516 22.3443 3.95772 23.4274C3.55959 24.2448 3.43385 24.7654 3.43259 25.6013C3.43028 27.1197 3.88645 27.9905 5.11448 28.8119C5.86742 29.3156 8.5708 30.6399 9.45987 30.9407C10.0573 31.1428 10.3118 31.1949 10.7226 31.1995C11.1104 31.2039 11.2539 31.1807 11.3052 31.1055C11.4214 30.9352 11.3266 29.4256 11.1402 28.4797C10.7726 26.6135 10.2319 25.0609 9.2819 23.1425C8.80927 22.1881 7.7292 20.2853 7.45325 19.9208C7.37219 19.8137 7.32354 19.8361 6.83636 20.2051ZM17.4895 21.0214C16.5769 22.5807 15.7801 24.7493 15.5613 26.2691C15.4323 27.1654 15.4412 29.8471 15.5739 30.0732C15.6614 30.2222 15.6586 30.2339 15.795 29.146C15.8362 28.8177 16.325 26.7162 16.8814 24.4759C17.4378 22.2356 17.8837 20.4027 17.8723 20.4027C17.861 20.4027 17.6887 20.6811 17.4895 21.0214Z" fill="black"/>
</svg>
