<svg width="42" height="42" viewBox="0 0 42 42" fill="none" xmlns="http://www.w3.org/2000/svg">
<path d="M28.3555 15.8555L23.209 21L28.3555 26.1445C28.5006 26.2897 28.6158 26.462 28.6944 26.6517C28.7729 26.8414 28.8134 27.0447 28.8134 27.25C28.8134 27.4553 28.7729 27.6586 28.6944 27.8483C28.6158 28.038 28.5006 28.2103 28.3555 28.3555C28.2103 28.5006 28.038 28.6158 27.8483 28.6944C27.6586 28.7729 27.4553 28.8134 27.25 28.8134C27.0447 28.8134 26.8414 28.7729 26.6517 28.6944C26.4621 28.6158 26.2897 28.5006 26.1445 28.3555L21 23.209L15.8555 28.3555C15.7103 28.5006 15.538 28.6158 15.3483 28.6944C15.1586 28.7729 14.9553 28.8134 14.75 28.8134C14.5447 28.8134 14.3414 28.7729 14.1517 28.6944C13.9621 28.6158 13.7897 28.5006 13.6445 28.3555C13.4994 28.2103 13.3842 28.038 13.3056 27.8483C13.2271 27.6586 13.1866 27.4553 13.1866 27.25C13.1866 27.0447 13.2271 26.8414 13.3056 26.6517C13.3842 26.462 13.4994 26.2897 13.6445 26.1445L18.791 21L13.6445 15.8555C13.3514 15.5623 13.1866 15.1646 13.1866 14.75C13.1866 14.3354 13.3514 13.9377 13.6445 13.6445C13.9377 13.3513 14.3354 13.1866 14.75 13.1866C15.1646 13.1866 15.5623 13.3513 15.8555 13.6445L21 18.791L26.1445 13.6445C26.2897 13.4994 26.4621 13.3842 26.6517 13.3056C26.8414 13.2271 27.0447 13.1866 27.25 13.1866C27.4553 13.1866 27.6586 13.2271 27.8483 13.3056C28.038 13.3842 28.2103 13.4994 28.3555 13.6445C28.5006 13.7897 28.6158 13.962 28.6944 14.1517C28.7729 14.3414 28.8134 14.5447 28.8134 14.75C28.8134 14.9553 28.7729 15.1586 28.6944 15.3483C28.6158 15.538 28.5006 15.7103 28.3555 15.8555ZM41.3125 21C41.3125 25.0174 40.1212 28.9446 37.8892 32.285C35.6573 35.6254 32.4849 38.2289 28.7733 39.7663C25.0616 41.3037 20.9775 41.706 17.0372 40.9222C13.097 40.1384 9.47766 38.2039 6.6369 35.3631C3.79615 32.5224 1.86157 28.903 1.07781 24.9628C0.294046 21.0225 0.696301 16.9384 2.23371 13.2267C3.77111 9.51512 6.37461 6.34274 9.71499 4.11077C13.0554 1.87881 16.9826 0.6875 21 0.6875C26.3855 0.693187 31.5487 2.83507 35.3568 6.64317C39.1649 10.4513 41.3068 15.6145 41.3125 21ZM38.1875 21C38.1875 17.6006 37.1795 14.2776 35.2909 11.4511C33.4023 8.62467 30.718 6.4217 27.5774 5.12082C24.4368 3.81994 20.9809 3.47957 17.6469 4.14275C14.3128 4.80594 11.2503 6.44289 8.84661 8.8466C6.4429 11.2503 4.80595 14.3128 4.14276 17.6469C3.47958 20.9809 3.81995 24.4368 5.12083 27.5774C6.42171 30.718 8.62468 33.4023 11.4511 35.2909C14.2776 37.1795 17.6006 38.1875 21 38.1875C25.5568 38.1823 29.9255 36.3699 33.1477 33.1477C36.3699 29.9255 38.1823 25.5568 38.1875 21Z" fill="black"/>
</svg>
