<svg width="23" height="22" viewBox="0 0 23 22" fill="none" xmlns="http://www.w3.org/2000/svg">
<path d="M22.1191 3.88114L18.6191 0.381137C18.5378 0.299783 18.4413 0.235244 18.3351 0.19121C18.2288 0.147176 18.115 0.124512 18 0.124512C17.885 0.124512 17.7711 0.147176 17.6649 0.19121C17.5587 0.235244 17.4622 0.299783 17.3809 0.381137L6.88094 10.8811C6.79971 10.9625 6.73529 11.059 6.69138 11.1652C6.64747 11.2714 6.62491 11.3853 6.625 11.5002V15.0002C6.625 15.2323 6.71719 15.4548 6.88128 15.6189C7.04538 15.783 7.26794 15.8752 7.5 15.8752H11C11.1149 15.8753 11.2288 15.8527 11.335 15.8088C11.4412 15.7649 11.5377 15.7005 11.6191 15.6193L22.1191 5.11926C22.2004 5.038 22.265 4.9415 22.309 4.83527C22.353 4.72905 22.3757 4.61519 22.3757 4.5002C22.3757 4.38521 22.353 4.27135 22.309 4.16513C22.265 4.0589 22.2004 3.9624 22.1191 3.88114ZM10.638 14.1252H8.375V11.8622L15.375 4.86223L17.638 7.1252L10.638 14.1252ZM18.875 5.88817L16.612 3.6252L18 2.23723L20.263 4.5002L18.875 5.88817ZM21.5 11.5002V20.2502C21.5 20.7143 21.3156 21.1594 20.9874 21.4876C20.6592 21.8158 20.2141 22.0002 19.75 22.0002H2.25C1.78587 22.0002 1.34075 21.8158 1.01256 21.4876C0.684374 21.1594 0.5 20.7143 0.5 20.2502V2.7502C0.5 2.28607 0.684374 1.84095 1.01256 1.51276C1.34075 1.18457 1.78587 1.0002 2.25 1.0002H11C11.2321 1.0002 11.4546 1.09239 11.6187 1.25648C11.7828 1.42058 11.875 1.64314 11.875 1.8752C11.875 2.10726 11.7828 2.32982 11.6187 2.49392C11.4546 2.65801 11.2321 2.7502 11 2.7502H2.25V20.2502H19.75V11.5002C19.75 11.2681 19.8422 11.0456 20.0063 10.8815C20.1704 10.7174 20.3929 10.6252 20.625 10.6252C20.8571 10.6252 21.0796 10.7174 21.2437 10.8815C21.4078 11.0456 21.5 11.2681 21.5 11.5002Z" fill="black"/>
</svg>
