<svg width="65" height="50" viewBox="0 0 65 50" fill="none" xmlns="http://www.w3.org/2000/svg">
<path d="M63.0302 12.8581L27.9208 47.9675C27.1004 48.7874 25.9881 49.2479 24.8282 49.2479C23.6684 49.2479 22.5561 48.7874 21.7357 47.9675L2.15208 28.28C1.33306 27.4597 0.873047 26.348 0.873047 25.1888C0.873047 24.0296 1.33306 22.9179 2.15208 22.0976L7.62083 16.6288C8.44076 15.8123 9.55079 15.3539 10.7079 15.3539C11.8651 15.3539 12.9751 15.8123 13.795 16.6288L24.9376 27.4351L51.3954 1.30267C52.2155 0.485321 53.3261 0.0263672 54.4839 0.0263672C55.6417 0.0263672 56.7523 0.485321 57.5724 1.30267L63.0275 6.64564C63.4377 7.05217 63.7634 7.53591 63.9857 8.06894C64.2081 8.60198 64.3227 9.17377 64.323 9.75132C64.3232 10.3289 64.2091 10.9008 63.9872 11.434C63.7654 11.9672 63.4401 12.4512 63.0302 12.8581Z" fill="#19C98A"/>
</svg>
