<svg width="24" height="24" viewBox="0 0 24 24" fill="none" xmlns="http://www.w3.org/2000/svg">
<path d="M16.2757 9.21937C16.3455 9.28903 16.4008 9.37175 16.4385 9.46279C16.4763 9.55384 16.4957 9.65144 16.4957 9.75C16.4957 9.84856 16.4763 9.94616 16.4385 10.0372C16.4008 10.1283 16.3455 10.211 16.2757 10.2806L11.0257 15.5306C10.9561 15.6004 10.8734 15.6557 10.7823 15.6934C10.6913 15.7312 10.5937 15.7506 10.4951 15.7506C10.3966 15.7506 10.299 15.7312 10.2079 15.6934C10.1169 15.6557 10.0342 15.6004 9.9645 15.5306L7.7145 13.2806C7.57377 13.1399 7.4947 12.949 7.4947 12.75C7.4947 12.551 7.57377 12.3601 7.7145 12.2194C7.85523 12.0786 8.0461 11.9996 8.24512 11.9996C8.44414 11.9996 8.63502 12.0786 8.77575 12.2194L10.4951 13.9397L15.2145 9.21937C15.2842 9.14964 15.3669 9.09432 15.4579 9.05658C15.549 9.01884 15.6466 8.99941 15.7451 8.99941C15.8437 8.99941 15.9413 9.01884 16.0323 9.05658C16.1234 9.09432 16.2061 9.14964 16.2757 9.21937ZM21.7451 12C21.7451 13.9284 21.1733 15.8134 20.1019 17.4168C19.0306 19.0202 17.5079 20.2699 15.7263 21.0078C13.9447 21.7458 11.9843 21.9389 10.093 21.5627C8.20168 21.1865 6.46439 20.2579 5.10083 18.8943C3.73727 17.5307 2.80867 15.7934 2.43247 13.9021C2.05626 12.0108 2.24934 10.0504 2.9873 8.26884C3.72525 6.48726 4.97493 4.96451 6.57831 3.89317C8.18169 2.82183 10.0668 2.25 11.9951 2.25C14.5801 2.25273 17.0585 3.28084 18.8864 5.10872C20.7143 6.93661 21.7424 9.41498 21.7451 12ZM20.2451 12C20.2451 10.3683 19.7613 8.77325 18.8547 7.41655C17.9482 6.05984 16.6598 5.00242 15.1523 4.37799C13.6448 3.75357 11.986 3.59019 10.3856 3.90852C8.78528 4.22685 7.31527 5.01259 6.16149 6.16637C5.00771 7.32015 4.22197 8.79016 3.90364 10.3905C3.58531 11.9908 3.74869 13.6496 4.37312 15.1571C4.99754 16.6646 6.05496 17.9531 7.41167 18.8596C8.76837 19.7661 10.3634 20.25 11.9951 20.25C14.1824 20.2475 16.2794 19.3775 17.826 17.8309C19.3727 16.2843 20.2426 14.1873 20.2451 12Z" fill="#096D49"/>
</svg>
