<svg width="172" height="172" viewBox="0 0 172 172" fill="none" xmlns="http://www.w3.org/2000/svg">
<path d="M161.927 107.859C167.921 90.6119 157.493 73.3374 144.154 67.7256C147.068 34.9401 109.999 18.6253 87.6842 43C60.5919 18.7652 17.4566 30.5862 10.0904 65.1571C4.09679 82.3846 14.5223 99.6855 27.8637 105.29C24.9466 138.07 62.0149 154.386 84.3302 130.009C111.423 154.251 154.559 142.429 161.927 107.859Z" fill="#ADD9FF"/>
<path d="M163.8 60.8569C163.747 60.9831 160.36 69.1542 153.472 77.7233L151.965 77.143L149.013 76.0067L151.535 77.6029L152.878 78.4502C148.635 83.5885 143.146 88.7932 136.366 92.4235L136.181 92.5221L132.678 89.5936L135.376 92.9372C128.496 96.399 120.342 98.2211 110.872 96.7831C110.958 96.6536 118.63 85.3085 135.189 74.4312C135.633 74.1399 136.083 73.8491 136.539 73.5586L138.499 76.8002L137.032 73.2455C145.395 68.0016 154.39 63.8389 163.8 60.8569Z" fill="#84C96C"/>
<path d="M151.538 77.6053L152.881 78.4527C148.638 83.5909 143.149 88.7956 136.369 92.4259L135.192 74.4336C137.457 81.293 146.223 83.232 151.184 77.9814L151.538 77.6053Z" fill="#77B75F"/>
<path d="M110.901 97.2303C110.797 97.2368 110.694 97.2068 110.61 97.1455C110.526 97.0842 110.466 96.9955 110.441 96.8947C110.416 96.7939 110.427 96.6874 110.472 96.5937C110.517 96.5 110.593 96.425 110.687 96.3817C110.752 96.3519 117.223 93.4004 125.489 88.6383C133.106 84.2511 143.848 77.3906 151.763 69.622C151.849 69.5462 151.96 69.5061 152.074 69.51C152.188 69.5139 152.296 69.5615 152.376 69.643C152.456 69.7244 152.502 69.8334 152.504 69.9476C152.505 70.0617 152.463 70.1721 152.386 70.2561C144.402 78.0935 133.589 84.9999 125.923 89.4134C117.624 94.1916 111.121 97.1615 111.055 97.1913C111.007 97.2135 110.954 97.2267 110.901 97.2303Z" fill="#5B9941"/>
<path d="M170.853 88.1318C170.739 88.2464 164.394 94.3994 154.697 99.5377L153.245 98.1204L151.279 96.1963L152.713 98.2901L153.86 99.9711C149.617 102.15 144.769 104.106 139.545 105.28C137.375 105.771 135.173 106.109 132.956 106.29L130.892 102.216L132.048 106.353C124.365 106.812 116.149 105.26 108.021 100.194C108.155 100.106 120.312 92.3217 140.781 89.0147L141.298 92.7677L141.356 88.923C151.116 87.4129 161.027 87.147 170.853 88.1318Z" fill="#84C96C"/>
<path d="M152.712 98.2911L153.859 99.9721C149.616 102.151 144.768 104.107 139.544 105.281L139.348 91.4318C140.279 94.0646 142.182 96.2417 144.667 97.5169C147.152 98.7922 150.03 99.0692 152.712 98.2911ZM170.853 88.1328C170.739 88.2475 164.394 94.4005 154.697 99.5387L153.245 98.1214C153.76 97.9409 154.262 97.7229 154.745 97.469C162.79 93.2447 170.728 88.2108 170.853 88.1328Z" fill="#77B75F"/>
<path d="M114.066 100.347C110.369 100.589 108.079 100.638 108.04 100.639C107.98 100.643 107.92 100.635 107.863 100.615C107.806 100.595 107.754 100.564 107.71 100.524C107.665 100.483 107.63 100.434 107.605 100.379C107.58 100.324 107.567 100.265 107.566 100.205C107.564 100.145 107.575 100.085 107.598 100.029C107.62 99.9732 107.654 99.9225 107.697 99.8801C107.739 99.8377 107.79 99.8043 107.846 99.7821C107.902 99.7598 107.962 99.7492 108.022 99.7507C108.092 99.7507 115.206 99.5948 124.678 98.4894C133.41 97.4734 145.989 95.4221 156.326 91.4168C156.435 91.3798 156.554 91.3863 156.658 91.4348C156.762 91.4834 156.843 91.5703 156.884 91.6773C156.926 91.7843 156.924 91.9033 156.88 92.0092C156.836 92.1151 156.753 92.1999 156.647 92.2458C146.213 96.2855 133.551 98.3518 124.77 99.3735C120.623 99.8597 116.923 100.161 114.066 100.347Z" fill="#5B9941"/>
<path d="M163.799 60.8594C163.746 60.9855 160.359 69.1567 153.471 77.7257L151.964 77.1455C156.322 72.4419 160.877 66.7234 163.799 60.8594Z" fill="#77B75F"/>
<path d="M4.59277 71.2573C4.66043 71.372 9.08541 79.0375 17.0261 86.6376L18.4457 85.8659L21.2252 84.3557L18.9318 86.266L17.7106 87.2808C22.5828 91.8239 28.7049 96.2707 35.9025 98.9883L36.0986 99.0617L39.1946 95.702L36.9551 99.3713C44.225 101.909 52.5498 102.653 61.7507 99.9962C61.6486 99.8816 52.5659 89.6292 34.7329 80.9983C34.2551 80.7689 33.7712 80.5396 33.2812 80.3103L31.7516 83.7755L32.7434 80.0603C23.7694 75.9487 14.3105 72.9908 4.59277 71.2573Z" fill="#84C96C"/>
<path d="M18.9292 86.2673L17.708 87.2821C22.5802 91.8252 28.7022 96.272 35.8999 98.9896L34.7245 80.9961C33.368 88.0917 24.932 91.1601 19.3305 86.5953L18.9292 86.2673Z" fill="#77B75F"/>
<path d="M61.773 100.439C61.7196 100.443 61.666 100.436 61.6148 100.421C61.546 100.4 54.7119 98.3016 45.8607 94.6438C37.6862 91.2646 26.067 85.8236 17.131 79.0915C17.042 79.0187 16.9846 78.9143 16.9709 78.8002C16.9572 78.686 16.9883 78.571 17.0575 78.4792C17.1268 78.3874 17.2289 78.326 17.3424 78.3078C17.4559 78.2897 17.5721 78.3162 17.6665 78.3818C26.5245 85.0554 38.0691 90.4596 46.1921 93.8182C55.0043 97.4669 61.8051 99.5504 61.8739 99.571C61.9738 99.6009 62.0599 99.6651 62.1172 99.7522C62.1745 99.8393 62.1993 99.9438 62.1873 100.047C62.1752 100.151 62.1271 100.247 62.0514 100.318C61.9756 100.39 61.8771 100.433 61.773 100.439Z" fill="#5B9941"/>
<path d="M1.14648 99.2178C1.27835 99.3175 8.37048 104.592 18.6481 108.427L19.9025 106.832L21.603 104.668L20.4564 106.93L19.5321 108.748C24.0236 110.353 29.0839 111.664 34.417 112.149C36.6319 112.354 38.8586 112.402 41.0803 112.293L42.5916 107.986L41.9839 112.239C49.6665 111.695 57.6049 109.086 65.0055 103.006C64.861 102.938 51.7948 96.8006 31.0699 96.1848L31.0447 99.9688L30.4862 96.1642C20.6165 95.9371 10.7579 96.9631 1.14648 99.2178Z" fill="#84C96C"/>
<path d="M20.4552 106.93L19.531 108.748C24.0225 110.353 29.0827 111.664 34.4159 112.149L32.8105 98.3887C32.2301 101.12 30.6271 103.526 28.3301 105.114C26.033 106.702 23.2157 107.352 20.4552 106.93ZM1.14648 99.2177C1.27835 99.3175 8.37049 104.592 18.6481 108.427L19.9025 106.832C19.3684 106.72 18.8434 106.569 18.3316 106.38C9.80611 103.238 1.28064 99.2796 1.14648 99.2177Z" fill="#77B75F"/>
<path d="M59.0417 103.942C56.1831 104.129 52.477 104.311 48.2997 104.372C39.4555 104.502 26.6277 104.101 15.7619 101.452C15.7029 101.441 15.6468 101.417 15.597 101.384C15.5473 101.35 15.5049 101.306 15.4725 101.255C15.44 101.205 15.4182 101.148 15.4084 101.089C15.3985 101.029 15.4008 100.969 15.4151 100.91C15.4293 100.852 15.4553 100.797 15.4915 100.749C15.5276 100.7 15.5731 100.66 15.6253 100.63C15.6774 100.6 15.7351 100.581 15.7949 100.574C15.8546 100.567 15.9152 100.572 15.9729 100.589C26.7516 103.215 39.4876 103.612 48.2768 103.483C57.8125 103.343 64.8851 102.566 64.9562 102.566C65.0716 102.556 65.1861 102.592 65.2753 102.666C65.3646 102.74 65.4216 102.845 65.4343 102.96C65.447 103.076 65.4143 103.191 65.3433 103.282C65.2722 103.374 65.1683 103.434 65.0537 103.45C65.0158 103.451 62.7363 103.7 59.0417 103.942Z" fill="#5B9941"/>
<path d="M4.59375 71.2583C4.6614 71.373 9.08639 79.0384 17.0271 86.6385L18.4466 85.8668C13.5125 81.7698 8.2562 76.6935 4.59375 71.2583Z" fill="#77B75F"/>
<path d="M35.5484 60.6248L142.964 68.7768L138.479 127.878C138.397 128.954 138.104 130.003 137.617 130.966C137.13 131.929 136.458 132.786 135.64 133.489C134.821 134.192 133.872 134.727 132.847 135.063C131.822 135.399 130.741 135.53 129.665 135.449L38.6302 128.54C37.5543 128.458 36.5051 128.165 35.5424 127.678C34.5797 127.191 33.7224 126.519 33.0194 125.701C32.3164 124.882 31.7815 123.933 31.4453 122.908C31.109 121.883 30.9779 120.802 31.0596 119.726L35.5449 60.6245L35.5484 60.6248Z" fill="#D0195C"/>
<path d="M144.205 49.9523L37.3989 41.4078C34.8632 41.205 32.6432 43.0961 32.4403 45.6318L31.505 57.3232C31.3021 59.8589 33.1933 62.0789 35.729 62.2818L142.535 70.8263C145.071 71.0291 147.291 69.138 147.494 66.6023L148.429 54.9109C148.632 52.3752 146.741 50.1552 144.205 49.9523Z" fill="#D0195C"/>
<path d="M33.9658 60.5044L141.378 68.6562L136.893 127.757C136.811 128.833 136.519 129.882 136.031 130.845C135.544 131.808 134.872 132.665 134.054 133.368C133.235 134.071 132.286 134.606 131.261 134.942C130.236 135.279 129.155 135.41 128.079 135.328L37.0511 128.42C34.8783 128.255 32.8601 127.234 31.4403 125.581C30.0206 123.928 29.3156 121.778 29.4805 119.606L33.9658 60.5044Z" fill="#F24272"/>
<path d="M139.917 69.8318L135.541 127.476C135.398 129.358 134.513 131.107 133.081 132.337C131.649 133.567 129.787 134.178 127.904 134.035L37.4153 127.165C36.9783 127.132 36.5453 127.059 36.1218 126.946C34.5166 126.518 33.1115 125.543 32.1499 124.188C31.1883 122.833 30.7307 121.185 30.8563 119.528L35.2332 61.8843L139.917 69.8318Z" fill="white"/>
<path d="M70.6546 95.7686C70.6546 95.7686 71.4045 109.43 68.8497 120.249C68.5596 121.488 67.8185 122.576 66.7708 123.299C65.7231 124.023 64.4438 124.33 63.1817 124.162L34.9072 120.353L70.6546 95.7686Z" fill="#E8E8E8"/>
<path d="M139.917 69.832L135.542 127.476C135.399 129.359 134.514 131.107 133.081 132.337C131.649 133.567 129.787 134.178 127.905 134.035L37.4155 127.165C36.9786 127.132 36.5456 127.059 36.1221 126.946L69.802 128.146C104.608 129.384 134.792 104.281 139.917 69.832Z" fill="#E8E8E8"/>
<path d="M146.635 54.0082C146.308 58.3139 144.284 62.3133 141.008 65.1267C137.732 67.94 133.473 69.3369 129.167 69.01L34.3252 61.8147C33.7232 61.7698 33.1361 61.6064 32.5974 61.3341C32.0587 61.0618 31.5791 60.6858 31.186 60.2277C30.7929 59.7697 30.4941 59.2385 30.3067 58.6647C30.1193 58.091 30.047 57.4858 30.094 56.884L30.9792 45.227C31.0242 44.6251 31.1875 44.038 31.4598 43.4993C31.7321 42.9606 32.1081 42.4809 32.5662 42.0879C33.0242 41.6948 33.5554 41.396 34.1292 41.2086C34.703 41.0212 35.3081 40.9489 35.9099 40.9958L142.409 49.081C143.01 49.1265 143.596 49.2901 144.134 49.5625C144.672 49.8349 145.151 50.2106 145.544 50.6682C145.936 51.1259 146.235 51.6564 146.422 52.2295C146.609 52.8026 146.682 53.4071 146.635 54.0082Z" fill="#F24272"/>
<path d="M55.4227 50.3294C55.4007 50.5393 55.3309 50.7414 55.2188 50.9203C55.1068 51.0991 54.9553 51.25 54.776 51.3614C54.3617 51.6282 53.8702 51.7492 53.3793 51.7054L37.4567 50.4968C36.3938 50.4154 35.5819 49.6677 35.6461 48.8272C35.6567 48.6911 35.69 48.5578 35.7448 48.4328C35.8613 48.1714 36.0514 47.9495 36.2917 47.7941C36.7058 47.5268 37.1975 47.4057 37.6884 47.4501L37.8879 47.465L37.8397 47.0969L37.0726 41.0884L55.1796 42.4644L53.4114 48.6449L53.611 48.6598C54.0761 48.6896 54.5203 48.864 54.8815 49.1586C55.0584 49.2965 55.1999 49.4747 55.294 49.6784C55.3882 49.882 55.4323 50.1052 55.4227 50.3294Z" fill="#D0195C"/>
<path d="M61.8625 50.4731L58.4409 50.2139L58.2746 52.4029L61.1344 52.6196C61.3489 52.6195 61.5557 52.6992 61.7146 52.8432C61.7753 52.9088 61.8211 52.9867 61.8488 53.0716C61.8766 53.1565 61.8855 53.2464 61.8751 53.3351C61.8724 53.4243 61.8499 53.5116 61.8093 53.591C61.7686 53.6703 61.7108 53.7396 61.6401 53.7938C61.4612 53.9094 61.2464 53.9559 61.0358 53.9245L58.1749 53.7078L57.9604 56.5332C57.9329 56.8917 57.832 57.1516 57.6577 57.3129C57.5695 57.3895 57.4669 57.4478 57.3559 57.4844C57.2449 57.5211 57.1277 57.5352 57.0112 57.5262C56.8947 57.5171 56.7812 57.485 56.6772 57.4316C56.5732 57.3783 56.4809 57.3048 56.4055 57.2155C56.2565 57.0274 56.1957 56.756 56.2232 56.4013L56.7243 49.8023C56.7321 49.5922 56.7857 49.3863 56.8814 49.1991C56.9628 49.0503 57.0964 48.9367 57.2564 48.8803C57.4542 48.8168 57.6633 48.7957 57.8698 48.8184L61.9646 49.1292C62.2409 49.1498 62.4428 49.2278 62.5677 49.3585C62.6281 49.4274 62.6742 49.5076 62.7032 49.5944C62.7321 49.6813 62.7435 49.7731 62.7366 49.8644C62.7296 49.9557 62.7045 50.0447 62.6627 50.1262C62.6209 50.2077 62.5633 50.28 62.4932 50.3389C62.3499 50.4536 62.14 50.4949 61.8625 50.4731ZM69.6255 51.0625L65.7119 50.7655L65.5525 52.8719L69.1565 53.1448C69.3709 53.1451 69.5775 53.2248 69.7367 53.3684C69.7969 53.433 69.8424 53.51 69.8699 53.5939C69.8975 53.6779 69.9064 53.7668 69.8961 53.8546C69.8921 53.9428 69.8696 54.0293 69.8301 54.1083C69.7906 54.1873 69.735 54.2571 69.6667 54.3133C69.5292 54.4279 69.3227 54.4726 69.0567 54.452L65.4527 54.1791L65.2681 56.6181L69.3159 56.9254C69.5396 56.9258 69.755 57.0106 69.919 57.1627C69.9832 57.2323 70.0315 57.315 70.0607 57.4051C70.0898 57.4951 70.0989 57.5905 70.0876 57.6845C70.0839 57.7772 70.06 57.868 70.0176 57.9506C69.9753 58.0332 69.9154 58.1055 69.8422 58.1626C69.6577 58.2884 69.4323 58.3397 69.2115 58.3059L64.4895 57.9482C64.1127 57.9184 63.847 57.8136 63.6926 57.634C63.5382 57.4544 63.4759 57.1772 63.5057 56.8027L63.9953 50.355C64.004 50.1452 64.058 49.9399 64.1536 49.753C64.2347 49.6043 64.3678 49.4908 64.5274 49.4342C64.7251 49.3698 64.9342 49.3483 65.1409 49.3711L69.7275 49.7151C70.005 49.7358 70.2057 49.8137 70.3307 49.9445C70.4496 50.0828 70.5086 50.2628 70.4949 50.4447C70.4811 50.6266 70.3956 50.7956 70.2573 50.9145C70.1128 51.0384 69.903 51.0842 69.6255 51.0625ZM75.079 58.7554L72.4577 58.5559C72.0793 58.5276 71.8156 58.4221 71.6665 58.2394C71.5175 58.0583 71.4578 57.7808 71.4854 57.4115L71.975 50.965C72.004 50.5866 72.1076 50.319 72.2857 50.1623C72.4635 50.0098 72.7444 49.9467 73.109 49.9754L75.8874 50.1864C76.2443 50.2096 76.5987 50.2622 76.9469 50.3435C77.2284 50.4105 77.4945 50.5304 77.7313 50.6967C77.9261 50.8336 78.0964 51.0027 78.2346 51.1966C78.3751 51.3908 78.4803 51.6081 78.5454 51.8387C78.61 52.073 78.6333 52.3166 78.6142 52.5589C78.5485 53.4166 78.0718 54.0117 77.1843 54.3442C78.2843 54.7891 78.795 55.5303 78.7162 56.5676C78.6872 57.0265 78.5246 57.467 78.2484 57.8347C77.982 58.1943 77.6131 58.4649 77.19 58.611C76.8927 58.7052 76.5843 58.76 76.2727 58.7738C75.8748 58.7932 75.4761 58.787 75.079 58.7554ZM73.6938 51.3365L73.5264 53.5496L75.1169 53.6642C75.4547 53.7028 75.7965 53.6869 76.1294 53.6172C76.3683 53.5541 76.5736 53.4014 76.7027 53.1907C76.8138 53.0317 76.8788 52.8453 76.8908 52.6517C76.9236 52.2183 76.7914 51.919 76.494 51.7539C76.1966 51.5888 75.7341 51.4852 75.1065 51.4431L73.6938 51.3365ZM75.2395 54.937L73.4313 54.7994L73.2409 57.3038L75.1065 57.4482C76.2807 57.5377 76.8999 57.1593 76.9641 56.313C76.9962 55.8796 76.8678 55.5539 76.5789 55.3361C76.2899 55.1182 75.8435 54.9852 75.2395 54.937ZM82.6459 55.6399L82.0381 55.5941L81.8283 58.3461C81.8008 58.7084 81.7006 58.9695 81.5279 59.1293C81.4415 59.2084 81.3392 59.268 81.2279 59.3042C81.1165 59.3404 80.9986 59.3523 80.8823 59.3391C80.7613 59.3365 80.6424 59.3066 80.5346 59.2516C80.4268 59.1966 80.3328 59.1179 80.2597 59.0215C80.1209 58.83 80.0647 58.5628 80.0911 58.2188L80.5922 51.6197C80.6212 51.2459 80.7256 50.9814 80.9052 50.8262C81.0853 50.6714 81.3639 50.6072 81.7377 50.6359L84.5631 50.8503C84.8974 50.8731 85.2301 50.9152 85.5595 50.9765C85.816 51.024 86.0636 51.111 86.2934 51.2345C86.5526 51.3676 86.7827 51.5512 86.97 51.7745C87.1602 51.9999 87.3015 52.2623 87.385 52.5451C87.4713 52.8361 87.5032 53.1404 87.4791 53.4429C87.4301 54.0828 87.2107 54.5797 86.8209 54.9336C86.431 55.2875 85.8638 55.5169 85.1192 55.6216C85.4408 55.8336 85.7212 56.102 85.9471 56.4139C86.203 56.7528 86.4286 57.1135 86.6214 57.4918C86.7927 57.8193 86.9398 58.1588 87.0617 58.5078C87.141 58.7033 87.1879 58.9106 87.2004 59.1212C87.1893 59.2413 87.1431 59.3553 87.0674 59.4492C86.985 59.5559 86.8758 59.639 86.7509 59.69C86.6118 59.7462 86.4611 59.7678 86.3118 59.753C86.1369 59.7468 85.9685 59.6858 85.8302 59.5787C85.7026 59.475 85.5956 59.3482 85.5148 59.2049C85.43 59.0566 85.3153 58.8399 85.1708 58.5548L84.5631 57.3439C84.3965 56.9856 84.1969 56.6435 83.9668 56.3222C83.8197 56.1134 83.6262 55.9415 83.4015 55.82C83.1632 55.7129 82.9069 55.6518 82.6459 55.6399ZM83.9141 52.1117L82.3088 51.9901L82.1322 54.3522L83.6882 54.4669C84.0419 54.501 84.3985 54.4918 84.75 54.4394C85.0028 54.4065 85.2392 54.2959 85.4265 54.1229C85.6022 53.9318 85.7018 53.683 85.7063 53.4234C85.7285 53.2021 85.6823 52.9793 85.5741 52.785C85.4658 52.5906 85.3007 52.4341 85.1009 52.3364C84.9071 52.2309 84.5092 52.1575 83.9141 52.1117ZM88.6372 56.219L88.9514 52.091C88.9778 51.7401 89.0764 51.4821 89.2472 51.3193C89.3321 51.2384 89.4337 51.177 89.5448 51.1396C89.656 51.1022 89.774 51.0895 89.8905 51.1026C90.0104 51.1062 90.1281 51.136 90.2352 51.1898C90.3424 51.2437 90.4365 51.3204 90.5109 51.4145C90.6565 51.6025 90.715 51.8731 90.6886 52.2171L90.3687 56.4346C90.3273 56.8405 90.3505 57.2503 90.4375 57.6489C90.5112 57.9648 90.6929 58.245 90.9512 58.4413C91.2103 58.64 91.5857 58.7577 92.0772 58.7944C92.756 58.8456 93.2495 58.7015 93.5575 58.3621C93.8656 58.0227 94.0476 57.4876 94.1034 56.7568L94.4267 52.5038C94.4531 52.1495 94.5517 51.8915 94.7203 51.7287C94.806 51.6486 94.9082 51.5881 95.0197 51.5515C95.1312 51.5148 95.2493 51.5029 95.3658 51.5165C95.4839 51.5223 95.5994 51.5533 95.7046 51.6072C95.8098 51.6612 95.9023 51.737 95.9759 51.8296C96.1234 52.0153 96.1842 52.2856 96.1582 52.6403L95.8451 56.7683C95.8145 57.3351 95.7056 57.895 95.5218 58.4321C95.3531 58.8762 95.066 59.2656 94.6916 59.5581C94.3585 59.8229 93.9708 60.0105 93.5564 60.1074C93.075 60.2122 92.5803 60.242 92.0898 60.1957C91.5143 60.1627 90.9466 60.0469 90.4042 59.8517C89.976 59.699 89.5928 59.4416 89.2897 59.1029C89.0007 58.7586 88.8035 58.3468 88.7163 57.9058C88.6087 57.3503 88.582 56.7821 88.6372 56.219ZM102.419 59.8562L102.091 58.7486L98.6052 58.4802L98.1121 59.5489C97.9892 59.8471 97.8293 60.1288 97.6362 60.3871C97.5124 60.5282 97.3209 60.589 97.0629 60.5695C96.9552 60.5616 96.8501 60.5326 96.7537 60.484C96.6573 60.4354 96.5714 60.3682 96.501 60.2862C96.4287 60.2123 96.3726 60.1239 96.3365 60.027C96.3003 59.93 96.2849 59.8265 96.2912 59.7232C96.3019 59.6 96.3309 59.479 96.3772 59.3643C96.4254 59.2428 96.5018 59.0742 96.6065 58.8586L99.2232 53.4555L99.4915 52.8971C99.5803 52.7071 99.6887 52.5268 99.8149 52.3593C99.9275 52.2184 100.071 52.1054 100.235 52.0291C100.427 51.946 100.637 51.9144 100.845 51.9374C101.055 51.9462 101.26 52.0094 101.44 52.1208C101.589 52.2191 101.714 52.3506 101.804 52.505C101.893 52.6582 101.966 52.8204 102.021 52.9889C102.076 53.1601 102.146 53.3894 102.231 53.6769L104.051 59.3815C104.195 59.8157 104.26 60.1284 104.244 60.3195C104.235 60.4227 104.204 60.5229 104.154 60.6138C104.104 60.7047 104.036 60.7844 103.954 60.8481C103.871 60.9222 103.773 60.9784 103.666 61.0133C103.56 61.0482 103.448 61.0611 103.336 61.0511C103.215 61.0448 103.098 61.0107 102.992 60.9513C102.901 60.8962 102.823 60.8219 102.763 60.7334C102.686 60.6072 102.624 60.472 102.58 60.331C102.518 60.1486 102.464 59.9904 102.419 59.8562ZM99.1602 57.2189L101.723 57.4127L100.698 53.7755L99.1602 57.2189ZM108.088 57.5721L107.479 57.5251L107.271 60.2771C107.243 60.6406 107.142 60.9009 106.97 61.0602C106.884 61.1393 106.781 61.1989 106.67 61.2351C106.559 61.2713 106.441 61.2832 106.325 61.2701C106.203 61.2677 106.084 61.2379 105.976 61.1829C105.868 61.1278 105.774 61.0491 105.701 60.9525C105.563 60.7621 105.507 60.4946 105.533 60.1498L106.033 53.5496C106.062 53.175 106.167 52.9101 106.347 52.7549C106.528 52.5998 106.805 52.5367 107.18 52.5657L110.005 52.7802C110.34 52.8022 110.672 52.8439 111.002 52.9051C111.258 52.9531 111.505 53.0405 111.735 53.1643C111.994 53.2966 112.225 53.4799 112.412 53.7032C112.602 53.9289 112.743 54.1912 112.827 54.4738C112.914 54.7651 112.945 55.0699 112.92 55.3728C112.872 56.0111 112.653 56.508 112.263 56.8634C111.873 57.2189 111.306 57.4482 110.56 57.5514C110.882 57.7631 111.163 58.0316 111.388 58.3438C111.644 58.6828 111.869 59.0435 112.062 59.4217C112.234 59.749 112.382 60.0886 112.504 60.4376C112.583 60.6332 112.63 60.8404 112.643 61.0511C112.631 61.1711 112.584 61.2851 112.509 61.379C112.427 61.4863 112.318 61.5696 112.193 61.6198C112.054 61.6765 111.903 61.6986 111.753 61.684C111.578 61.6768 111.41 61.6155 111.272 61.5086C111.144 61.4051 111.037 61.2783 110.956 61.1348C110.871 60.988 110.756 60.7717 110.612 60.4858L110.006 59.2829C109.84 58.9243 109.64 58.5819 109.41 58.2601C109.263 58.0516 109.07 57.88 108.845 57.759C108.607 57.649 108.35 57.5855 108.088 57.5721ZM109.356 54.0438L107.751 53.9222L107.572 56.2798L109.128 56.3945C109.482 56.4277 109.838 56.418 110.189 56.3658C110.443 56.3322 110.681 56.2209 110.87 56.047C111.045 55.8557 111.144 55.6069 111.149 55.3475C111.172 55.1259 111.126 54.9026 111.018 54.7079C110.909 54.5132 110.744 54.3566 110.543 54.2594C110.349 54.1607 109.953 54.0889 109.356 54.0438ZM115.618 60.9146L115.825 58.1947L113.979 54.7891C113.852 54.5579 113.74 54.3193 113.641 54.0747C113.583 53.9371 113.555 53.7885 113.559 53.639C113.566 53.5416 113.594 53.4469 113.641 53.361C113.687 53.2752 113.752 53.2004 113.829 53.1414C113.995 53.009 114.206 52.9469 114.417 52.9682C114.516 52.969 114.615 52.9911 114.705 53.033C114.796 53.0749 114.877 53.1357 114.942 53.2113C115.129 53.4794 115.293 53.7625 115.434 54.0575L116.839 56.7832L118.657 54.3029L118.933 53.9177C119.007 53.8149 119.088 53.7179 119.176 53.6275C119.257 53.5429 119.353 53.475 119.46 53.428C119.612 53.3711 119.778 53.3603 119.937 53.397C120.096 53.4337 120.241 53.5162 120.353 53.6344C120.417 53.7021 120.466 53.7825 120.498 53.8704C120.529 53.9582 120.541 54.0517 120.534 54.1447C120.521 54.3034 120.471 54.4568 120.388 54.593C120.258 54.8027 120.116 55.0041 119.961 55.1962L117.563 58.3266L117.357 61.0465C117.33 61.4019 117.228 61.6599 117.05 61.8239C116.962 61.9008 116.86 61.9594 116.749 61.9964C116.639 62.0334 116.521 62.048 116.405 62.0393C116.288 62.0307 116.175 61.999 116.071 61.9461C115.967 61.8931 115.874 61.8201 115.798 61.731C115.651 61.5453 115.591 61.2731 115.618 60.9146Z" fill="white"/>
<path d="M45.4265 126.003C45.3845 125.999 45.3437 125.988 45.3062 125.969C45.2687 125.95 45.2354 125.924 45.2081 125.892C45.1808 125.86 45.1601 125.823 45.1472 125.783C45.1343 125.743 45.1295 125.7 45.1329 125.659L49.7333 65.0732C49.7349 65.0305 49.7452 64.9886 49.7634 64.9499C49.7816 64.9113 49.8074 64.8767 49.8393 64.8482C49.8711 64.8198 49.9084 64.798 49.9489 64.7843C49.9894 64.7706 50.0322 64.7653 50.0748 64.7685C50.1174 64.7717 50.159 64.7835 50.1969 64.8032C50.2348 64.8229 50.2684 64.85 50.2956 64.8829C50.3228 64.9159 50.3431 64.954 50.3553 64.995C50.3674 65.0359 50.3712 65.0789 50.3663 65.1214L45.767 125.709C45.7606 125.793 45.7211 125.871 45.6573 125.926C45.5935 125.981 45.5105 126.009 45.4265 126.003ZM60.3733 127.137C60.3313 127.134 60.2903 127.122 60.2527 127.103C60.2152 127.085 60.1818 127.058 60.1545 127.026C60.1273 126.994 60.1067 126.957 60.0941 126.917C60.0814 126.877 60.0769 126.834 60.0809 126.793L64.6801 66.2084C64.6815 66.1656 64.6916 66.1235 64.7096 66.0847C64.7277 66.0459 64.7534 66.0111 64.7853 65.9825C64.8171 65.9539 64.8545 65.932 64.895 65.9182C64.9355 65.9043 64.9784 65.8988 65.0211 65.902C65.0638 65.9052 65.1055 65.9169 65.1435 65.9366C65.1815 65.9563 65.2152 65.9834 65.2425 66.0165C65.2697 66.0495 65.2901 66.0877 65.3022 66.1287C65.3143 66.1698 65.318 66.2129 65.3131 66.2554L60.7138 126.844C60.7074 126.928 60.6679 127.006 60.604 127.061C60.5402 127.116 60.4572 127.143 60.3733 127.137ZM75.3201 128.272C75.2782 128.268 75.2375 128.257 75.2002 128.238C75.1628 128.219 75.1296 128.192 75.1025 128.16C75.0753 128.128 75.0547 128.091 75.0419 128.052C75.029 128.012 75.0242 127.97 75.0277 127.928L79.6269 67.339C79.6285 67.2963 79.6388 67.2544 79.657 67.2157C79.6752 67.1771 79.701 67.1425 79.7329 67.114C79.7647 67.0856 79.802 67.0639 79.8425 67.0502C79.883 67.0365 79.9258 67.0311 79.9684 67.0343C80.011 67.0376 80.0526 67.0494 80.0905 67.069C80.1284 67.0887 80.162 67.1158 80.1892 67.1488C80.2164 67.1817 80.2367 67.2198 80.2489 67.2608C80.261 67.3017 80.2648 67.3447 80.2599 67.3872L75.6606 127.979C75.6542 128.063 75.6147 128.141 75.5508 128.196C75.487 128.251 75.404 128.278 75.3201 128.272ZM90.2669 129.406C90.225 129.403 90.1842 129.391 90.1468 129.372C90.1094 129.353 90.0761 129.327 90.0489 129.295C90.0217 129.263 90.0011 129.226 89.9883 129.186C89.9756 129.146 89.9708 129.104 89.9745 129.062L94.5749 68.4742C94.5765 68.4315 94.5867 68.3896 94.6049 68.3509C94.6231 68.3123 94.6489 68.2777 94.6808 68.2492C94.7127 68.2208 94.75 68.199 94.7905 68.1853C94.8309 68.1717 94.8738 68.1663 94.9164 68.1695C94.959 68.1727 95.0005 68.1846 95.0384 68.2042C95.0764 68.2239 95.11 68.251 95.1372 68.284C95.1644 68.3169 95.1847 68.355 95.1968 68.396C95.209 68.4369 95.2127 68.4799 95.2078 68.5224L90.6074 129.115C90.6044 129.156 90.5931 129.197 90.5743 129.234C90.5555 129.271 90.5295 129.304 90.4979 129.331C90.4662 129.358 90.4295 129.379 90.3898 129.392C90.3502 129.404 90.3084 129.409 90.2669 129.406ZM105.215 130.541C105.173 130.538 105.132 130.526 105.095 130.507C105.057 130.488 105.024 130.462 104.997 130.43C104.97 130.398 104.949 130.361 104.936 130.321C104.924 130.281 104.919 130.239 104.922 130.197L109.522 69.6083C109.523 69.5656 109.534 69.5236 109.552 69.485C109.57 69.4463 109.596 69.4117 109.628 69.3833C109.659 69.3548 109.697 69.3331 109.737 69.3194C109.778 69.3057 109.821 69.3003 109.863 69.3036C109.906 69.3068 109.947 69.3186 109.985 69.3383C110.023 69.3579 110.057 69.3851 110.084 69.418C110.111 69.4509 110.131 69.4891 110.144 69.53C110.156 69.571 110.16 69.614 110.155 69.6564L105.555 130.245C105.552 130.287 105.541 130.328 105.523 130.365C105.504 130.403 105.478 130.436 105.446 130.464C105.415 130.491 105.378 130.512 105.338 130.525C105.299 130.539 105.257 130.544 105.215 130.541ZM120.162 131.675C120.12 131.672 120.079 131.66 120.042 131.641C120.004 131.622 119.971 131.596 119.944 131.564C119.916 131.532 119.896 131.495 119.883 131.455C119.87 131.415 119.866 131.373 119.869 131.331L124.468 70.7492C124.47 70.7065 124.48 70.6646 124.499 70.6259C124.517 70.5873 124.543 70.5527 124.574 70.5242C124.606 70.4958 124.644 70.474 124.684 70.4603C124.725 70.4466 124.767 70.4413 124.81 70.4445C124.853 70.4477 124.894 70.4595 124.932 70.4792C124.97 70.4989 125.004 70.526 125.031 70.5589C125.058 70.5919 125.078 70.63 125.09 70.671C125.103 70.7119 125.106 70.7549 125.101 70.7974L120.502 131.385C120.499 131.426 120.488 131.467 120.469 131.504C120.45 131.541 120.424 131.574 120.392 131.601C120.361 131.628 120.324 131.648 120.284 131.661C120.245 131.674 120.203 131.679 120.162 131.675Z" fill="#C9C9C9"/>
<path d="M136.776 82.7895L36.3812 75.163C36.2996 75.1536 36.2248 75.113 36.1725 75.0497C36.1202 74.9864 36.0944 74.9052 36.1006 74.8233C36.1069 74.7414 36.1446 74.6651 36.2059 74.6104C36.2672 74.5557 36.3473 74.5269 36.4293 74.53L136.825 82.1519C136.906 82.1613 136.981 82.2019 137.033 82.2652C137.086 82.3285 137.111 82.4097 137.105 82.4916C137.099 82.5735 137.061 82.6498 137 82.7045C136.939 82.7591 136.859 82.788 136.776 82.7849V82.7895ZM135.812 95.5002L35.4157 87.8784C35.373 87.8767 35.331 87.8665 35.2924 87.8483C35.2537 87.8301 35.2191 87.8043 35.1907 87.7724C35.1622 87.7406 35.1405 87.7033 35.1268 87.6628C35.1131 87.6223 35.1077 87.5795 35.111 87.5369C35.1142 87.4943 35.126 87.4527 35.1457 87.4148C35.1653 87.3769 35.1924 87.3433 35.2254 87.3161C35.2583 87.2889 35.2964 87.2686 35.3374 87.2564C35.3784 87.2443 35.4214 87.2405 35.4638 87.2454L135.86 94.8673C135.903 94.8689 135.945 94.8791 135.984 94.8973C136.022 94.9155 136.057 94.9413 136.085 94.9732C136.114 95.0051 136.135 95.0424 136.149 95.0829C136.163 95.1234 136.168 95.1662 136.165 95.2088C136.162 95.2514 136.15 95.2929 136.13 95.3309C136.111 95.3688 136.083 95.4024 136.051 95.4296C136.018 95.4568 135.979 95.4771 135.939 95.4892C135.898 95.5014 135.855 95.5051 135.812 95.5002ZM134.848 108.216L34.4502 100.594C34.4075 100.592 34.3656 100.582 34.3269 100.564C34.2882 100.546 34.2536 100.52 34.2252 100.488C34.1967 100.456 34.175 100.419 34.1613 100.378C34.1476 100.338 34.1422 100.295 34.1455 100.252C34.1487 100.21 34.1605 100.168 34.1802 100.13C34.1998 100.092 34.227 100.059 34.2599 100.031C34.2929 100.004 34.331 99.984 34.3719 99.9718C34.4129 99.9597 34.4559 99.9559 34.4983 99.9608L134.895 107.583C134.976 107.592 135.051 107.633 135.103 107.696C135.156 107.759 135.182 107.84 135.175 107.922C135.169 108.004 135.131 108.081 135.07 108.135C135.009 108.19 134.929 108.219 134.847 108.216H134.848ZM133.881 120.93L33.4824 113.309C33.4397 113.308 33.3978 113.297 33.3591 113.279C33.3204 113.261 33.2858 113.235 33.2574 113.203C33.2289 113.171 33.2072 113.134 33.1935 113.094C33.1798 113.053 33.1744 113.01 33.1777 112.968C33.1809 112.925 33.1927 112.884 33.2124 112.846C33.2321 112.808 33.2592 112.774 33.2921 112.747C33.3251 112.72 33.3632 112.699 33.4041 112.687C33.4451 112.675 33.4881 112.671 33.5306 112.676L133.93 120.297C133.973 120.299 134.015 120.309 134.054 120.327C134.092 120.345 134.127 120.371 134.155 120.403C134.184 120.435 134.206 120.472 134.219 120.513C134.233 120.553 134.238 120.596 134.235 120.638C134.232 120.681 134.22 120.723 134.2 120.76C134.181 120.798 134.154 120.832 134.121 120.859C134.088 120.886 134.05 120.907 134.009 120.919C133.968 120.931 133.925 120.935 133.882 120.93H133.881Z" fill="#C9C9C9"/>
<path d="M63.0562 75.5035C61.5346 73.7565 59.9128 72.0994 58.1989 70.5407C60.1412 69.1438 62.0026 67.6378 63.774 66.0297C63.8469 65.9602 63.8924 65.8668 63.9022 65.7666C63.9121 65.6664 63.8858 65.5659 63.8279 65.4835C63.77 65.4011 63.6845 65.3421 63.5869 65.3174C63.4893 65.2926 63.386 65.3037 63.2958 65.3486C61.0823 66.5657 58.9385 67.9056 56.8745 69.3619C55.8807 68.5027 54.8648 67.671 53.8267 66.8668C53.1456 66.3462 52.4507 65.8348 51.742 65.3486C51.6578 65.2906 51.5553 65.2653 51.4537 65.2774C51.3521 65.2895 51.2584 65.3381 51.1901 65.4143C51.1218 65.4905 51.0836 65.5889 51.0826 65.6912C51.0816 65.7935 51.1179 65.8926 51.1848 65.9701C52.532 67.5153 53.9573 68.9906 55.4549 70.3905C53.7464 71.6618 52.1006 73.0122 50.5174 74.4417C50.4414 74.5109 50.3933 74.6056 50.3823 74.7078C50.3713 74.81 50.3981 74.9127 50.4576 74.9966C50.5172 75.0804 50.6054 75.1395 50.7055 75.1628C50.8057 75.186 50.9109 75.1718 51.0013 75.1228C52.9816 74.0439 54.9014 72.8572 56.7518 71.5681C57.9344 72.6177 59.1522 73.6271 60.4051 74.5965C61.0931 75.1205 61.788 75.6342 62.5035 76.1238C62.5878 76.1775 62.6885 76.1995 62.7875 76.1858C62.8865 76.172 62.9774 76.1235 63.0439 76.0489C63.1103 75.9742 63.1481 75.8784 63.1504 75.7784C63.1526 75.6785 63.1192 75.581 63.0562 75.5035ZM109.314 91.4548C111.082 89.9581 112.936 88.5649 114.865 87.282C113.156 85.6099 111.543 83.8419 110.035 81.9867C109.972 81.9065 109.94 81.8062 109.946 81.7044C109.951 81.6026 109.993 81.5062 110.064 81.4329C110.135 81.3596 110.23 81.3145 110.331 81.3059C110.433 81.2972 110.534 81.3256 110.616 81.3859C112.62 82.9215 114.537 84.5676 116.358 86.3165C117.469 85.6171 118.599 84.9482 119.747 84.3099C120.5 83.8982 121.261 83.498 122.041 83.1231C122.133 83.0789 122.238 83.0697 122.336 83.0971C122.435 83.1245 122.52 83.1868 122.576 83.2722C122.632 83.3577 122.655 83.4605 122.641 83.5618C122.627 83.663 122.577 83.7556 122.499 83.8225C120.934 85.1457 119.302 86.3888 117.61 87.5469C119.106 89.0613 120.529 90.6448 121.88 92.2976C121.943 92.3779 121.974 92.4782 121.969 92.58C121.963 92.6818 121.921 92.7781 121.85 92.8513C121.779 92.9244 121.684 92.9693 121.583 92.9778C121.481 92.9862 121.38 92.9576 121.298 92.8973C119.502 91.5339 117.784 90.0727 116.149 88.5204C114.823 89.3804 113.467 90.1946 112.081 90.9628C111.324 91.3779 110.558 91.7793 109.776 92.1565C109.683 92.2058 109.575 92.2188 109.474 92.1928C109.372 92.1668 109.283 92.1038 109.225 92.016C109.168 91.9282 109.145 91.8221 109.161 91.7183C109.177 91.6145 109.232 91.5205 109.314 91.4548Z" fill="#D0195C"/>
<path d="M108.704 110.235C109.123 109.613 109.647 109.068 110.252 108.624C110.557 108.402 110.883 108.21 111.225 108.051C111.395 107.966 111.569 107.9 111.749 107.83L112.02 107.742C112.11 107.711 112.203 107.685 112.296 107.663C113.039 107.486 113.805 107.433 114.565 107.505C115.339 107.575 116.09 107.802 116.773 108.172C117.115 108.363 117.436 108.589 117.73 108.848C118.023 109.107 118.288 109.396 118.524 109.709C118.997 110.336 119.35 111.044 119.567 111.799C119.791 112.563 119.859 113.364 119.767 114.154C119.695 114.763 119.507 115.352 119.214 115.89C119.16 115.979 119.112 116.069 119.053 116.154L118.876 116.41C118.367 117.062 117.701 117.575 116.941 117.9C116.198 118.218 115.404 118.399 114.597 118.434C114.198 118.451 113.799 118.438 113.401 118.396C113.004 118.35 112.611 118.273 112.225 118.167C111.432 117.952 110.692 117.575 110.053 117.059C109.382 116.513 108.914 115.758 108.722 114.915C108.675 114.704 108.646 114.491 108.634 114.276C108.623 114.056 108.637 113.836 108.675 113.619C108.75 113.179 108.937 112.766 109.218 112.419C109.487 112.092 109.823 111.825 110.202 111.636C110.562 111.457 110.946 111.335 111.343 111.274C111.727 111.215 112.116 111.201 112.503 111.234C112.88 111.272 113.252 111.349 113.614 111.463C113.626 111.468 113.637 111.478 113.643 111.49C113.65 111.502 113.652 111.516 113.649 111.529C113.647 111.543 113.64 111.555 113.629 111.564C113.619 111.573 113.606 111.578 113.592 111.578C113.23 111.553 112.866 111.556 112.505 111.586C112.154 111.621 111.808 111.693 111.473 111.803C111.15 111.906 110.843 112.055 110.562 112.244C110.299 112.422 110.074 112.651 109.901 112.917C109.741 113.166 109.647 113.451 109.626 113.746V113.861V113.975C109.626 114.013 109.626 114.05 109.632 114.09C109.639 114.13 109.638 114.166 109.644 114.205C109.665 114.357 109.699 114.508 109.746 114.654C109.794 114.803 109.853 114.948 109.921 115.089C109.99 115.228 110.07 115.363 110.159 115.49C110.34 115.739 110.558 115.959 110.805 116.142C111.065 116.335 111.343 116.502 111.637 116.638C111.939 116.779 112.252 116.894 112.574 116.982C113.224 117.17 113.898 117.265 114.575 117.265C114.912 117.27 115.249 117.244 115.581 117.188C115.91 117.135 116.234 117.05 116.547 116.936C117.171 116.719 117.723 116.332 118.141 115.819C118.558 115.306 118.824 114.686 118.909 114.03C119.012 113.354 118.977 112.664 118.808 112.001C118.646 111.326 118.362 110.686 117.969 110.113C117.773 109.827 117.548 109.561 117.299 109.32C117.05 109.079 116.775 108.866 116.479 108.685C115.878 108.318 115.209 108.078 114.511 107.98C113.801 107.875 113.079 107.887 112.373 108.016C110.945 108.328 109.677 109.142 108.799 110.31C108.79 110.322 108.776 110.331 108.76 110.334C108.745 110.337 108.729 110.333 108.716 110.324C108.703 110.315 108.694 110.301 108.691 110.285C108.689 110.27 108.692 110.254 108.701 110.241L108.704 110.235ZM103.858 125.869C103.589 126.569 103.201 127.217 102.711 127.786C102.463 128.071 102.189 128.332 101.891 128.564C101.746 128.686 101.586 128.794 101.433 128.898L101.188 129.045C101.109 129.094 101.023 129.141 100.937 129.184C100.253 129.523 99.5164 129.747 98.7586 129.846C97.9889 129.953 97.2057 129.9 96.4572 129.692C96.0806 129.584 95.7168 129.436 95.3724 129.249C95.0287 129.061 94.7046 128.839 94.4047 128.587C93.8034 128.083 93.3001 127.472 92.9197 126.786C92.5305 126.092 92.2845 125.326 92.1962 124.535C92.13 123.926 92.1806 123.31 92.3453 122.72C92.3774 122.621 92.4049 122.522 92.4427 122.425L92.5574 122.137C92.9064 121.387 93.4397 120.737 94.1077 120.248C94.7597 119.771 95.4929 119.417 96.2714 119.203C97.042 118.983 97.8436 118.892 98.6439 118.934C99.4646 118.964 100.27 119.166 101.008 119.525C101.393 119.719 101.746 119.972 102.053 120.275C102.35 120.582 102.598 120.933 102.787 121.316C102.88 121.51 102.957 121.712 103.016 121.918C103.075 122.13 103.111 122.348 103.123 122.567C103.149 123.013 103.06 123.458 102.862 123.859C102.674 124.238 102.407 124.574 102.079 124.842C101.769 125.098 101.421 125.304 101.047 125.452C100.687 125.597 100.31 125.697 99.9259 125.751C99.5503 125.8 99.1705 125.81 98.793 125.779C98.7803 125.776 98.7689 125.769 98.7605 125.759C98.7522 125.749 98.7473 125.737 98.7466 125.724C98.746 125.711 98.7496 125.698 98.7569 125.688C98.7643 125.677 98.7749 125.669 98.7872 125.665C99.1456 125.607 99.499 125.522 99.8444 125.411C100.179 125.3 100.501 125.151 100.803 124.969C101.094 124.795 101.36 124.581 101.591 124.333C101.808 124.102 101.977 123.829 102.085 123.531C102.185 123.252 102.213 122.953 102.166 122.66L102.148 122.546L102.121 122.438C102.112 122.401 102.101 122.365 102.088 122.33C102.076 122.293 102.067 122.258 102.052 122.222C101.997 122.079 101.93 121.94 101.852 121.807C101.771 121.673 101.681 121.545 101.583 121.423C101.484 121.303 101.377 121.19 101.262 121.086C101.029 120.884 100.768 120.719 100.485 120.596C100.191 120.465 99.8834 120.366 99.5681 120.299C99.2421 120.228 98.9107 120.185 98.5774 120.17C97.9014 120.132 97.2235 120.191 96.5638 120.343C96.2345 120.414 95.9122 120.515 95.6006 120.643C95.2917 120.768 94.9953 120.921 94.7154 121.102C94.1565 121.453 93.7061 121.952 93.4144 122.544C93.1226 123.136 93.001 123.797 93.0631 124.454C93.1154 125.134 93.3037 125.797 93.6169 126.403C93.9261 127.025 94.347 127.585 94.8587 128.054C95.1141 128.289 95.3922 128.498 95.6889 128.678C95.9866 128.856 96.3022 129.001 96.6303 129.113C97.2983 129.335 98.0046 129.418 98.7058 129.357C99.4173 129.298 100.115 129.124 100.77 128.841C102.091 128.22 103.146 127.145 103.742 125.811C103.745 125.804 103.75 125.798 103.755 125.792C103.761 125.787 103.767 125.783 103.775 125.78C103.782 125.777 103.79 125.776 103.797 125.776C103.805 125.776 103.813 125.778 103.82 125.782C103.829 125.784 103.837 125.788 103.844 125.794C103.851 125.8 103.857 125.807 103.86 125.816C103.864 125.824 103.866 125.833 103.865 125.843C103.865 125.852 103.862 125.861 103.858 125.869Z" fill="#3A67B3"/>
<path d="M119.24 87.5282C118.286 87.9868 117.176 88.5097 116.132 88.7585C115.976 88.7952 115.812 88.7807 115.664 88.7171C115.516 88.6535 115.393 88.5443 115.311 88.4053C115.119 88.0776 114.965 87.7286 114.853 87.3653C114.809 87.2237 114.807 87.0723 114.848 86.9298C114.888 86.7872 114.97 86.6596 115.082 86.5627C115.905 85.8506 116.887 85.3116 117.828 84.7842C118.222 85.541 118.852 86.7714 119.24 87.5282Z" fill="#81B4D3"/>
<path d="M124.643 91.7687C123.305 92.1666 120.805 92.3271 117.954 86.7761C115.202 81.4235 116.686 79.2207 117.806 78.3642C117.862 78.3217 117.922 78.2859 117.985 78.2575C118.457 78.0454 119.102 78.2403 119.831 78.7724C120.966 79.5991 122.283 81.2217 123.417 83.3097C123.513 83.4909 123.61 83.6732 123.704 83.8579C123.798 84.0425 123.888 84.2282 123.976 84.4128C125.645 87.9469 125.974 91.0429 124.832 91.6884C124.772 91.7225 124.709 91.7494 124.643 91.7687Z" fill="#2584D8"/>
<path d="M117.955 86.7761C115.203 81.4235 116.687 79.2207 117.807 78.3642C117.863 78.3217 117.923 78.2859 117.986 78.2575C118.458 78.0454 119.103 78.2403 119.832 78.7724C120.041 80.2413 120.264 81.8684 120.291 82.3936C120.353 83.3636 119.688 85.8943 119.688 85.8943C119.688 85.8943 119.054 87.2107 117.955 86.7761Z" fill="#4B98E6"/>
<path d="M124.834 91.6885C123.64 91.7447 121.481 89.3299 119.776 86.0527C119.748 86.0011 119.721 85.9472 119.694 85.8956C117.965 82.5175 117.221 79.2197 117.987 78.2588C118.852 77.8678 120.296 78.8493 121.753 80.7321C122.376 81.5463 122.933 82.4086 123.419 83.311C123.515 83.4922 123.611 83.6745 123.706 83.8591C123.8 84.0437 123.89 84.2295 123.977 84.4141C125.647 87.9493 125.976 91.0453 124.834 91.6885Z" fill="#4B98E6"/>
<path d="M119.776 86.0512C119.748 85.9996 119.721 85.9457 119.694 85.8941C117.965 82.516 117.221 79.2182 117.987 78.2573C118.852 77.8663 120.296 78.8479 121.753 80.7307L119.23 81.3763C119.23 81.3763 118.755 82.5252 119.776 86.0512Z" fill="#62AFEF"/>
<path d="M124.263 90.1002C121.25 87.4168 119.356 83.6994 118.956 79.685L127.335 76.6968L131.567 85.1477L124.263 90.1002Z" fill="#2584D8"/>
<path d="M118.956 79.685L127.335 76.6968L128.514 79.052L128.671 81.3373C128.671 81.3373 121.173 90.904 118.956 79.685Z" fill="#4B98E6"/>
<path d="M135.956 86.1443C134.77 86.5491 131.535 87.0456 128.67 81.3375C125.908 75.8335 128.119 73.2111 129.16 72.4806C129.211 72.4445 129.267 72.4152 129.325 72.3935C130.433 71.9864 132.637 74.2442 134.459 77.7106L134.465 77.7209C134.556 77.8975 134.648 78.0764 134.737 78.2575C134.827 78.4387 134.918 78.6268 135.004 78.8102C136.642 82.3339 137.095 85.4173 136.122 86.0629C136.07 86.0968 136.015 86.1242 135.956 86.1443Z" fill="#4B98E6"/>
<path d="M128.67 81.3375C125.908 75.8335 128.119 73.2111 129.16 72.4806C129.211 72.4445 129.267 72.4152 129.325 72.3935C130.433 71.9864 132.637 74.2442 134.459 77.7106L134.465 77.7209L131.168 80.0693C131.168 80.0693 130.58 80.9683 128.67 81.3375Z" fill="#62AFEF"/>
<path d="M136.121 86.0629C135.034 86.1179 132.899 83.5402 131.167 80.0692C130.861 79.4558 130.585 78.8515 130.342 78.2655C129.195 75.4998 128.748 73.1055 129.325 72.3935C130.283 72.0414 132.061 73.6835 133.711 76.3919C133.966 76.807 134.216 77.2484 134.458 77.7106C134.552 77.8902 134.645 78.0725 134.737 78.2575C134.829 78.4433 134.917 78.6267 135.003 78.8102C136.642 82.3305 137.094 85.4173 136.121 86.0629Z" fill="#2584D8"/>
<path d="M133.273 80.3339C132.46 80.5633 131.288 79.7021 130.342 78.2699C129.195 75.5042 128.748 73.1099 129.325 72.3979C130.283 72.0458 132.061 73.6879 133.711 76.3963C134.282 78.1633 134.114 79.7629 133.273 80.3339Z" fill="#4B98E6"/>
<path d="M63.6147 122.533L34.9033 120.354C41.0689 112.869 41.64 97.5928 41.64 97.5928L70.3502 99.7714C70.3491 99.7875 70.3491 99.8036 70.3502 99.8196C70.3067 100.759 69.5785 115.292 63.6147 122.533Z" fill="#FFC258"/>
<path d="M63.6147 122.533L34.9033 120.354L46.9089 121.013C59.0361 121.681 69.52 112.498 70.3147 100.379C70.3273 100.195 70.3388 100.008 70.3491 99.8208C70.3067 100.759 69.5785 115.292 63.6147 122.533Z" fill="#EFAC4B"/>
<path d="M70.6574 95.7669L41.8877 93.5835L41.5839 97.5865L70.3536 99.7699L70.6574 95.7669Z" fill="#EFAC4B"/>
<path d="M66.8234 104.305L44.234 102.585C44.1408 102.578 44.0542 102.535 43.9932 102.464C43.9323 102.393 43.902 102.301 43.9089 102.207C43.9159 102.114 43.9597 102.028 44.0305 101.967C44.1014 101.906 44.1936 101.875 44.2868 101.882L66.8761 103.602C66.9223 103.606 66.9673 103.618 67.0086 103.639C67.0498 103.66 67.0866 103.689 67.1167 103.724C67.1469 103.759 67.1698 103.8 67.1842 103.844C67.1986 103.888 67.2042 103.935 67.2006 103.981C67.1971 104.027 67.1845 104.072 67.1636 104.113C67.1426 104.154 67.1138 104.191 67.0786 104.221C67.0435 104.251 67.0028 104.274 66.9588 104.289C66.9148 104.303 66.8684 104.309 66.8222 104.305H66.8234ZM65.9829 108.995L43.3935 107.275C43.3003 107.268 43.2138 107.224 43.1529 107.153C43.092 107.082 43.0619 106.99 43.069 106.897C43.0762 106.803 43.12 106.717 43.191 106.656C43.262 106.595 43.3542 106.565 43.4474 106.572L66.0368 108.292C66.0829 108.296 66.1279 108.308 66.1692 108.329C66.2106 108.35 66.2474 108.379 66.2775 108.414C66.3077 108.449 66.3307 108.49 66.3452 108.534C66.3596 108.577 66.3653 108.624 66.3618 108.67C66.3584 108.716 66.3458 108.761 66.325 108.803C66.3041 108.844 66.2753 108.881 66.2402 108.911C66.2052 108.941 66.1645 108.964 66.1205 108.978C66.0765 108.993 66.0302 108.999 65.984 108.995H65.9829ZM65.0449 113.677L42.4555 111.957C42.3623 111.95 42.2758 111.906 42.2149 111.835C42.1541 111.764 42.1239 111.672 42.131 111.579C42.1382 111.485 42.1821 111.399 42.253 111.338C42.324 111.277 42.4162 111.247 42.5094 111.254L65.0988 112.974C65.1449 112.978 65.19 112.99 65.2313 113.011C65.2726 113.032 65.3094 113.061 65.3396 113.096C65.3698 113.131 65.3927 113.171 65.4072 113.215C65.4217 113.259 65.4273 113.306 65.4239 113.352C65.4204 113.398 65.4079 113.443 65.387 113.484C65.3662 113.526 65.3374 113.562 65.3023 113.593C65.2672 113.623 65.2265 113.646 65.1825 113.66C65.1386 113.675 65.0922 113.68 65.046 113.677H65.0449ZM63.0428 118.279L40.4535 116.559C40.3603 116.551 40.2737 116.507 40.2128 116.437C40.152 116.366 40.1218 116.273 40.129 116.18C40.1361 116.087 40.18 116 40.251 115.94C40.3219 115.879 40.4142 115.848 40.5074 115.856L63.0967 117.576C63.1429 117.579 63.1879 117.592 63.2292 117.612C63.2705 117.633 63.3073 117.662 63.3375 117.697C63.3677 117.732 63.3907 117.773 63.4051 117.817C63.4196 117.861 63.4252 117.907 63.4218 117.953C63.4183 118 63.4058 118.045 63.3849 118.086C63.3641 118.127 63.3353 118.164 63.3002 118.194C63.2651 118.224 63.2244 118.247 63.1805 118.262C63.1365 118.276 63.0901 118.282 63.0439 118.279H63.0428Z" fill="#003366"/>
<path d="M49.352 49.6392L40.9951 49.004L41.2772 48.3378C42.206 46.1465 44.3881 40.0382 43.3504 38.1129C43.2002 37.8355 43.0178 37.5259 42.8252 37.1956C41.8356 35.5157 40.6053 33.4254 41.5306 31.9347C42.2312 30.8064 44.0063 30.3477 46.9578 30.5323H46.9727C49.9173 30.7961 51.6029 31.5185 52.1258 32.7397C52.8138 34.3519 51.283 36.2336 50.0526 37.7449C49.8118 38.0396 49.5848 38.3182 49.3945 38.5705C48.0781 40.3168 49.313 46.6843 49.9001 48.9902L50.079 49.692L49.352 49.6392ZM42.5156 48.0752L48.7156 48.5465C48.5276 47.7163 48.2191 46.2451 48.0035 44.6306C47.5552 41.2743 47.7398 39.0257 48.5539 37.9478C48.7558 37.6795 48.9885 37.394 49.2351 37.0913C50.235 35.8655 51.6029 34.1845 51.1592 33.1479C50.9172 32.5826 49.9804 31.851 46.8867 31.5735C43.7907 31.3809 42.7484 31.9622 42.425 32.484C41.8287 33.4426 42.9284 35.3105 43.7311 36.6739C43.9294 37.0099 44.1163 37.3275 44.2757 37.6233C44.9167 38.8113 44.7608 41.0633 43.8113 44.313C43.3538 45.8759 42.8275 47.284 42.5156 48.0752Z" fill="#2584D8"/>
<path d="M55.0695 39.4455L52.681 47.7944L37.1517 46.6156L37.1047 46.2476L36.0509 38.0019C35.9248 37.0123 36.7447 36.1913 37.7916 36.2704L53.6052 37.471C53.9251 37.4876 54.2328 37.5987 54.4895 37.7901C54.7463 37.9815 54.9405 38.2448 55.0478 38.5466C55.1458 38.8371 55.1534 39.1506 55.0695 39.4455Z" fill="#285699"/>
<path d="M54.6957 49.4777C54.6738 49.6877 54.6042 49.8899 54.4921 50.0688C54.38 50.2476 54.2284 50.3985 54.049 50.5097C53.635 50.7772 53.1433 50.8983 52.6524 50.8537L36.7263 49.6509C35.6622 49.5695 34.8515 48.823 34.9146 47.9825C34.925 47.8464 34.9583 47.713 35.0132 47.588C35.1298 47.3266 35.3198 47.1047 35.5602 46.9493C35.974 46.6814 36.4659 46.5603 36.9568 46.6053L52.8794 47.8139C53.3445 47.8429 53.7888 48.017 54.1499 48.3116C54.3273 48.4483 54.4694 48.6256 54.5643 48.8284C54.6592 49.0313 54.7043 49.2539 54.6957 49.4777ZM55.0695 39.4455L52.681 47.7944L37.1517 46.6156L37.1047 46.2476L36.0509 38.0019C35.9248 37.0123 36.7447 36.1913 37.7916 36.2704L53.6052 37.471C53.9251 37.4876 54.2328 37.5987 54.4895 37.7901C54.7463 37.9815 54.9405 38.2448 55.0478 38.5466C55.1458 38.8371 55.1534 39.1506 55.0695 39.4455Z" fill="#2584D8"/>
<path d="M55.0526 38.5465C53.9646 40.9051 52.215 42.8968 50.0165 44.2799C47.2656 46.0056 44.0304 46.7952 40.7938 46.5308L37.1096 46.251L36.0558 38.0053C35.9297 37.0157 36.7495 36.1947 37.7964 36.2738L53.6101 37.4744C53.9295 37.4908 54.237 37.6013 54.4937 37.7921C54.7504 37.9829 54.9449 38.2454 55.0526 38.5465Z" fill="#4B98E6"/>
<path d="M48.1016 48.6705L39.7803 48.0386L40.0624 47.3598C40.99 45.1307 43.1744 38.9158 42.1424 36.9595C41.9933 36.6775 41.8122 36.3633 41.6207 36.0296C40.6391 34.3234 39.4156 32.1997 40.3398 30.6827C41.0405 29.536 42.8098 29.0647 45.7487 29.2471H45.7624C48.6956 29.5097 50.3732 30.2412 50.8915 31.4831C51.5795 33.1217 50.0475 35.0377 48.8183 36.5754C48.5786 36.8758 48.3528 37.1591 48.1624 37.4159C46.8483 39.1933 48.0684 45.6662 48.6497 48.0111L48.8263 48.7244L48.1016 48.6705ZM41.2962 47.0915L47.4721 47.5593C47.2864 46.7165 46.9813 45.2213 46.7692 43.5793C46.3277 40.1679 46.5158 37.8815 47.3276 36.783C47.5294 36.5101 47.7622 36.2199 48.0076 35.9115C49.0052 34.6628 50.3709 32.9519 49.9306 31.8982C49.6909 31.3248 48.7587 30.5806 45.6776 30.3043C42.5896 30.1128 41.5565 30.7056 41.232 31.2377C40.638 32.2135 41.7296 34.1101 42.5277 35.4953C42.7238 35.8393 42.9095 36.1592 43.0678 36.4596C43.7042 37.6682 43.5448 39.9569 42.5942 43.2628C42.1344 44.8532 41.6081 46.2865 41.2962 47.0915Z" fill="#62AFEF"/>
<path d="M54.1504 48.3067C54.0327 48.5684 53.842 48.7906 53.6011 48.9466C53.1875 49.214 52.6962 49.3351 52.2056 49.2906L36.2842 48.0797C35.8196 48.052 35.3753 47.8796 35.0137 47.5866C35.1303 47.3252 35.3203 47.1033 35.5606 46.9479C35.9745 46.68 36.4663 46.5589 36.9573 46.6039L52.8799 47.8125C53.3446 47.8405 53.7889 48.0134 54.1504 48.3067Z" fill="#4B98E6"/>
</svg>
