<svg width="130" height="40" viewBox="0 0 130 40" fill="none" xmlns="http://www.w3.org/2000/svg">
<rect x="0.5" y="0.5" width="129" height="39" rx="3.5" fill="white"/>
<rect x="0.5" y="0.5" width="129" height="39" rx="3.5" stroke="#D9D9D9"/>
<path d="M16.588 17.608C16.588 15.872 17.988 14.696 20.074 14.696C22.006 14.696 23.252 15.774 23.364 17.524H21.978C21.908 16.516 21.194 15.928 20.06 15.928C18.786 15.928 17.96 16.572 17.96 17.566C17.96 18.378 18.422 18.868 19.374 19.092L21.04 19.484C22.692 19.862 23.532 20.758 23.532 22.186C23.532 24.006 22.118 25.168 19.962 25.168C17.904 25.168 16.532 24.09 16.448 22.354H17.848C17.876 23.32 18.688 23.936 19.962 23.936C21.306 23.936 22.16 23.306 22.16 22.298C22.16 21.5 21.726 20.996 20.76 20.772L19.094 20.394C17.442 20.016 16.588 19.064 16.588 17.608ZM27.9861 25.168C25.9701 25.168 24.5841 23.712 24.5841 21.584C24.5841 19.442 25.9421 17.958 27.9301 17.958C29.8761 17.958 31.1501 19.302 31.1501 21.332V21.822L25.8581 21.836C25.9561 23.278 26.7121 24.076 28.0141 24.076C29.0361 24.076 29.7081 23.656 29.9321 22.872H31.1641C30.8281 24.342 29.6801 25.168 27.9861 25.168ZM27.9301 19.064C26.7821 19.064 26.0541 19.75 25.8861 20.954H29.8341C29.8341 19.82 29.0921 19.064 27.9301 19.064ZM33.936 25H32.62V18.154H33.81L33.95 19.204C34.384 18.42 35.252 17.958 36.218 17.958C38.024 17.958 38.85 19.064 38.85 20.814V25H37.534V21.108C37.534 19.722 36.89 19.162 35.882 19.162C34.65 19.162 33.936 20.044 33.936 21.374V25ZM43.4167 25.168C41.4287 25.168 40.2247 23.684 40.2247 21.598C40.2247 19.498 41.4427 17.958 43.4727 17.958C44.5227 17.958 45.4047 18.42 45.8667 19.26V14.696H47.1687V25H45.9927L45.8807 23.754C45.4327 24.692 44.5087 25.168 43.4167 25.168ZM43.6827 23.978C45.0267 23.978 45.8527 22.984 45.8527 21.556C45.8527 20.156 45.0267 19.148 43.6827 19.148C42.3387 19.148 41.5547 20.156 41.5547 21.556C41.5547 22.97 42.3387 23.978 43.6827 23.978ZM58.4674 20.702H54.4914V25H53.1194V14.878H59.2234V16.138H54.4914V19.456H58.4674V20.702ZM63.0818 25.168C61.0658 25.168 59.6798 23.712 59.6798 21.584C59.6798 19.442 61.0378 17.958 63.0258 17.958C64.9718 17.958 66.2458 19.302 66.2458 21.332V21.822L60.9538 21.836C61.0518 23.278 61.8078 24.076 63.1098 24.076C64.1318 24.076 64.8038 23.656 65.0278 22.872H66.2598C65.9238 24.342 64.7758 25.168 63.0818 25.168ZM63.0258 19.064C61.8778 19.064 61.1498 19.75 60.9818 20.954H64.9298C64.9298 19.82 64.1878 19.064 63.0258 19.064ZM70.6697 25.168C68.6537 25.168 67.2677 23.712 67.2677 21.584C67.2677 19.442 68.6257 17.958 70.6137 17.958C72.5597 17.958 73.8337 19.302 73.8337 21.332V21.822L68.5417 21.836C68.6397 23.278 69.3957 24.076 70.6977 24.076C71.7197 24.076 72.3917 23.656 72.6157 22.872H73.8477C73.5117 24.342 72.3637 25.168 70.6697 25.168ZM70.6137 19.064C69.4657 19.064 68.7377 19.75 68.5697 20.954H72.5177C72.5177 19.82 71.7757 19.064 70.6137 19.064ZM78.0476 25.168C76.0596 25.168 74.8556 23.684 74.8556 21.598C74.8556 19.498 76.0736 17.958 78.1036 17.958C79.1536 17.958 80.0356 18.42 80.4976 19.26V14.696H81.7996V25H80.6236L80.5116 23.754C80.0636 24.692 79.1396 25.168 78.0476 25.168ZM78.3136 23.978C79.6576 23.978 80.4836 22.984 80.4836 21.556C80.4836 20.156 79.6576 19.148 78.3136 19.148C76.9696 19.148 76.1856 20.156 76.1856 21.556C76.1856 22.97 76.9696 23.978 78.3136 23.978ZM84.8881 25H83.6981V14.696H85.0141V19.33C85.4621 18.434 86.3861 17.958 87.5061 17.958C89.4661 17.958 90.6421 19.498 90.6421 21.612C90.6421 23.684 89.4101 25.168 87.4221 25.168C86.3441 25.168 85.4341 24.692 84.9861 23.754L84.8881 25ZM85.0281 21.556C85.0281 22.984 85.8401 23.978 87.1841 23.978C88.5281 23.978 89.3261 22.97 89.3261 21.556C89.3261 20.156 88.5281 19.148 87.1841 19.148C85.8401 19.148 85.0281 20.156 85.0281 21.556ZM94.0946 25.168C92.6246 25.168 91.7566 24.342 91.7566 23.096C91.7566 21.836 92.6946 21.052 94.3046 20.926L96.4606 20.758V20.562C96.4606 19.414 95.7746 19.008 94.8506 19.008C93.7446 19.008 93.1146 19.498 93.1146 20.324H91.9666C91.9666 18.896 93.1426 17.958 94.9066 17.958C96.6006 17.958 97.7486 18.854 97.7486 20.702V25H96.6286L96.4886 23.894C96.1386 24.678 95.2006 25.168 94.0946 25.168ZM94.4726 24.146C95.7186 24.146 96.4746 23.334 96.4746 22.046V21.682L94.7246 21.822C93.5626 21.934 93.0866 22.382 93.0866 23.054C93.0866 23.782 93.6186 24.146 94.4726 24.146ZM99.1231 21.584C99.1231 19.442 100.481 17.958 102.483 17.958C104.205 17.958 105.409 18.938 105.647 20.464H104.331C104.107 19.596 103.407 19.134 102.525 19.134C101.279 19.134 100.425 20.086 100.425 21.57C100.425 23.04 101.223 23.992 102.469 23.992C103.407 23.992 104.107 23.502 104.345 22.69H105.661C105.395 24.174 104.121 25.168 102.469 25.168C100.453 25.168 99.1231 23.74 99.1231 21.584ZM108.394 25H107.078V14.696H108.394V21.374L111.432 18.154H113.084L110.466 20.884L113.07 25H111.558L109.556 21.836L108.394 23.054V25Z" fill="#1E1E1E"/>
</svg>
