<svg width="146" height="40" viewBox="0 0 146 40" fill="none" xmlns="http://www.w3.org/2000/svg">
<path d="M15.088 17.608C15.088 15.872 16.488 14.696 18.574 14.696C20.506 14.696 21.752 15.774 21.864 17.524H20.478C20.408 16.516 19.694 15.928 18.56 15.928C17.286 15.928 16.46 16.572 16.46 17.566C16.46 18.378 16.922 18.868 17.874 19.092L19.54 19.484C21.192 19.862 22.032 20.758 22.032 22.186C22.032 24.006 20.618 25.168 18.462 25.168C16.404 25.168 15.032 24.09 14.948 22.354H16.348C16.376 23.32 17.188 23.936 18.462 23.936C19.806 23.936 20.66 23.306 20.66 22.298C20.66 21.5 20.226 20.996 19.26 20.772L17.594 20.394C15.942 20.016 15.088 19.064 15.088 17.608ZM24.1761 16.53C23.7001 16.53 23.3081 16.138 23.3081 15.662C23.3081 15.172 23.7001 14.794 24.1761 14.794C24.6521 14.794 25.0441 15.172 25.0441 15.662C25.0441 16.138 24.6521 16.53 24.1761 16.53ZM23.5321 25V18.154H24.8481V25H23.5321ZM26.3246 21.402C26.3246 19.47 27.5706 17.958 29.5586 17.958C30.6646 17.958 31.5186 18.462 31.9526 19.316L32.0506 18.154H33.2266V24.72C33.2266 26.876 31.8966 28.248 29.7966 28.248C27.9346 28.248 26.6606 27.198 26.4086 25.462H27.7246C27.8926 26.47 28.6486 27.058 29.7966 27.058C31.0846 27.058 31.9246 26.218 31.9246 24.916V23.544C31.4766 24.342 30.5806 24.818 29.5026 24.818C27.5566 24.818 26.3246 23.32 26.3246 21.402ZM27.6406 21.374C27.6406 22.662 28.4386 23.67 29.7266 23.67C31.0566 23.67 31.8686 22.718 31.8686 21.374C31.8686 20.058 31.0846 19.106 29.7406 19.106C28.4246 19.106 27.6406 20.114 27.6406 21.374ZM36.4418 25H35.1258V18.154H36.3158L36.4558 19.204C36.8898 18.42 37.7578 17.958 38.7238 17.958C40.5298 17.958 41.3558 19.064 41.3558 20.814V25H40.0398V21.108C40.0398 19.722 39.3958 19.162 38.3878 19.162C37.1558 19.162 36.4418 20.044 36.4418 21.374V25ZM48.9387 25H47.6227V19.26H46.2787V18.154H47.6227V16.012H48.9387V18.154H50.2827V19.26H48.9387V25ZM52.1077 16.53C51.6317 16.53 51.2397 16.138 51.2397 15.662C51.2397 15.172 51.6317 14.794 52.1077 14.794C52.5837 14.794 52.9757 15.172 52.9757 15.662C52.9757 16.138 52.5837 16.53 52.1077 16.53ZM51.4637 25V18.154H52.7797V25H51.4637ZM56.0063 25H54.6903V18.154H55.8663L55.9923 19.05C56.3423 18.406 57.0703 17.958 58.0363 17.958C59.1003 17.958 59.8563 18.49 60.2063 19.344C60.5283 18.49 61.3543 17.958 62.4183 17.958C63.9863 17.958 64.9383 18.938 64.9383 20.52V25H63.6503V20.842C63.6503 19.764 63.0483 19.148 62.1243 19.148C61.1303 19.148 60.4723 19.848 60.4723 20.94V25H59.1703V20.828C59.1703 19.75 58.5823 19.162 57.6583 19.162C56.6643 19.162 56.0063 19.848 56.0063 20.94V25ZM69.7165 25.168C67.7005 25.168 66.3145 23.712 66.3145 21.584C66.3145 19.442 67.6725 17.958 69.6605 17.958C71.6065 17.958 72.8805 19.302 72.8805 21.332V21.822L67.5885 21.836C67.6865 23.278 68.4425 24.076 69.7445 24.076C70.7665 24.076 71.4385 23.656 71.6625 22.872H72.8945C72.5585 24.342 71.4105 25.168 69.7165 25.168ZM69.6605 19.064C68.5125 19.064 67.7845 19.75 67.6165 20.954H71.5645C71.5645 19.82 70.8225 19.064 69.6605 19.064ZM73.7904 23.012H75.0504C75.0504 23.712 75.5824 24.132 76.4504 24.132C77.3744 24.132 77.9064 23.754 77.9064 23.124C77.9064 22.662 77.6824 22.382 76.9684 22.2L75.7644 21.92C74.5464 21.626 73.9724 21.024 73.9724 20.016C73.9724 18.756 75.0364 17.958 76.5484 17.958C78.0464 17.958 79.0264 18.798 79.0544 20.1H77.7944C77.7664 19.414 77.3044 18.98 76.5064 18.98C75.6804 18.98 75.2184 19.344 75.2184 19.974C75.2184 20.436 75.5544 20.744 76.2264 20.912L77.4304 21.206C78.5924 21.486 79.1664 22.018 79.1664 23.04C79.1664 24.342 78.0464 25.168 76.4224 25.168C74.8124 25.168 73.7904 24.314 73.7904 23.012ZM81.9418 24.986H80.6258V14.696H81.9418V19.204C82.3758 18.462 83.2018 17.958 84.2658 17.958C86.0158 17.958 86.8558 19.064 86.8558 20.814V25H85.5398V21.108C85.5398 19.722 84.8818 19.162 83.9018 19.162C82.6278 19.162 81.9418 20.086 81.9418 21.262V24.986ZM91.6326 25.168C89.6166 25.168 88.2306 23.712 88.2306 21.584C88.2306 19.442 89.5886 17.958 91.5766 17.958C93.5226 17.958 94.7966 19.302 94.7966 21.332V21.822L89.5046 21.836C89.6026 23.278 90.3586 24.076 91.6606 24.076C92.6826 24.076 93.3546 23.656 93.5786 22.872H94.8106C94.4746 24.342 93.3266 25.168 91.6326 25.168ZM91.5766 19.064C90.4286 19.064 89.7006 19.75 89.5326 20.954H93.4806C93.4806 19.82 92.7386 19.064 91.5766 19.064ZM99.2205 25.168C97.2045 25.168 95.8185 23.712 95.8185 21.584C95.8185 19.442 97.1765 17.958 99.1645 17.958C101.11 17.958 102.384 19.302 102.384 21.332V21.822L97.0925 21.836C97.1905 23.278 97.9465 24.076 99.2485 24.076C100.27 24.076 100.942 23.656 101.166 22.872H102.398C102.062 24.342 100.914 25.168 99.2205 25.168ZM99.1645 19.064C98.0165 19.064 97.2885 19.75 97.1205 20.954H101.068C101.068 19.82 100.326 19.064 99.1645 19.064ZM105.718 25H104.402V19.26H103.058V18.154H104.402V16.012H105.718V18.154H107.062V19.26H105.718V25Z" fill="#096D49"/>
<path d="M125.12 24.5467C124.994 24.5467 124.867 24.5001 124.767 24.4001C124.574 24.2067 124.574 23.8867 124.767 23.6934L128.46 20.0001L124.767 16.3067C124.574 16.1134 124.574 15.7934 124.767 15.6001C124.96 15.4067 125.28 15.4067 125.474 15.6001L129.52 19.6467C129.714 19.8401 129.714 20.1601 129.52 20.3534L125.474 24.4001C125.374 24.5001 125.247 24.5467 125.12 24.5467Z" fill="#096D49"/>
<path d="M129.053 20.5H117.833C117.56 20.5 117.333 20.2733 117.333 20C117.333 19.7267 117.56 19.5 117.833 19.5H129.053C129.326 19.5 129.553 19.7267 129.553 20C129.553 20.2733 129.326 20.5 129.053 20.5Z" fill="#096D49"/>
</svg>
