<svg width="172" height="173" viewBox="0 0 172 173" fill="none" xmlns="http://www.w3.org/2000/svg">
<path d="M74.664 139.994C74.664 139.994 37.0884 120.882 48.0193 91.96C58.9502 63.0384 104.952 46.1863 131.824 48.4631C158.697 50.7399 161.771 79.3663 156.737 91.96C151.702 104.554 134.237 139.994 134.237 139.994H74.664Z" fill="#EEF1F8"/>
<path d="M86.1024 75.9155H128.662C129.343 75.9155 129.997 76.1861 130.478 76.6678C130.96 77.1494 131.231 77.8026 131.231 78.4838V116.274C131.231 116.955 130.96 117.608 130.478 118.09C129.997 118.572 129.343 118.842 128.662 118.842H86.1024C85.4213 118.842 84.768 118.572 84.2864 118.09C83.8048 117.608 83.5342 116.955 83.5342 116.274V78.4838C83.5342 77.8026 83.8048 77.1494 84.2864 76.6678C84.7681 76.1861 85.4213 75.9155 86.1024 75.9155Z" fill="#096D49"/>
<path d="M123.526 89.4907H91.2393V93.8935H123.526V89.4907Z" fill="white"/>
<path d="M101.298 92.2108C101.584 91.9242 101.584 91.4596 101.298 91.173C101.011 90.8864 100.547 90.8864 100.26 91.173C99.9735 91.4596 99.9735 91.9242 100.26 92.2108C100.547 92.4973 101.011 92.4973 101.298 92.2108Z" fill="#1E1E1E"/>
<path d="M104.428 91.8608C104.521 91.4664 104.277 91.0711 103.882 90.978C103.488 90.8849 103.093 91.1292 103 91.5236C102.907 91.918 103.151 92.3133 103.545 92.4064C103.94 92.4995 104.335 92.2552 104.428 91.8608Z" fill="#1E1E1E"/>
<path d="M106.649 92.4256C107.054 92.4256 107.383 92.0971 107.383 91.6918C107.383 91.2865 107.054 90.958 106.649 90.958C106.244 90.958 105.915 91.2865 105.915 91.6918C105.915 92.0971 106.244 92.4256 106.649 92.4256Z" fill="#1E1E1E"/>
<path d="M110.104 92.2108C110.39 91.9242 110.39 91.4596 110.104 91.173C109.817 90.8864 109.352 90.8864 109.066 91.173C108.779 91.4596 108.779 91.9242 109.066 92.2108C109.352 92.4973 109.817 92.4973 110.104 92.2108Z" fill="#1E1E1E"/>
<path d="M113.234 91.8608C113.327 91.4664 113.083 91.0711 112.688 90.978C112.294 90.8849 111.898 91.1292 111.805 91.5236C111.712 91.918 111.956 92.3133 112.351 92.4064C112.745 92.4995 113.141 92.2552 113.234 91.8608Z" fill="#1E1E1E"/>
<path d="M115.455 92.4256C115.86 92.4256 116.188 92.0971 116.188 91.6918C116.188 91.2865 115.86 90.958 115.455 90.958C115.049 90.958 114.721 91.2865 114.721 91.6918C114.721 92.0971 115.049 92.4256 115.455 92.4256Z" fill="#1E1E1E"/>
<path d="M123.526 97.9292H91.2393V102.332H123.526V97.9292Z" fill="white"/>
<path d="M101.298 100.649C101.584 100.363 101.584 99.8981 101.298 99.6115C101.011 99.3249 100.547 99.3249 100.26 99.6115C99.9735 99.8981 99.9735 100.363 100.26 100.649C100.547 100.936 101.011 100.936 101.298 100.649Z" fill="#1E1E1E"/>
<path d="M104.428 100.299C104.521 99.9048 104.277 99.5096 103.882 99.4165C103.488 99.3234 103.093 99.5677 103 99.9621C102.907 100.357 103.151 100.752 103.545 100.845C103.94 100.938 104.335 100.694 104.428 100.299Z" fill="#1E1E1E"/>
<path d="M106.649 100.864C107.054 100.864 107.383 100.536 107.383 100.13C107.383 99.725 107.054 99.3965 106.649 99.3965C106.244 99.3965 105.915 99.725 105.915 100.13C105.915 100.536 106.244 100.864 106.649 100.864Z" fill="#1E1E1E"/>
<path d="M110.104 100.649C110.39 100.363 110.39 99.8981 110.104 99.6115C109.817 99.3249 109.352 99.3249 109.066 99.6115C108.779 99.8981 108.779 100.363 109.066 100.649C109.352 100.936 109.817 100.936 110.104 100.649Z" fill="#1E1E1E"/>
<path d="M113.234 100.299C113.327 99.9048 113.083 99.5096 112.688 99.4165C112.294 99.3234 111.898 99.5677 111.805 99.9621C111.712 100.357 111.956 100.752 112.351 100.845C112.745 100.938 113.141 100.694 113.234 100.299Z" fill="#1E1E1E"/>
<path d="M115.455 100.864C115.86 100.864 116.188 100.536 116.188 100.13C116.188 99.725 115.86 99.3965 115.455 99.3965C115.049 99.3965 114.721 99.725 114.721 100.13C114.721 100.536 115.049 100.864 115.455 100.864Z" fill="#1E1E1E"/>
<path d="M91.973 106.735H122.792C122.987 106.735 123.173 106.812 123.311 106.95C123.449 107.087 123.526 107.274 123.526 107.469V110.404C123.526 110.598 123.449 110.785 123.311 110.923C123.173 111.06 122.987 111.138 122.792 111.138H91.9731C91.7784 111.138 91.5918 111.06 91.4542 110.923C91.3166 110.785 91.2393 110.598 91.2393 110.404V107.469C91.2393 107.274 91.3166 107.087 91.4542 106.95C91.5918 106.812 91.7784 106.735 91.973 106.735Z" fill="#6E6D6D"/>
<path d="M112.83 70.3667C111.753 69.2891 110.38 68.5552 108.885 68.2579C107.391 67.9606 105.841 68.1132 104.433 68.6964C103.025 69.2796 101.822 70.2672 100.975 71.5343C100.129 72.8014 99.6768 74.2911 99.6768 75.8151C99.6768 77.339 100.129 78.8287 100.975 80.0958C101.822 81.3629 103.025 82.3505 104.433 82.9337C105.841 83.5169 107.391 83.6695 108.885 83.3722C110.38 83.0749 111.753 82.341 112.83 81.2634C113.546 80.548 114.113 79.6985 114.501 78.7637C114.888 77.8289 115.087 76.8269 115.087 75.8151C115.087 74.8032 114.888 73.8012 114.501 72.8664C114.113 71.9316 113.546 71.0822 112.83 70.3667ZM110.779 78.5726C110.863 78.6573 110.911 78.7721 110.911 78.8918C110.911 79.0116 110.863 79.1264 110.779 79.211C110.694 79.2957 110.579 79.3432 110.459 79.3432C110.34 79.3432 110.225 79.2957 110.14 79.211L107.382 76.4531L104.624 79.211C104.54 79.2956 104.425 79.3431 104.305 79.343C104.186 79.343 104.071 79.2954 103.986 79.2108C103.902 79.1262 103.854 79.0114 103.854 78.8918C103.854 78.7721 103.901 78.6573 103.986 78.5726L106.744 75.8147L103.986 73.0567C103.901 72.9721 103.854 72.8573 103.854 72.7376C103.854 72.6179 103.902 72.5032 103.986 72.4186C104.071 72.334 104.186 72.2864 104.305 72.2864C104.425 72.2863 104.54 72.3338 104.624 72.4183L107.382 75.1763L110.14 72.4183C110.225 72.3337 110.34 72.2861 110.459 72.2861C110.579 72.2861 110.694 72.3337 110.779 72.4183C110.863 72.503 110.911 72.6178 110.911 72.7375C110.911 72.8573 110.863 72.9721 110.779 73.0567L108.021 75.8147L110.779 78.5726Z" fill="#FF7171"/>
<path d="M66.7573 97.5986C66.7573 97.5986 66.0099 107.434 66.2435 110.65C66.4771 113.866 67.4713 113.866 67.4713 113.34C67.4713 112.814 67.1209 110.767 67.7053 111.293C68.2897 111.82 68.2317 110.065 67.7053 109.247C67.179 108.428 68.0564 99.1316 69.1088 97.8451L66.7573 97.5986Z" fill="#FFD0A6"/>
<path d="M72.5279 136.453H70.6934V138.288H72.5279V136.453Z" fill="#FFD0A6"/>
<path d="M70.6328 137.673V140.012H75.2656C76.7955 140.012 73.5561 138.888 72.7468 137.673H70.6328Z" fill="#663E36"/>
<path d="M79.8657 136.453H78.0312V138.288H79.8657V136.453Z" fill="#FFD0A6"/>
<path d="M77.9707 137.673V140.012H82.6035C84.1334 140.012 80.894 138.888 80.0847 137.673H77.9707Z" fill="#663E36"/>
<path d="M69.4125 106.522C69.4125 106.522 68.3255 111.759 70.3018 119.565C68.5233 128.36 70.3018 136.759 70.3018 136.759H72.8701C72.8701 136.759 74.5502 121.146 74.0561 115.415C74.0561 115.415 75.538 119.961 76.6243 120.652C75.6361 123.913 77.9085 136.759 77.9085 136.759H79.9837C79.9837 136.759 81.3674 121.047 79.9837 116.403C79.0578 113.152 78.3123 109.854 77.7508 106.521L69.4125 106.522Z" fill="#663E36"/>
<path d="M82.911 91.1316L84.548 90.4826C84.548 90.4826 80.338 85.1035 77.8239 84.2263C75.3097 83.3492 76.4792 82.4723 77.4147 82.7647C78.3502 83.057 77.0052 81.5366 77.0052 81.5366C77.0052 81.5366 86.3019 88.202 87.0622 90.4826C87.8225 92.7631 82.911 93.242 82.911 93.242V91.1316Z" fill="#FFD0A6"/>
<path d="M67.3472 94.3792L66.5869 98.0279L68.7912 98.7117L69.6274 98.0279C69.6274 98.0279 70.4633 104.564 69.1713 106.921H77.8367C77.8367 106.921 76.5447 97.6473 78.597 94.911C79.5655 93.5384 83.3448 93.3254 83.3448 93.3254V90.9304C83.3448 90.9304 77.8091 90.2648 75.7331 91.09C73.6572 91.9152 67.3472 94.3792 67.3472 94.3792Z" fill="#AF5CF6"/>
<path d="M77.3307 84.2803C77.3307 84.2803 78.8148 86.5289 77.6904 88.3283C76.5661 90.1277 75.4414 89.0929 75.4414 89.0929L77.3307 84.2803Z" fill="#F7D8B8"/>
<path d="M76.0076 80.8904C76.0076 80.8904 72.5587 79.6041 71.5637 83.4631C70.5687 87.3221 67.0033 88.3748 65.3075 91.0058C63.6117 93.6367 68.348 97.4958 71.2144 95.4495C71.4483 97.1454 78.2896 97.379 77.237 92.4678C76.1843 87.5566 78.1141 85.3929 78.1141 83.4635C78.1141 81.534 76.0076 80.8904 76.0076 80.8904Z" fill="#112129"/>
<path d="M98.3816 62.1605C98.2676 62.1168 98.142 62.1139 98.0262 62.1524C97.9104 62.1909 97.8115 62.2684 97.7464 62.3717C97.6813 62.4749 97.654 62.5975 97.6691 62.7186C97.6843 62.8398 97.741 62.9519 97.8295 63.0359C97.9181 63.1199 98.033 63.1706 98.1548 63.1793C98.2765 63.1881 98.3975 63.1543 98.4972 63.0839C98.5969 63.0134 98.669 62.9106 98.7014 62.7929C98.7337 62.6752 98.7242 62.5499 98.6746 62.4384C98.6464 62.3751 98.606 62.318 98.5557 62.2703C98.5054 62.2226 98.4463 62.1853 98.3816 62.1605Z" fill="#096D49"/>
<path d="M100.55 61.6039C100.19 60.7962 99.549 60.1464 98.7463 59.7752C97.9436 59.4041 97.0336 59.3368 96.185 59.5858C95.3365 59.8348 94.6071 60.3832 94.1323 61.1293C93.6575 61.8753 93.4696 62.7683 93.6033 63.6425L85.751 67.1383L86.5346 68.8983L87.4542 68.4888L87.8986 69.4871L89.5439 68.7546L89.0994 67.7563L90.3319 67.2076L90.7763 68.2059L92.4216 67.4733L91.9769 66.4758L94.3869 65.4025C94.7919 65.8973 95.3198 66.2771 95.9177 66.5039C96.5156 66.7307 97.1626 66.7966 97.7939 66.6948C98.4252 66.5931 99.0188 66.3275 99.5152 65.9244C100.012 65.5213 100.394 64.9949 100.623 64.3979C100.796 63.9505 100.879 63.4732 100.866 62.9936C100.853 62.514 100.746 62.0417 100.55 61.6039ZM98.7172 63.8304C98.4059 63.9676 98.053 63.9757 97.7358 63.8529C97.4185 63.7301 97.163 63.4865 97.0252 63.1755C96.8875 62.8645 96.8788 62.5116 97.001 62.1942C97.1232 61.8767 97.3664 61.6208 97.6771 61.4825C97.9879 61.3442 98.3408 61.3348 98.6584 61.4565C98.9761 61.5781 99.2325 61.8209 99.3713 62.1314C99.5102 62.4419 99.5201 62.7948 99.399 63.1127C99.2779 63.4305 99.0356 63.6873 98.7254 63.8267C98.7226 63.8279 98.7199 63.8291 98.7172 63.8304Z" fill="#096D49"/>
<path d="M125.115 69.6177C125.069 69.561 125.005 69.522 124.934 69.5074C124.862 69.4927 124.788 69.5033 124.723 69.5374C124.659 69.5714 124.608 69.6267 124.579 69.694C124.551 69.7613 124.547 69.8363 124.568 69.9062C124.588 69.9762 124.633 70.0368 124.693 70.0777C124.754 70.1187 124.826 70.1374 124.899 70.1307C124.972 70.124 125.04 70.0923 125.092 70.0411C125.144 69.9898 125.176 69.9221 125.184 69.8495C125.188 69.8083 125.184 69.7666 125.173 69.7268C125.161 69.687 125.141 69.6499 125.115 69.6177Z" fill="#096D49"/>
<path d="M126.405 69.9785C126.461 69.4522 126.323 68.9238 126.018 68.4913C125.714 68.0588 125.262 67.7516 124.748 67.6267C124.234 67.5018 123.692 67.5677 123.222 67.8121C122.753 68.0566 122.389 68.463 122.196 68.9559L117.082 68.4184L116.962 69.5645L117.561 69.6275L117.493 70.2777L118.564 70.3905L118.633 69.7404L119.435 69.8247L119.367 70.4749L120.438 70.5875L120.506 69.9373L122.076 70.1023C122.138 70.4798 122.298 70.8344 122.54 71.1307C122.782 71.427 123.097 71.6546 123.455 71.7907C123.812 71.9269 124.199 71.9668 124.577 71.9065C124.955 71.8463 125.31 71.6879 125.607 71.4472C125.831 71.2673 126.016 71.0449 126.153 70.7928C126.29 70.5407 126.376 70.2639 126.405 69.9785ZM124.791 70.5822C124.588 70.5601 124.403 70.4587 124.276 70.3003C124.148 70.1418 124.089 69.9392 124.111 69.737C124.132 69.5347 124.234 69.3494 124.392 69.2217C124.55 69.0939 124.753 69.0342 124.955 69.0556C125.157 69.077 125.343 69.1778 125.471 69.3359C125.599 69.4939 125.659 69.6963 125.638 69.8986C125.616 70.1009 125.516 70.2866 125.358 70.4148C125.2 70.5431 124.998 70.6035 124.796 70.5827L124.791 70.5822Z" fill="#096D49"/>
<path d="M71.6651 79.4029C72.881 78.8993 73.4585 77.5053 72.9548 76.2894C72.4512 75.0734 71.0572 74.496 69.8413 74.9997C68.6253 75.5033 68.0479 76.8973 68.5516 78.1132C69.0552 79.3291 70.4492 79.9065 71.6651 79.4029Z" fill="#096D49"/>
<path d="M66.2186 74.8662C67.8652 73.2196 67.8652 70.5499 66.2186 68.9034C64.5721 67.2568 61.9024 67.2568 60.2558 68.9034C58.6092 70.5499 58.6092 73.2196 60.2558 74.8662C61.9024 76.5128 64.5721 76.5128 66.2186 74.8662Z" fill="#096D49"/>
<path d="M59.8983 60.9812C59.8983 60.9812 69.1187 58.9204 67.817 50.4594C66.5153 41.9984 57.5121 43.517 57.5121 43.517C57.5121 43.517 57.5121 38.0932 53.4984 36.466C49.8105 35.0557 46.3393 36.2492 44.9291 38.6355C44.1695 35.2729 37.7033 31.5012 32.0293 33.587C26.3554 35.6728 24.4275 40.5877 24.4275 42.6493C20.3059 41.9984 12.593 46.2082 13.2982 54.8093C14.0033 63.4104 22.1821 65.3854 25.2846 65.2445C25.5128 69.8762 31.0447 72.6965 33.4313 72.8051C35.818 72.9138 40.5905 72.9152 43.411 67.9254C46.1229 70.8544 50.7876 71.5052 53.9334 70.4203C57.0792 69.3354 59.9692 66.0355 59.8983 60.9834" fill="#096D49"/>
<path d="M49.4389 56.9288C49.4229 56.7473 49.3445 56.577 49.217 56.4469C49.0896 56.3168 48.921 56.2348 48.7399 56.2151C48.5588 56.1953 48.3765 56.239 48.224 56.3386C48.0715 56.4382 47.9582 56.5876 47.9035 56.7614C47.8488 56.9351 47.8561 57.1225 47.924 57.2915C47.9919 57.4605 48.1164 57.6007 48.2761 57.6882C48.4358 57.7758 48.621 57.8053 48.8 57.7716C48.979 57.7379 49.1408 57.6433 49.2579 57.5037C49.3243 57.4244 49.3745 57.3329 49.4056 57.2342C49.4366 57.1356 49.4479 57.0318 49.4389 56.9288Z" fill="white"/>
<path d="M51.6035 59.4701C52.4514 58.459 52.9037 57.1747 52.8764 55.8554C52.8491 54.5362 52.3441 53.2716 51.4551 52.2965C50.5662 51.3214 49.3536 50.7019 48.0425 50.5531C46.7314 50.4042 45.4108 50.7361 44.3258 51.4872L34.501 43.2432L32.6533 45.4452L33.804 46.4107L32.7557 47.66L34.8143 49.3873L35.8618 48.1381L37.4041 49.4325L36.3558 50.6818L38.4143 52.4091L39.4626 51.1598L42.4782 53.6903C42.0796 54.5571 41.9156 55.5134 42.0026 56.4636C42.0895 57.4137 42.4244 58.3244 42.9737 59.1045C43.5231 59.8846 44.2676 60.5068 45.1328 60.9089C45.998 61.311 46.9537 61.4789 47.9041 61.3958C48.6173 61.3353 49.3114 61.1339 49.9463 60.8034C50.5812 60.4728 51.1442 60.0197 51.6028 59.4701L51.6035 59.4701ZM47.419 58.4687C47.0311 58.141 46.7892 57.6729 46.7462 57.167C46.7033 56.6611 46.8628 56.1588 47.1899 55.7705C47.5169 55.3822 47.9847 55.1395 48.4905 55.0957C48.9963 55.052 49.4988 55.2107 49.8877 55.5372C50.2765 55.8636 50.52 56.331 50.5645 56.8367C50.609 57.3425 50.4511 57.8452 50.1252 58.2346C49.7994 58.624 49.3324 58.8681 48.8267 58.9135C48.3211 58.9588 47.8181 58.8016 47.4282 58.4764C47.4251 58.4738 47.422 58.4713 47.419 58.4687Z" fill="white"/>
</svg>
