<svg width="17" height="16" viewBox="0 0 17 16" fill="none" xmlns="http://www.w3.org/2000/svg">
<path d="M10.1204 12.5467C9.99374 12.5467 9.86707 12.5001 9.76707 12.4001C9.57374 12.2067 9.57374 11.8867 9.76707 11.6934L13.4604 8.00008L9.76707 4.30674C9.57374 4.11341 9.57374 3.79341 9.76707 3.60008C9.9604 3.40674 10.2804 3.40674 10.4737 3.60008L14.5204 7.64674C14.7137 7.84008 14.7137 8.16008 14.5204 8.35341L10.4737 12.4001C10.3737 12.5001 10.2471 12.5467 10.1204 12.5467Z" fill="#096D49"/>
<path d="M14.053 8.5H2.83301C2.55967 8.5 2.33301 8.27333 2.33301 8C2.33301 7.72667 2.55967 7.5 2.83301 7.5H14.053C14.3263 7.5 14.553 7.72667 14.553 8C14.553 8.27333 14.3263 8.5 14.053 8.5Z" fill="#096D49"/>
</svg>
