<svg width="17" height="16" viewBox="0 0 17 16" fill="none" xmlns="http://www.w3.org/2000/svg">
<path d="M14.4707 5.1665H2.4707C2.19737 5.1665 1.9707 4.93984 1.9707 4.6665C1.9707 4.39317 2.19737 4.1665 2.4707 4.1665H14.4707C14.744 4.1665 14.9707 4.39317 14.9707 4.6665C14.9707 4.93984 14.744 5.1665 14.4707 5.1665Z" fill="#1E1E1E"/>
<path d="M14.4707 8.5H2.4707C2.19737 8.5 1.9707 8.27333 1.9707 8C1.9707 7.72667 2.19737 7.5 2.4707 7.5H14.4707C14.744 7.5 14.9707 7.72667 14.9707 8C14.9707 8.27333 14.744 8.5 14.4707 8.5Z" fill="#1E1E1E"/>
<path d="M14.4707 11.8335H2.4707C2.19737 11.8335 1.9707 11.6068 1.9707 11.3335C1.9707 11.0602 2.19737 10.8335 2.4707 10.8335H14.4707C14.744 10.8335 14.9707 11.0602 14.9707 11.3335C14.9707 11.6068 14.744 11.8335 14.4707 11.8335Z" fill="#1E1E1E"/>
</svg>
