<svg width="16" height="16" viewBox="0 0 16 16" fill="none" xmlns="http://www.w3.org/2000/svg">
<path d="M7.92 9.99333C7.79333 9.99333 7.66666 9.94666 7.56666 9.84666L5.86 8.14C5.66666 7.94666 5.66666 7.62666 5.86 7.43333C6.05333 7.24 6.37333 7.24 6.56666 7.43333L7.92 8.78666L9.27333 7.43333C9.46666 7.24 9.78666 7.24 9.98 7.43333C10.1733 7.62666 10.1733 7.94666 9.98 8.14L8.27333 9.84666C8.17333 9.94666 8.04666 9.99333 7.92 9.99333Z" fill="#096D49"/>
<path d="M7.92 9.94675C7.64666 9.94675 7.42 9.72008 7.42 9.44675V2.66675C7.42 2.39341 7.64666 2.16675 7.92 2.16675C8.19333 2.16675 8.42 2.39341 8.42 2.66675V9.44675C8.42 9.72008 8.19333 9.94675 7.92 9.94675Z" fill="#096D49"/>
<path d="M8 13.9535C4.56667 13.9535 2.16667 11.5535 2.16667 8.12012C2.16667 7.84678 2.39334 7.62012 2.66667 7.62012C2.94001 7.62012 3.16667 7.84678 3.16667 8.12012C3.16667 10.9668 5.15334 12.9535 8 12.9535C10.8467 12.9535 12.8333 10.9668 12.8333 8.12012C12.8333 7.84678 13.06 7.62012 13.3333 7.62012C13.6067 7.62012 13.8333 7.84678 13.8333 8.12012C13.8333 11.5535 11.4333 13.9535 8 13.9535Z" fill="#096D49"/>
</svg>
