<svg width="72" height="72" viewBox="0 0 72 72" fill="none" xmlns="http://www.w3.org/2000/svg">
<path d="M38.9228 59.1894H36.116C33.0164 59.1894 30.4948 56.6678 30.4948 53.5682V51.9702C30.4948 49.0346 28.1065 46.6463 25.1711 46.6463C22.0715 46.6463 19.5498 44.1246 19.5498 41.025V39.7173H19.8472V41.025C19.8472 43.9607 22.2354 46.349 25.1711 46.349C28.2707 46.349 30.7921 48.8706 30.7921 51.9702V53.5682C30.7921 56.5038 33.1804 58.8921 36.116 58.8921H38.9228V59.1894Z" fill="#3D5A80"/>
<path d="M37.103 70.1391C55.7132 70.1391 70.7997 69.1 70.7997 67.8181C70.7997 66.5362 55.7132 65.4971 37.103 65.4971C18.4928 65.4971 3.40625 66.5362 3.40625 67.8181C3.40625 69.1 18.4928 70.1391 37.103 70.1391Z" fill="#F2F2F2"/>
<path d="M54.784 51.2393C54.4034 51.2393 54.0947 50.9307 54.0947 50.55V50.4648H55.4735V50.55C55.4735 50.9307 55.1649 51.2393 54.784 51.2393Z" fill="#1F2733"/>
<path d="M54.7838 50.742C53.2079 50.742 51.9307 49.4645 51.9307 47.8889V46.4985H57.6371V47.8889C57.6371 49.4645 56.3596 50.742 54.7838 50.742Z" fill="#293241"/>
<path d="M57.6869 48.0117H51.8813C51.6751 48.0117 51.5078 47.8446 51.5078 47.6382V47.619C51.5078 47.4129 51.6751 47.2456 51.8813 47.2456H57.6869C57.893 47.2456 58.0603 47.4126 58.0603 47.619V47.6382C58.0601 47.8444 57.893 48.0117 57.6869 48.0117ZM57.6869 49.2743H51.8813C51.6751 49.2743 51.5078 49.1073 51.5078 48.9009V48.8817C51.5078 48.6755 51.6751 48.5082 51.8813 48.5082H57.6869C57.893 48.5082 58.0603 48.6753 58.0603 48.8817V48.9009C58.0601 49.107 57.893 49.2743 57.6869 49.2743Z" fill="#1F2733"/>
<path d="M62.5254 35.9043C62.5254 38.2515 61.4809 40.3548 59.8309 41.7747C59.8309 41.7747 59.8302 41.7754 59.8285 41.7768C59.7562 41.845 58.1257 43.4098 58.3194 46.0906C58.3388 46.3568 58.1274 46.5828 57.8607 46.5828H51.7069C51.4402 46.5828 51.2288 46.3568 51.248 46.0906C51.4419 43.4098 49.8114 41.845 49.7389 41.7768C49.7372 41.7754 49.7365 41.7747 49.7365 41.7747C48.0867 40.3548 47.042 38.2517 47.042 35.9043C47.042 31.6289 50.5081 28.1626 54.7837 28.1626C59.0595 28.1626 62.5254 31.6289 62.5254 35.9043Z" fill="#FFB902"/>
<path d="M62.5252 35.9045C62.5252 38.2517 61.4808 40.3551 59.8308 41.7749C59.8308 41.7749 59.83 41.7756 59.8284 41.7771C59.7561 41.8452 58.1256 43.41 58.3192 46.0908C58.3387 46.357 58.1272 46.5831 57.8606 46.5831H56.9964C57.263 46.5831 57.4747 46.357 57.455 46.0908C57.2611 43.41 58.8919 41.8452 58.9641 41.7771C58.9658 41.7756 58.9665 41.7749 58.9665 41.7749C60.6163 40.3551 61.661 38.252 61.661 35.9045C61.661 31.7741 58.4263 28.399 54.3516 28.1751C54.4946 28.1672 54.6386 28.1631 54.7838 28.1631C59.0594 28.1628 62.5252 31.6292 62.5252 35.9045Z" fill="#F2A807"/>
<path d="M56.6648 37.9814C55.9294 37.9814 55.3308 38.5798 55.3308 39.3154V40.3848H54.2367V39.3154C54.2367 38.5798 53.6384 37.9814 52.9025 37.9814C52.1669 37.9814 51.5684 38.5798 51.5684 39.3154V39.3682C51.5684 40.1035 52.1669 40.7021 52.9025 40.7021H53.9194V46.5828H54.2364V40.7021H55.3306V46.5828H55.6479V40.7021H56.6648C57.4006 40.7021 57.9992 40.1035 57.9992 39.3682V39.3154C57.9992 38.5795 57.4006 37.9814 56.6648 37.9814ZM53.9194 40.3848H52.9025C52.3416 40.3848 51.8854 39.9288 51.8854 39.3679V39.3151C51.8854 38.7542 52.3416 38.2982 52.9025 38.2982C53.4634 38.2982 53.9194 38.7542 53.9194 39.3151V40.3848ZM57.6821 39.3679C57.6821 39.9288 57.2256 40.3848 56.6648 40.3848H55.6479V39.3154C55.6479 38.7545 56.1039 38.2985 56.6648 38.2985C57.2256 38.2985 57.6821 38.7545 57.6821 39.3154V39.3679Z" fill="white"/>
<path d="M54.7959 26.7643C54.5101 25.7314 54.5101 24.2139 54.7342 23.1653C54.7517 23.0854 54.7712 23.0055 54.7959 22.9253C54.8206 23.0052 54.8401 23.0851 54.8576 23.1653C55.0815 24.2131 55.082 25.7307 54.7959 26.7643ZM48.4901 29.3664C47.5575 28.8382 46.4847 27.7649 45.9017 26.8651C45.8576 26.796 45.8149 26.7259 45.7757 26.6518C45.8497 26.6909 45.92 26.7336 45.9891 26.7778C46.8881 27.3605 47.9614 28.4333 48.4901 29.3664ZM45.8713 35.6652C44.8383 35.9511 43.3208 35.9511 42.2722 35.7269C42.1923 35.7094 42.1124 35.6899 42.0322 35.6652C42.1121 35.6405 42.1921 35.6211 42.2722 35.6035C43.3201 35.3796 44.8376 35.3791 45.8713 35.6652ZM48.4733 41.971C47.9451 42.9036 46.8718 43.9764 45.9721 44.5594C45.9029 44.6035 45.8329 44.6463 45.7587 44.6854C45.7978 44.6112 45.8405 44.5411 45.8847 44.472C46.4674 43.573 47.5402 42.4997 48.4733 41.971ZM61.0779 41.9878C62.0105 42.516 63.0833 43.5891 63.6663 44.4891C63.7105 44.5582 63.7532 44.6283 63.7923 44.7024C63.7181 44.6633 63.6481 44.6206 63.579 44.5764C62.6799 43.9937 61.6066 42.9209 61.0779 41.9878ZM63.6968 35.689C64.7297 35.4031 66.2473 35.4031 67.2956 35.6273C67.3755 35.6448 67.4557 35.6643 67.5356 35.689C67.4557 35.7137 67.3757 35.7331 67.2956 35.7507C66.248 35.9746 64.7305 35.9751 63.6968 35.689ZM61.0947 29.3832C61.6229 28.4506 62.6962 27.3778 63.596 26.7948C63.6651 26.7507 63.7352 26.7079 63.8093 26.6688C63.7702 26.743 63.7273 26.8131 63.6833 26.8822C63.1004 27.7812 62.0278 28.8545 61.0947 29.3832Z" fill="#FFB902"/>
<path d="M38.9226 58.7246H38.5547V59.4177H38.9226V58.7246Z" fill="#293241"/>
<path d="M41.5844 60.5007H40.1466C39.3527 60.5007 38.7087 59.857 38.709 59.0628C38.709 58.2689 39.3527 57.625 40.1466 57.625H41.5844V60.5007Z" fill="#293241"/>
<path d="M41.6137 60.6662C41.4932 60.6662 41.3955 60.5685 41.3955 60.448V57.6952C41.3955 57.5747 41.4932 57.4771 41.6137 57.4771C41.7341 57.4771 41.8318 57.5747 41.8318 57.6952V60.448C41.8321 60.5685 41.7344 60.6662 41.6137 60.6662Z" fill="#1F2733"/>
<path d="M52.6866 67.8182C52.4221 67.8182 52.1557 67.7697 51.8972 67.6713C51.8572 67.656 51.8178 67.6401 51.7787 67.6236C50.4877 67.0752 49.6379 65.7408 49.6643 64.3029C49.7226 61.1258 49.0597 59.9181 48.4936 59.4645C48.0491 59.1086 47.6456 59.2013 47.6286 59.2056L47.5547 58.9164C47.577 58.9106 48.1072 58.7798 48.6695 59.2233C49.293 59.7151 50.0236 60.9965 49.9628 64.3087C49.9386 65.6258 50.7153 66.8477 51.8956 67.349C51.9313 67.3641 51.9673 67.3788 52.0038 67.3927C52.5995 67.6195 53.2453 67.5396 53.7762 67.1738C54.3136 66.8033 54.6344 66.1939 54.6344 65.5433V51.2397H54.933V65.5433C54.933 66.2921 54.5639 66.9936 53.9456 67.4196C53.5626 67.6833 53.1275 67.8182 52.6866 67.8182Z" fill="#3D5A80"/>
<path d="M47.9011 58.6943H47.5332V59.3875H47.9011V58.6943Z" fill="#293241"/>
<path d="M43.4651 59.5587H44.8117V60.0036H43.4651C43.348 60.0036 43.2529 59.9086 43.2529 59.7915V59.7708C43.2529 59.6537 43.348 59.5587 43.4651 59.5587ZM43.4651 58.0781H44.8117V58.5231H43.4651C43.348 58.5231 43.2529 58.428 43.2529 58.3109V58.2903C43.2529 58.1732 43.348 58.0781 43.4651 58.0781Z" fill="#EAEAEA"/>
<path d="M44.8721 57.6118H46.3099C47.1038 57.6118 47.7475 58.2555 47.7475 59.0497C47.7475 59.8436 47.1038 60.4873 46.3099 60.4873H44.8721V57.6118Z" fill="#293241"/>
<path d="M44.8422 57.4463C44.9627 57.4463 45.0603 57.544 45.0603 57.6644V60.4172C45.0603 60.5377 44.9627 60.6354 44.8422 60.6354C44.7217 60.6354 44.624 60.5377 44.624 60.4172V57.6644C44.6238 57.5442 44.7215 57.4463 44.8422 57.4463Z" fill="#1F2733"/>
<path d="M19.6989 40.1878C19.2902 40.1878 18.959 39.8566 18.959 39.4479V39.3564H20.4391V39.4479C20.4388 39.8566 20.1076 40.1878 19.6989 40.1878Z" fill="#1F2733"/>
<path d="M19.6986 39.6531C18.0071 39.6531 16.6357 38.2817 16.6357 36.5902V35.0977H22.7615V36.5902C22.7615 38.282 21.3901 39.6531 19.6986 39.6531Z" fill="#293241"/>
<path d="M22.8148 36.7226H16.5824C16.3612 36.7226 16.1816 36.5431 16.1816 36.3218V36.3012C16.1816 36.0799 16.3612 35.9004 16.5824 35.9004H22.8148C23.036 35.9004 23.2156 36.0799 23.2156 36.3012V36.3218C23.2156 36.5431 23.036 36.7226 22.8148 36.7226ZM22.8148 38.0779H16.5824C16.3612 38.0779 16.1816 37.8984 16.1816 37.6771V37.6565C16.1816 37.4352 16.3612 37.2557 16.5824 37.2557H22.8148C23.036 37.2557 23.2156 37.4352 23.2156 37.6565V37.6771C23.2156 37.8986 23.036 38.0779 22.8148 38.0779Z" fill="#1F2733"/>
<path d="M28.0087 23.7263C28.0087 26.246 26.8874 28.5037 25.1162 30.0279C25.1162 30.0279 25.1152 30.0287 25.1135 30.0301C25.036 30.1033 23.2855 31.7831 23.4935 34.6607C23.5144 34.9463 23.2874 35.1891 23.0011 35.1891H16.3953C16.109 35.1891 15.8822 34.9463 15.9028 34.6607C16.1109 31.7828 14.3606 30.1031 14.2828 30.0301C14.2811 30.0284 14.2802 30.0279 14.2802 30.0279C12.5092 28.5039 11.3877 26.246 11.3877 23.7263C11.3877 19.1367 15.1082 15.416 19.6979 15.416C24.2877 15.416 28.0087 19.1365 28.0087 23.7263Z" fill="#EAEAEA"/>
<path d="M28.0088 23.726C28.0088 26.2458 26.8875 28.5034 25.1163 30.0277C25.1163 30.0277 25.1153 30.0284 25.1137 30.0298C25.0361 30.103 23.2856 31.7828 23.4937 34.6604C23.5145 34.946 23.2875 35.1889 23.0012 35.1889H22.0733C22.3597 35.1889 22.5867 34.946 22.5658 34.6604C22.3577 31.7826 24.1083 30.1028 24.1858 30.0298C24.1875 30.0282 24.1885 30.0277 24.1885 30.0277C25.9594 28.5037 27.0809 26.2458 27.0809 23.726C27.0809 19.292 23.6084 15.669 19.2344 15.4285C19.388 15.4198 19.5425 15.4155 19.6983 15.4155C24.2881 15.4155 28.0088 19.1362 28.0088 23.726Z" fill="#DBDBDC"/>
<path d="M21.7179 25.9556C20.9285 25.9556 20.2858 26.5978 20.2858 27.3876V28.5358H19.1112V27.3876C19.1112 26.5978 18.469 25.9556 17.6791 25.9556C16.8893 25.9556 16.2471 26.5978 16.2471 27.3876V27.4443C16.2471 28.2336 16.8895 28.8764 17.6791 28.8764H18.7709V35.1893H19.1112V28.8764H20.2858V35.1893H20.6263V28.8764H21.7179C22.5077 28.8764 23.1504 28.2339 23.1504 27.4443V27.3876C23.1504 26.5978 22.508 25.9556 21.7179 25.9556ZM18.7709 28.5358H17.6791C17.0772 28.5358 16.5874 28.0462 16.5874 27.4443V27.3876C16.5874 26.7857 17.077 26.2961 17.6791 26.2961C18.2811 26.2961 18.7709 26.7857 18.7709 27.3876V28.5358ZM22.8101 27.444C22.8101 28.046 22.32 28.5356 21.7181 28.5356H20.6266V27.3874C20.6266 26.7855 21.1162 26.2959 21.7181 26.2959C22.32 26.2959 22.8101 26.7855 22.8101 27.3874V27.444Z" fill="#1F2733"/>
<path d="M6.90969 18.8803C6.62889 18.8803 6.40137 18.6528 6.40137 18.372V18.3091H7.41825V18.372C7.41801 18.6528 7.19049 18.8803 6.90969 18.8803Z" fill="#1F2733"/>
<path d="M6.90998 18.5131C5.7479 18.5131 4.80566 17.5711 4.80566 16.4088V15.3833H9.0143V16.4088C9.01406 17.5711 8.07206 18.5131 6.90998 18.5131Z" fill="#293241"/>
<path d="M9.05028 16.4993H4.76844C4.61628 16.4993 4.49316 16.3759 4.49316 16.224V16.2098C4.49316 16.0577 4.61652 15.9346 4.76844 15.9346H9.05028C9.20244 15.9346 9.32556 16.0579 9.32556 16.2098V16.224C9.32556 16.3762 9.20244 16.4993 9.05028 16.4993ZM9.05028 17.4305H4.76844C4.61628 17.4305 4.49316 17.3071 4.49316 17.1552V17.1411C4.49316 16.9889 4.61652 16.8658 4.76844 16.8658H9.05028C9.20244 16.8658 9.32556 16.9891 9.32556 17.1411V17.1552C9.32556 17.3074 9.20244 17.4305 9.05028 17.4305Z" fill="#1F2733"/>
<path d="M12.6192 7.57044C12.6192 9.30156 11.8488 10.8527 10.632 11.8998C10.632 11.8998 10.6315 11.9003 10.6303 11.9015C10.577 11.9516 9.37436 13.1058 9.5174 15.0829C9.5318 15.2792 9.3758 15.446 9.179 15.446H4.64036C4.44356 15.446 4.2878 15.2792 4.30196 15.0829C4.445 13.1058 3.24236 11.9516 3.18908 11.9015C3.18788 11.9005 3.1874 11.8998 3.1874 11.8998C1.9706 10.8527 1.2002 9.30156 1.2002 7.57044C1.2002 4.41732 3.75644 1.86084 6.9098 1.86084C10.0629 1.86084 12.6192 4.41708 12.6192 7.57044Z" fill="#EAEAEA"/>
<path d="M12.6189 7.57044C12.6189 9.30156 11.8485 10.8527 10.6317 11.8998C10.6317 11.8998 10.6312 11.9003 10.63 11.9015C10.5767 11.9516 9.3741 13.1058 9.51714 15.0829C9.53154 15.2792 9.37554 15.446 9.17874 15.446H8.5413C8.7381 15.446 8.8941 15.2792 8.8797 15.0829C8.73666 13.1058 9.9393 11.9516 9.99258 11.9015C9.99378 11.9005 9.9945 11.8998 9.9945 11.8998C11.2113 10.8527 11.9817 9.30156 11.9817 7.57044C11.9817 4.52412 9.5961 2.03508 6.59082 1.86972C6.69642 1.86396 6.8025 1.86084 6.90954 1.86084C10.0627 1.86084 12.6189 4.41708 12.6189 7.57044Z" fill="#DBDBDC"/>
<path d="M8.29697 9.10205C7.75457 9.10205 7.31321 9.54341 7.31321 10.0858V10.8747H6.50609V10.0858C6.50609 9.54317 6.06497 9.10205 5.52209 9.10205C4.97945 9.10205 4.53809 9.54341 4.53809 10.0858V10.1247C4.53809 10.6671 4.97945 11.1085 5.52209 11.1085H6.27209V15.4457H6.50609V11.1085H7.31321V15.4457H7.54721V11.1085H8.29721C8.83985 11.1085 9.28145 10.6669 9.28145 10.1247V10.0858C9.28121 9.54317 8.83961 9.10205 8.29697 9.10205ZM6.27233 10.8747H5.52233C5.10881 10.8747 4.77233 10.5385 4.77233 10.1247V10.0858C4.77233 9.67229 5.10881 9.33581 5.52233 9.33581C5.93585 9.33581 6.27233 9.67205 6.27233 10.0858V10.8747ZM9.04721 10.1247C9.04721 10.5382 8.71049 10.8747 8.29697 10.8747H7.54697V10.0858C7.54697 9.67229 7.88321 9.33581 8.29697 9.33581C8.71073 9.33581 9.04721 9.67205 9.04721 10.0858V10.1247Z" fill="#1F2733"/>
<path d="M32.4878 18.8803C32.207 18.8803 31.9795 18.6528 31.9795 18.372V18.3091H32.9964V18.372C32.9961 18.6528 32.7684 18.8803 32.4878 18.8803Z" fill="#1F2733"/>
<path d="M32.4871 18.5131C31.3251 18.5131 30.3828 17.5711 30.3828 16.4088V15.3833H34.5915V16.4088C34.5912 17.5711 33.6492 18.5131 32.4871 18.5131Z" fill="#293241"/>
<path d="M34.6284 16.4993H30.3466C30.1944 16.4993 30.0713 16.3759 30.0713 16.224V16.2098C30.0713 16.0577 30.1947 15.9346 30.3466 15.9346H34.6284C34.7806 15.9346 34.9037 16.0579 34.9037 16.2098V16.224C34.9037 16.3762 34.7803 16.4993 34.6284 16.4993ZM34.6284 17.4305H30.3466C30.1944 17.4305 30.0713 17.3071 30.0713 17.1552V17.1411C30.0713 16.9889 30.1947 16.8658 30.3466 16.8658H34.6284C34.7806 16.8658 34.9037 16.9891 34.9037 17.1411V17.1552C34.9037 17.3074 34.7803 17.4305 34.6284 17.4305Z" fill="#1F2733"/>
<path d="M38.1968 7.57044C38.1968 9.30156 37.4264 10.8527 36.2096 11.8998C36.2096 11.8998 36.2089 11.9003 36.2077 11.9015C36.1544 11.9516 34.9517 13.1058 35.0948 15.0829C35.1092 15.2792 34.9532 15.446 34.7564 15.446H30.2177C30.0209 15.446 29.8652 15.2792 29.8793 15.0829C30.0224 13.1058 28.8197 11.9516 28.7665 11.9015C28.7653 11.9005 28.7645 11.8998 28.7645 11.8998C27.5477 10.8527 26.7773 9.30156 26.7773 7.57044C26.7773 4.41732 29.3336 1.86084 32.4869 1.86084C35.6405 1.86084 38.1968 4.41708 38.1968 7.57044Z" fill="#EAEAEA"/>
<path d="M38.1965 7.57044C38.1965 9.30156 37.4261 10.8527 36.2093 11.8998C36.2093 11.8998 36.2086 11.9003 36.2074 11.9015C36.1541 11.9516 34.9515 13.1058 35.0945 15.0829C35.1089 15.2792 34.9529 15.446 34.7561 15.446H34.1187C34.3155 15.446 34.4715 15.2792 34.4571 15.0829C34.314 13.1058 35.5167 11.9516 35.57 11.9015C35.5712 11.9005 35.5717 11.8998 35.5717 11.8998C36.7885 10.8527 37.5588 9.30156 37.5588 7.57044C37.5588 4.52412 35.1732 2.03508 32.168 1.86972C32.2736 1.86396 32.3796 1.86084 32.4867 1.86084C35.6403 1.86084 38.1965 4.41708 38.1965 7.57044Z" fill="#DBDBDC"/>
<path d="M33.8749 9.10205C33.3325 9.10205 32.8911 9.54341 32.8911 10.0858V10.8747H32.0842V10.0858C32.0842 9.54317 31.6429 9.10205 31.1002 9.10205C30.5576 9.10205 30.1162 9.54341 30.1162 10.0858V10.1247C30.1162 10.6671 30.5576 11.1085 31.1002 11.1085H31.8502V15.4457H32.0842V11.1085H32.8911V15.4457H33.1251V11.1085H33.8751C34.4177 11.1085 34.8593 10.6669 34.8593 10.1247V10.0858C34.8591 9.54317 34.4175 9.10205 33.8749 9.10205ZM31.85 10.8747H31.1C30.6865 10.8747 30.35 10.5385 30.35 10.1247V10.0858C30.35 9.67229 30.6865 9.33581 31.1 9.33581C31.5135 9.33581 31.85 9.67205 31.85 10.0858V10.8747ZM34.6251 10.1247C34.6251 10.5382 34.2884 10.8747 33.8749 10.8747H33.1249V10.0858C33.1249 9.67229 33.4611 9.33581 33.8749 9.33581C34.2884 9.33581 34.6251 9.67205 34.6251 10.0858V10.1247Z" fill="#1F2733"/>
</svg>
