<svg width="20" height="20" viewBox="0 0 20 20" fill="none" xmlns="http://www.w3.org/2000/svg">
<path d="M5.14999 18.9583C5.06666 18.9583 4.97499 18.95 4.89999 18.9416L3.09166 18.6916C2.22499 18.575 1.44166 17.8 1.30833 16.9166L1.05833 15.0916C0.974992 14.5083 1.22499 13.75 1.64166 13.325L5.29999 9.66664C4.70833 7.29998 5.39166 4.79998 7.13333 3.07498C9.83333 0.38331 14.225 0.374977 16.9333 3.07498C18.2417 4.38331 18.9583 6.12498 18.9583 7.97498C18.9583 9.82498 18.2417 11.5666 16.9333 12.875C15.1833 14.6083 12.6917 15.2916 10.3417 14.6916L6.67499 18.35C6.32499 18.7166 5.69999 18.9583 5.14999 18.9583ZM12.025 2.29998C10.5667 2.29998 9.11666 2.84998 8.00833 3.95831C6.50833 5.44998 5.96666 7.63331 6.59166 9.66664C6.65833 9.89164 6.59999 10.125 6.43333 10.2916L2.51666 14.2083C2.37499 14.35 2.25833 14.7166 2.28333 14.9083L2.53333 16.7333C2.58333 17.05 2.92499 17.4083 3.24166 17.45L5.05833 17.7C5.25833 17.7333 5.62499 17.6166 5.76666 17.475L9.69999 13.55C9.86666 13.3833 10.1083 13.3333 10.325 13.4C12.3333 14.0333 14.525 13.4916 16.025 11.9916C17.0917 10.925 17.6833 9.49164 17.6833 7.97498C17.6833 6.44998 17.0917 5.02498 16.025 3.95831C14.9417 2.85831 13.4833 2.29998 12.025 2.29998Z" fill="#1E1E1E"/>
<path d="M7.65836 17.1166C7.50002 17.1166 7.34169 17.0583 7.21669 16.9333L5.30002 15.0166C5.05836 14.7749 5.05836 14.3749 5.30002 14.1333C5.54169 13.8916 5.94169 13.8916 6.18336 14.1333L8.10002 16.0499C8.34169 16.2916 8.34169 16.6916 8.10002 16.9333C7.97502 17.0583 7.81669 17.1166 7.65836 17.1166Z" fill="#1E1E1E"/>
<path d="M12.0833 9.79163C11.05 9.79163 10.2083 8.94996 10.2083 7.91663C10.2083 6.88329 11.05 6.04163 12.0833 6.04163C13.1166 6.04163 13.9583 6.88329 13.9583 7.91663C13.9583 8.94996 13.1166 9.79163 12.0833 9.79163ZM12.0833 7.29163C11.7416 7.29163 11.4583 7.57496 11.4583 7.91663C11.4583 8.25829 11.7416 8.54163 12.0833 8.54163C12.425 8.54163 12.7083 8.25829 12.7083 7.91663C12.7083 7.57496 12.425 7.29163 12.0833 7.29163Z" fill="#1E1E1E"/>
</svg>
