<svg width="146" height="41" viewBox="0 0 146 41" fill="none" xmlns="http://www.w3.org/2000/svg">
<rect x="0.5" y="1" width="145" height="39" rx="3.5" stroke="#096D49"/>
<path d="M21.376 25.654C18.492 25.654 16.574 23.582 16.574 20.446C16.574 17.324 18.548 15.21 21.446 15.21C23.728 15.21 25.478 16.568 25.856 18.64H24.386C24.008 17.324 22.874 16.526 21.404 16.526C19.36 16.526 18.016 18.066 18.016 20.432C18.016 22.798 19.36 24.338 21.404 24.338C22.888 24.338 24.064 23.54 24.442 22.294H25.898C25.464 24.31 23.658 25.654 21.376 25.654ZM28.6039 25.486H27.2879V15.196H28.6039V19.704C29.0379 18.962 29.8639 18.458 30.9279 18.458C32.6779 18.458 33.5179 19.564 33.5179 21.314V25.5H32.2019V21.608C32.2019 20.222 31.5439 19.662 30.5639 19.662C29.2899 19.662 28.6039 20.586 28.6039 21.762V25.486ZM37.3427 25.668C35.8727 25.668 35.0047 24.842 35.0047 23.596C35.0047 22.336 35.9427 21.552 37.5527 21.426L39.7087 21.258V21.062C39.7087 19.914 39.0227 19.508 38.0987 19.508C36.9927 19.508 36.3627 19.998 36.3627 20.824H35.2147C35.2147 19.396 36.3907 18.458 38.1547 18.458C39.8487 18.458 40.9967 19.354 40.9967 21.202V25.5H39.8767L39.7367 24.394C39.3867 25.178 38.4487 25.668 37.3427 25.668ZM37.7207 24.646C38.9667 24.646 39.7227 23.834 39.7227 22.546V22.182L37.9727 22.322C36.8107 22.434 36.3347 22.882 36.3347 23.554C36.3347 24.282 36.8667 24.646 37.7207 24.646ZM44.1352 25.5H42.8192V18.654H44.0092L44.1492 19.704C44.5832 18.92 45.4512 18.458 46.4172 18.458C48.2232 18.458 49.0492 19.564 49.0492 21.314V25.5H47.7332V21.608C47.7332 20.222 47.0892 19.662 46.0812 19.662C44.8492 19.662 44.1352 20.544 44.1352 21.874V25.5ZM50.4379 21.902C50.4379 19.97 51.6839 18.458 53.6719 18.458C54.7779 18.458 55.6319 18.962 56.0659 19.816L56.1639 18.654H57.3399V25.22C57.3399 27.376 56.0099 28.748 53.9099 28.748C52.0479 28.748 50.7739 27.698 50.5219 25.962H51.8379C52.0059 26.97 52.7619 27.558 53.9099 27.558C55.1979 27.558 56.0379 26.718 56.0379 25.416V24.044C55.5899 24.842 54.6939 25.318 53.6159 25.318C51.6699 25.318 50.4379 23.82 50.4379 21.902ZM51.7539 21.874C51.7539 23.162 52.5519 24.17 53.8399 24.17C55.1699 24.17 55.9819 23.218 55.9819 21.874C55.9819 20.558 55.1979 19.606 53.8539 19.606C52.5379 19.606 51.7539 20.614 51.7539 21.874ZM62.1931 25.668C60.1771 25.668 58.7911 24.212 58.7911 22.084C58.7911 19.942 60.1491 18.458 62.1371 18.458C64.0831 18.458 65.3571 19.802 65.3571 21.832V22.322L60.0651 22.336C60.1631 23.778 60.9191 24.576 62.2211 24.576C63.2431 24.576 63.9151 24.156 64.1391 23.372H65.3711C65.0351 24.842 63.8871 25.668 62.1931 25.668ZM62.1371 19.564C60.9891 19.564 60.2611 20.25 60.0931 21.454H64.0411C64.0411 20.32 63.2991 19.564 62.1371 19.564ZM70.6551 28.566V18.654H71.8451L71.9431 19.886C72.4051 18.948 73.3291 18.458 74.4211 18.458C76.3811 18.458 77.5991 19.928 77.5991 22.028C77.5991 24.114 76.4511 25.682 74.4211 25.682C73.3291 25.682 72.4191 25.22 71.9711 24.38V28.566H70.6551ZM71.9851 22.084C71.9851 23.484 72.7971 24.492 74.1411 24.492C75.4851 24.492 76.2831 23.484 76.2831 22.084C76.2831 20.67 75.4851 19.662 74.1411 19.662C72.7971 19.662 71.9851 20.656 71.9851 22.084ZM81.0517 25.668C79.5817 25.668 78.7137 24.842 78.7137 23.596C78.7137 22.336 79.6517 21.552 81.2617 21.426L83.4177 21.258V21.062C83.4177 19.914 82.7317 19.508 81.8077 19.508C80.7017 19.508 80.0717 19.998 80.0717 20.824H78.9237C78.9237 19.396 80.0997 18.458 81.8637 18.458C83.5577 18.458 84.7057 19.354 84.7057 21.202V25.5H83.5857L83.4457 24.394C83.0957 25.178 82.1577 25.668 81.0517 25.668ZM81.4297 24.646C82.6757 24.646 83.4317 23.834 83.4317 22.546V22.182L81.6817 22.322C80.5197 22.434 80.0437 22.882 80.0437 23.554C80.0437 24.282 80.5757 24.646 81.4297 24.646ZM85.9682 23.512H87.2282C87.2282 24.212 87.7602 24.632 88.6282 24.632C89.5522 24.632 90.0842 24.254 90.0842 23.624C90.0842 23.162 89.8602 22.882 89.1462 22.7L87.9422 22.42C86.7242 22.126 86.1502 21.524 86.1502 20.516C86.1502 19.256 87.2142 18.458 88.7262 18.458C90.2242 18.458 91.2042 19.298 91.2322 20.6H89.9722C89.9442 19.914 89.4822 19.48 88.6842 19.48C87.8582 19.48 87.3962 19.844 87.3962 20.474C87.3962 20.936 87.7322 21.244 88.4042 21.412L89.6082 21.706C90.7702 21.986 91.3442 22.518 91.3442 23.54C91.3442 24.842 90.2242 25.668 88.6002 25.668C86.9902 25.668 85.9682 24.814 85.9682 23.512ZM92.2436 23.512H93.5036C93.5036 24.212 94.0356 24.632 94.9036 24.632C95.8276 24.632 96.3596 24.254 96.3596 23.624C96.3596 23.162 96.1356 22.882 95.4216 22.7L94.2176 22.42C92.9996 22.126 92.4256 21.524 92.4256 20.516C92.4256 19.256 93.4896 18.458 95.0016 18.458C96.4996 18.458 97.4796 19.298 97.5076 20.6H96.2476C96.2196 19.914 95.7576 19.48 94.9596 19.48C94.1336 19.48 93.6716 19.844 93.6716 20.474C93.6716 20.936 94.0076 21.244 94.6796 21.412L95.8836 21.706C97.0456 21.986 97.6196 22.518 97.6196 23.54C97.6196 24.842 96.4996 25.668 94.8756 25.668C93.2656 25.668 92.2436 24.814 92.2436 23.512ZM100.385 25.5L98.1449 18.654H99.5029L100.637 22.21C100.791 22.714 100.931 23.232 101.057 23.834C101.169 23.232 101.351 22.658 101.505 22.21L102.653 18.654H103.997L105.131 22.21C105.243 22.546 105.467 23.344 105.579 23.834C105.691 23.288 105.817 22.812 106.013 22.21L107.161 18.654H108.533L106.195 25.5H104.949L103.759 21.832C103.535 21.146 103.395 20.614 103.325 20.236C103.255 20.572 103.129 21.02 102.877 21.846L101.687 25.5H100.385ZM108.899 22.07C108.899 19.956 110.411 18.472 112.469 18.472C114.513 18.472 116.025 19.956 116.025 22.07C116.025 24.184 114.513 25.668 112.469 25.668C110.411 25.668 108.899 24.184 108.899 22.07ZM110.229 22.07C110.229 23.498 111.139 24.492 112.469 24.492C113.785 24.492 114.709 23.498 114.709 22.07C114.709 20.642 113.785 19.648 112.469 19.648C111.139 19.648 110.229 20.642 110.229 22.07ZM121.401 18.598V19.802H120.813C119.567 19.802 118.797 20.558 118.797 21.874V25.5H117.481V18.668H118.713L118.797 19.704C119.077 18.99 119.763 18.514 120.701 18.514C120.939 18.514 121.135 18.542 121.401 18.598ZM125.133 25.668C123.146 25.668 121.942 24.184 121.942 22.098C121.942 19.998 123.16 18.458 125.19 18.458C126.24 18.458 127.122 18.92 127.584 19.76V15.196H128.886V25.5H127.71L127.598 24.254C127.15 25.192 126.226 25.668 125.133 25.668ZM125.4 24.478C126.744 24.478 127.57 23.484 127.57 22.056C127.57 20.656 126.744 19.648 125.4 19.648C124.056 19.648 123.272 20.656 123.272 22.056C123.272 23.47 124.056 24.478 125.4 24.478Z" fill="#096D49"/>
</svg>
