<svg width="172" height="173" viewBox="0 0 172 173" fill="none" xmlns="http://www.w3.org/2000/svg">
<path d="M123.692 24.394H47.9092V148.606H123.692V24.394Z" fill="#096D49"/>
<path d="M120.461 28.0269H51.1387V144.973H120.461V28.0269Z" fill="white"/>
<path d="M101.975 91.0542H69.6249C69.0764 91.0542 68.5504 90.8363 68.1626 90.4484C67.7747 90.0606 67.5568 89.5346 67.5568 88.9861C67.5568 88.4376 67.7747 87.9115 68.1626 87.5237C68.5504 87.1359 69.0764 86.918 69.6249 86.918H101.975C102.524 86.918 103.05 87.1359 103.437 87.5237C103.825 87.9115 104.043 88.4376 104.043 88.9861C104.043 89.5346 103.825 90.0606 103.437 90.4484C103.05 90.8363 102.524 91.0542 101.975 91.0542ZM97.9493 98.7766H73.6508C73.3792 98.7766 73.1102 98.7231 72.8593 98.6192C72.6084 98.5153 72.3805 98.363 72.1884 98.1709C71.9964 97.9789 71.844 97.7509 71.7401 97.5C71.6362 97.2491 71.5827 96.9802 71.5827 96.7086C71.5827 96.437 71.6362 96.1681 71.7401 95.9172C71.844 95.6663 71.9964 95.4383 72.1884 95.2462C72.3805 95.0542 72.6084 94.9019 72.8593 94.7979C73.1102 94.694 73.3792 94.6405 73.6508 94.6405H97.9493C98.4978 94.6405 99.0238 94.8584 99.4117 95.2462C99.7995 95.6341 100.017 96.1601 100.017 96.7086C100.017 97.2571 99.7995 97.7831 99.4117 98.1709C99.0238 98.5588 98.4978 98.7766 97.9493 98.7766ZM115.353 125.162H56.247C55.9287 125.162 55.6235 125.035 55.3984 124.81C55.1734 124.585 55.0469 124.28 55.0469 123.962C55.0469 123.643 55.1734 123.338 55.3984 123.113C55.6235 122.888 55.9287 122.761 56.247 122.761H115.353C115.671 122.761 115.977 122.888 116.202 123.113C116.427 123.338 116.553 123.643 116.553 123.962C116.553 124.28 116.427 124.585 116.202 124.81C115.977 125.035 115.671 125.162 115.353 125.162ZM115.353 130.739H56.247C55.9287 130.739 55.6235 130.612 55.3984 130.387C55.1734 130.162 55.0469 129.857 55.0469 129.539C55.0469 129.221 55.1734 128.915 55.3984 128.69C55.6235 128.465 55.9287 128.339 56.247 128.339H115.353C115.671 128.339 115.977 128.465 116.202 128.69C116.427 128.915 116.553 129.221 116.553 129.539C116.553 129.857 116.427 130.162 116.202 130.387C115.977 130.612 115.671 130.739 115.353 130.739ZM115.353 136.316H56.247C55.9287 136.316 55.6234 136.19 55.3984 135.965C55.1733 135.74 55.0469 135.434 55.0469 135.116C55.0469 134.798 55.1733 134.493 55.3984 134.268C55.6234 134.043 55.9287 133.916 56.247 133.916H115.353C115.671 133.916 115.977 134.043 116.202 134.268C116.427 134.493 116.553 134.798 116.553 135.116C116.553 135.434 116.427 135.74 116.202 135.965C115.977 136.19 115.671 136.316 115.353 136.316Z" fill="#096D49"/>
<path d="M65.5296 106.654L66.7621 109.151L69.5182 109.552L67.5239 111.496L67.9947 114.241L65.5296 112.944L63.0645 114.241L63.5353 111.496L61.541 109.552L64.2971 109.151L65.5296 106.654Z" fill="#096D49"/>
<path d="M75.6243 106.654L76.8568 109.151L79.6129 109.552L77.6186 111.496L78.0894 114.241L75.6243 112.944L73.1592 114.241L73.63 111.496L71.6357 109.552L74.3918 109.151L75.6243 106.654Z" fill="#096D49"/>
<path d="M85.72 106.654L86.9525 109.151L89.7086 109.552L87.7143 111.496L88.1851 114.241L85.72 112.944L83.255 114.241L83.7258 111.496L81.7314 109.552L84.4874 109.151L85.72 106.654Z" fill="#096D49"/>
<path d="M95.8147 106.654L97.0473 109.151L99.8034 109.552L97.8091 111.496L98.2799 114.241L95.8147 112.944L93.3497 114.241L93.8205 111.496L91.8262 109.552L94.5822 109.151L95.8147 106.654Z" fill="#096D49"/>
<path d="M106.071 106.654L107.303 109.151L110.059 109.552L108.065 111.496L108.536 114.241L106.071 112.944L103.606 114.241L104.076 111.496L102.082 109.552L104.838 109.151L106.071 106.654Z" fill="#096D49"/>
<path d="M85.9372 40.0317C88.8837 40.0317 91.7096 41.2023 93.7931 43.2858C95.8767 45.3693 97.0472 48.1952 97.0472 51.1418V73.7232C97.0472 73.7917 97.02 73.8575 96.9715 73.906C96.923 73.9545 96.8572 73.9818 96.7886 73.9818H75.0858C75.0172 73.9818 74.9514 73.9545 74.9029 73.906C74.8544 73.8575 74.8271 73.7917 74.8271 73.7232V51.1418C74.8271 48.1952 75.9977 45.3693 78.0812 43.2858C80.1647 41.2023 82.9906 40.0317 85.9372 40.0317Z" fill="#211F44"/>
<path d="M100.348 74.4739H71.0918C73.8472 69.1286 78.3841 67.3931 85.6584 67.3931C94.0602 67.3934 98.6912 70.2347 100.348 74.4739Z" fill="#5997D1"/>
<path d="M87.1523 53.0757H84.7235C84.1385 53.0774 83.5779 53.3106 83.1642 53.7243C82.7505 54.138 82.5173 54.6985 82.5156 55.2836L82.5217 67.5204C82.5217 68.7348 84.0855 70.235 85.9379 70.235C87.8652 70.235 89.3601 68.5874 89.3601 67.6001C89.3601 64.5209 89.3601 55.2836 89.3601 55.2836C89.3584 54.6986 89.1253 54.138 88.7116 53.7243C88.2979 53.3106 87.7373 53.0774 87.1523 53.0757Z" fill="#FAD8D3"/>
<path d="M87.1523 53.0757H84.7235C84.1385 53.0774 83.5779 53.3106 83.1642 53.7243C82.7505 54.138 82.5173 54.6985 82.5156 55.2836V66.0968C85.2427 66.965 87.7315 65.2391 89.3601 63.2947V55.2836C89.3584 54.6986 89.1253 54.138 88.7116 53.7243C88.2979 53.3106 87.7373 53.0774 87.1523 53.0757Z" fill="#F2C3BF"/>
<path d="M92.8838 53.4405C92.8838 59.3527 89.7738 64.6065 85.9375 64.6065C82.1011 64.6065 78.9912 59.3527 78.9912 53.4405C78.9912 47.5285 81.9529 45.4497 85.7893 45.4497C89.8453 45.4497 92.8838 47.5285 92.8838 53.4405Z" fill="#FAD8D3"/>
<path d="M87.7577 41.5627C84.3237 40.9639 81.1562 42.8146 79.3234 44.7725C78.3641 45.7973 77.6417 47.5739 77.1317 49.066C76.2838 51.5472 76.5669 52.1102 76.5669 52.1102C76.5669 52.1102 77.0655 52.909 81.2057 53.3666C85.4213 53.8327 87.8229 53.2959 87.8229 53.2959L88.2945 49.8117L88.9899 53.2857C88.9899 53.2857 89.9979 53.5986 92.6411 52.7833C95.3348 51.9524 95.266 50.5881 95.266 50.5881C95.266 50.5881 95.2272 47.762 93.4174 46.0232C91.6077 44.2845 87.7577 41.5627 87.7577 41.5627Z" fill="#211F44"/>
<path d="M88.4981 60.2891C88.4981 60.2891 87.3517 61.7752 85.9376 61.7752C84.5234 61.7752 83.377 60.2891 83.377 60.2891H88.4981Z" fill="white"/>
<path d="M106.458 73.2723C106.458 73.4301 106.427 73.5864 106.367 73.7322C106.306 73.878 106.218 74.0105 106.106 74.1221C105.995 74.2337 105.862 74.3222 105.717 74.3826C105.571 74.443 105.414 74.4741 105.257 74.4741H66.6638C66.345 74.4741 66.0392 74.3474 65.8138 74.122C65.5884 73.8966 65.4617 73.5908 65.4617 73.272V37.6274C65.4617 37.4695 65.4928 37.3132 65.5532 37.1674C65.6136 37.0216 65.7022 36.889 65.8138 36.7774C65.9254 36.6658 66.0579 36.5773 66.2038 36.5169C66.3496 36.4564 66.5059 36.4254 66.6638 36.4254H105.257C105.575 36.4254 105.881 36.552 106.106 36.7773C106.332 37.0027 106.458 37.3084 106.458 37.6271V73.2723ZM107.086 33.9224H64.5137C64.0075 33.923 63.5223 34.1243 63.1644 34.4822C62.8064 34.8401 62.6051 35.3254 62.6045 35.8316V75.0682C62.6051 75.5743 62.8065 76.0595 63.1644 76.4174C63.5223 76.7753 64.0076 76.9765 64.5137 76.9771H107.086C107.592 76.9765 108.077 76.7752 108.435 76.4174C108.793 76.0595 108.994 75.5743 108.995 75.0682V35.8316C108.994 35.3254 108.793 34.8402 108.435 34.4823C108.077 34.1243 107.592 33.923 107.086 33.9224Z" fill="#096D49"/>
</svg>
