<svg width="147" height="41" viewBox="0 0 147 41" fill="none" xmlns="http://www.w3.org/2000/svg">
<rect x="1" y="1" width="145" height="39" rx="3.5" stroke="#096D49"/>
<path d="M39.99 25.5L36.14 15.378H37.61L40.074 21.846C40.298 22.42 40.494 22.994 40.704 23.75C40.942 22.952 41.18 22.28 41.348 21.832L43.798 15.378H45.226L41.418 25.5H39.99ZM46.9612 17.03C46.4852 17.03 46.0932 16.638 46.0932 16.162C46.0932 15.672 46.4852 15.294 46.9612 15.294C47.4372 15.294 47.8292 15.672 47.8292 16.162C47.8292 16.638 47.4372 17.03 46.9612 17.03ZM46.3172 25.5V18.654H47.6332V25.5H46.3172ZM52.4978 25.668C50.4818 25.668 49.0958 24.212 49.0958 22.084C49.0958 19.942 50.4538 18.458 52.4418 18.458C54.3878 18.458 55.6618 19.802 55.6618 21.832V22.322L50.3698 22.336C50.4678 23.778 51.2238 24.576 52.5258 24.576C53.5478 24.576 54.2198 24.156 54.4438 23.372H55.6758C55.3398 24.842 54.1918 25.668 52.4978 25.668ZM52.4418 19.564C51.2938 19.564 50.5658 20.25 50.3978 21.454H54.3458C54.3458 20.32 53.6038 19.564 52.4418 19.564ZM58.3693 25.5L56.1293 18.654H57.4873L58.6213 22.21C58.7753 22.714 58.9153 23.232 59.0413 23.834C59.1533 23.232 59.3353 22.658 59.4893 22.21L60.6373 18.654H61.9813L63.1153 22.21C63.2273 22.546 63.4513 23.344 63.5633 23.834C63.6753 23.288 63.8013 22.812 63.9973 22.21L65.1453 18.654H66.5173L64.1793 25.5H62.9333L61.7433 21.832C61.5193 21.146 61.3793 20.614 61.3093 20.236C61.2393 20.572 61.1133 21.02 60.8613 21.846L59.6713 25.5H58.3693ZM71.4735 28.566V18.654H72.6635L72.7615 19.886C73.2235 18.948 74.1475 18.458 75.2395 18.458C77.1995 18.458 78.4175 19.928 78.4175 22.028C78.4175 24.114 77.2695 25.682 75.2395 25.682C74.1475 25.682 73.2375 25.22 72.7895 24.38V28.566H71.4735ZM72.8035 22.084C72.8035 23.484 73.6155 24.492 74.9595 24.492C76.3035 24.492 77.1015 23.484 77.1015 22.084C77.1015 20.67 76.3035 19.662 74.9595 19.662C73.6155 19.662 72.8035 20.656 72.8035 22.084ZM83.788 18.598V19.802H83.2C81.954 19.802 81.184 20.558 81.184 21.874V25.5H79.868V18.668H81.1L81.184 19.704C81.464 18.99 82.15 18.514 83.088 18.514C83.326 18.514 83.522 18.542 83.788 18.598ZM84.3282 22.07C84.3282 19.956 85.8402 18.472 87.8982 18.472C89.9422 18.472 91.4542 19.956 91.4542 22.07C91.4542 24.184 89.9422 25.668 87.8982 25.668C85.8402 25.668 84.3282 24.184 84.3282 22.07ZM85.6582 22.07C85.6582 23.498 86.5682 24.492 87.8982 24.492C89.2142 24.492 90.1382 23.498 90.1382 22.07C90.1382 20.642 89.2142 19.648 87.8982 19.648C86.5682 19.648 85.6582 20.642 85.6582 22.07ZM97.504 25.5V19.76H94.466V25.5H93.15V19.76H92.142V18.654H93.15V17.562C93.15 15.882 94.06 15.196 95.25 15.196C95.502 15.196 95.81 15.21 96.062 15.252V16.386H95.474C94.676 16.386 94.466 16.82 94.466 17.562V18.654H98.82V25.5H97.504ZM98.162 16.974C97.686 16.974 97.322 16.61 97.322 16.134C97.322 15.658 97.686 15.294 98.162 15.294C98.624 15.294 98.988 15.658 98.988 16.134C98.988 16.61 98.624 16.974 98.162 16.974ZM102.034 25.5H100.718V15.196H102.034V25.5ZM106.926 25.668C104.91 25.668 103.524 24.212 103.524 22.084C103.524 19.942 104.882 18.458 106.87 18.458C108.816 18.458 110.09 19.802 110.09 21.832V22.322L104.798 22.336C104.896 23.778 105.652 24.576 106.954 24.576C107.976 24.576 108.648 24.156 108.872 23.372H110.104C109.768 24.842 108.62 25.668 106.926 25.668ZM106.87 19.564C105.722 19.564 104.994 20.25 104.826 21.454H108.774C108.774 20.32 108.032 19.564 106.87 19.564Z" fill="#096D49"/>
</svg>
