<svg width="20" height="20" viewBox="0 0 20 20" fill="none" xmlns="http://www.w3.org/2000/svg">
<path d="M10 18.8584C9.44167 18.8584 8.875 18.7334 8.43334 18.475L3.85 15.8334C1.98334 14.575 1.86667 14.3834 1.86667 12.4084V7.59169C1.86667 5.61669 1.975 5.42502 3.80834 4.18335L8.425 1.51669C9.3 1.00835 10.675 1.00835 11.55 1.51669L16.15 4.16669C18.0167 5.42502 18.1333 5.61669 18.1333 7.59169V12.4C18.1333 14.375 18.025 14.5667 16.1917 15.8084L11.575 18.475C11.125 18.7334 10.5583 18.8584 10 18.8584ZM10 2.39169C9.65 2.39169 9.30834 2.45835 9.06667 2.60002L4.48334 5.25002C3.125 6.16669 3.125 6.16669 3.125 7.59169V12.4C3.125 13.825 3.125 13.825 4.51667 14.7667L9.06667 17.3917C9.55834 17.675 10.45 17.675 10.9417 17.3917L15.525 14.7417C16.875 13.825 16.875 13.825 16.875 12.4V7.59169C16.875 6.16669 16.875 6.16669 15.4833 5.22502L10.9333 2.60002C10.6917 2.45835 10.35 2.39169 10 2.39169Z" fill="#1E1E1E"/>
<path d="M10 13.125C8.275 13.125 6.875 11.725 6.875 10C6.875 8.275 8.275 6.875 10 6.875C11.725 6.875 13.125 8.275 13.125 10C13.125 11.725 11.725 13.125 10 13.125ZM10 8.125C8.96667 8.125 8.125 8.96667 8.125 10C8.125 11.0333 8.96667 11.875 10 11.875C11.0333 11.875 11.875 11.0333 11.875 10C11.875 8.96667 11.0333 8.125 10 8.125Z" fill="#1E1E1E"/>
</svg>
