<svg width="16" height="16" viewBox="0 0 16 16" fill="none" xmlns="http://www.w3.org/2000/svg">
<path d="M12.2402 15.1667H3.7269C2.71357 15.1667 1.7869 14.6534 1.25357 13.7867C0.720236 12.92 0.67357 11.8667 1.1269 10.9534L2.27357 8.65337C2.6469 7.9067 3.2469 7.44003 3.92024 7.3667C4.59357 7.29337 5.28024 7.6267 5.80024 8.27337L5.9469 8.46003C6.24024 8.82003 6.58024 9.01337 6.91357 8.98003C7.2469 8.95337 7.55357 8.71337 7.78024 8.3067L9.04024 6.03337C9.56024 5.09337 10.2536 4.6067 11.0069 4.64003C11.7536 4.68003 12.3936 5.24003 12.8202 6.2267L14.9069 11.1C15.2936 12 15.2002 13.0267 14.6602 13.8467C14.1269 14.68 13.2202 15.1667 12.2402 15.1667ZM4.1069 8.3667C4.08024 8.3667 4.05357 8.3667 4.0269 8.37337C3.69357 8.4067 3.3869 8.67337 3.1669 9.1067L2.02024 11.4067C1.72024 12 1.75357 12.7 2.10024 13.2667C2.4469 13.8334 3.06024 14.1734 3.7269 14.1734H12.2336C12.8869 14.1734 13.4669 13.86 13.8269 13.3134C14.1869 12.7667 14.2469 12.1134 13.9869 11.5134L11.9002 6.64003C11.6469 6.04003 11.2936 5.67337 10.9536 5.66003C10.6402 5.64003 10.2336 5.97337 9.91357 6.54003L8.65357 8.81337C8.2669 9.5067 7.66024 9.94003 7.00024 10C6.34024 10.0534 5.6669 9.73337 5.1669 9.1067L5.02024 8.92003C4.74024 8.55337 4.42024 8.3667 4.1069 8.3667Z" fill="#096D49"/>
<path d="M4.64648 5.83325C3.27315 5.83325 2.14648 4.71325 2.14648 3.33325C2.14648 1.95325 3.26648 0.833252 4.64648 0.833252C6.02648 0.833252 7.14648 1.95325 7.14648 3.33325C7.14648 4.71325 6.02648 5.83325 4.64648 5.83325ZM4.64648 1.83325C3.81982 1.83325 3.14648 2.50659 3.14648 3.33325C3.14648 4.15992 3.81982 4.83325 4.64648 4.83325C5.47315 4.83325 6.14648 4.15992 6.14648 3.33325C6.14648 2.50659 5.47315 1.83325 4.64648 1.83325Z" fill="#096D49"/>
</svg>
