<svg width="26" height="21" viewBox="0 0 26 21" fill="none" xmlns="http://www.w3.org/2000/svg">
<path d="M24 0H2C1.46957 0 0.960859 0.201136 0.585786 0.55916C0.210714 0.917184 0 1.40277 0 1.90909V19.0909C0 19.5972 0.210714 20.0828 0.585786 20.4408C0.960859 20.7989 1.46957 21 2 21H3.67375C3.86301 21.0001 4.0484 20.9489 4.20838 20.8523C4.36836 20.7558 4.49636 20.6179 4.5775 20.4547C5.06377 19.4747 5.83151 18.6466 6.79143 18.0668C7.75135 17.4869 8.86401 17.1791 10 17.1791C11.136 17.1791 12.2486 17.4869 13.2086 18.0668C14.1685 18.6466 14.9362 19.4747 15.4225 20.4547C15.5036 20.6179 15.6316 20.7558 15.7916 20.8523C15.9516 20.9489 16.137 21.0001 16.3263 21H24C24.5304 21 25.0391 20.7989 25.4142 20.4408C25.7893 20.0828 26 19.5972 26 19.0909V1.90909C26 1.40277 25.7893 0.917184 25.4142 0.55916C25.0391 0.201136 24.5304 0 24 0ZM7 12.4091C7 11.8427 7.17595 11.2891 7.50559 10.8181C7.83524 10.3472 8.30377 9.98018 8.85195 9.76344C9.40013 9.54669 10.0033 9.48998 10.5853 9.60048C11.1672 9.71097 11.7018 9.98371 12.1213 10.3842C12.5409 10.7847 12.8266 11.2949 12.9424 11.8504C13.0581 12.4059 12.9987 12.9817 12.7716 13.505C12.5446 14.0282 12.1601 14.4755 11.6667 14.7901C11.1734 15.1048 10.5933 15.2727 10 15.2727C9.20435 15.2727 8.44129 14.971 7.87868 14.434C7.31607 13.897 7 13.1686 7 12.4091ZM24 19.0909H16.9287C16.0937 17.7204 14.8349 16.6301 13.325 15.9695C14.082 15.3262 14.6162 14.4784 14.857 13.5385C15.0977 12.5987 15.0335 11.6112 14.6729 10.707C14.3122 9.80283 13.6723 9.02459 12.8377 8.47549C12.0032 7.92638 11.0136 7.63234 10 7.63234C8.98642 7.63234 7.99678 7.92638 7.16226 8.47549C6.32774 9.02459 5.68776 9.80283 5.32715 10.707C4.96654 11.6112 4.90234 12.5987 5.14305 13.5385C5.38376 14.4784 5.91802 15.3262 6.675 15.9695C5.16513 16.6301 3.90633 17.7204 3.07125 19.0909H2V1.90909H24V19.0909ZM4 6.68182V4.77273C4 4.51957 4.10536 4.27677 4.29289 4.09776C4.48043 3.91875 4.73478 3.81818 5 3.81818H21C21.2652 3.81818 21.5196 3.91875 21.7071 4.09776C21.8946 4.27677 22 4.51957 22 4.77273V16.2273C22 16.4804 21.8946 16.7232 21.7071 16.9022C21.5196 17.0813 21.2652 17.1818 21 17.1818H19C18.7348 17.1818 18.4804 17.0813 18.2929 16.9022C18.1054 16.7232 18 16.4804 18 16.2273C18 15.9741 18.1054 15.7313 18.2929 15.5523C18.4804 15.3733 18.7348 15.2727 19 15.2727H20V5.72727H6V6.68182C6 6.93498 5.89464 7.17777 5.70711 7.35678C5.51957 7.5358 5.26522 7.63636 5 7.63636C4.73478 7.63636 4.48043 7.5358 4.29289 7.35678C4.10536 7.17777 4 6.93498 4 6.68182Z" fill="black"/>
</svg>
