<svg width="24" height="25" viewBox="0 0 24 25" fill="none" xmlns="http://www.w3.org/2000/svg">
<g clip-path="url(#clip0_10664_18212)">
<path d="M19.5 9.87497C19.5 8.42359 19.0788 7.0034 18.2877 5.78662C17.4965 4.56985 16.3692 3.60879 15.0427 3.01998C13.7161 2.43117 12.2472 2.23992 10.814 2.46943C9.38092 2.69893 8.04518 3.33933 6.96881 4.31295C5.89245 5.28657 5.1217 6.55159 4.75005 7.95458C4.37841 9.35757 4.42182 10.8383 4.87504 12.2171C5.32825 13.5959 6.1718 14.8135 7.30336 15.7224C8.43493 16.6313 9.8059 17.1923 11.25 17.3375V19.625H8.25C8.05109 19.625 7.86032 19.704 7.71967 19.8446C7.57902 19.9853 7.5 20.1761 7.5 20.375C7.5 20.5739 7.57902 20.7646 7.71967 20.9053C7.86032 21.046 8.05109 21.125 8.25 21.125H11.25V23.375C11.25 23.5739 11.329 23.7646 11.4697 23.9053C11.6103 24.046 11.8011 24.125 12 24.125C12.1989 24.125 12.3897 24.046 12.5303 23.9053C12.671 23.7646 12.75 23.5739 12.75 23.375V21.125H15.75C15.9489 21.125 16.1397 21.046 16.2803 20.9053C16.421 20.7646 16.5 20.5739 16.5 20.375C16.5 20.1761 16.421 19.9853 16.2803 19.8446C16.1397 19.704 15.9489 19.625 15.75 19.625H12.75V17.3375C14.5991 17.1493 16.3127 16.2822 17.5595 14.9038C18.8063 13.5254 19.4977 11.7336 19.5 9.87497ZM6 9.87497C6 8.68828 6.35189 7.52824 7.01118 6.54155C7.67047 5.55485 8.60754 4.78582 9.7039 4.33169C10.8003 3.87757 12.0067 3.75875 13.1705 3.99026C14.3344 4.22177 15.4035 4.79322 16.2426 5.63233C17.0818 6.47145 17.6532 7.54054 17.8847 8.70443C18.1162 9.86832 17.9974 11.0747 17.5433 12.1711C17.0892 13.2674 16.3201 14.2045 15.3334 14.8638C14.3467 15.5231 13.1867 15.875 12 15.875C10.4092 15.8732 8.88412 15.2405 7.75928 14.1157C6.63444 12.9909 6.00174 11.4657 6 9.87497Z" fill="black"/>
</g>
<defs>
<clipPath id="clip0_10664_18212">
<rect width="24" height="24" fill="white" transform="translate(0 0.875)"/>
</clipPath>
</defs>
</svg>
