<svg width="24" height="25" viewBox="0 0 24 25" fill="none" xmlns="http://www.w3.org/2000/svg">
<path d="M20.25 3.875H15.75C15.5511 3.875 15.3603 3.95402 15.2197 4.09467C15.079 4.23532 15 4.42609 15 4.625C15 4.82391 15.079 5.01468 15.2197 5.15533C15.3603 5.29598 15.5511 5.375 15.75 5.375H18.4397L14.4956 9.31906C13.0058 8.10132 11.105 7.50273 9.1863 7.64709C7.26758 7.79146 5.47774 8.66775 4.18696 10.0947C2.89618 11.5217 2.20321 13.3901 2.25138 15.3137C2.29954 17.2372 3.08515 19.0687 4.44573 20.4293C5.8063 21.7898 7.63775 22.5754 9.56129 22.6236C11.4848 22.6718 13.3533 21.9788 14.7803 20.688C16.2072 19.3972 17.0835 17.6074 17.2279 15.6887C17.3723 13.77 16.7737 11.8691 15.5559 10.3794L19.5 6.43625V9.125C19.5 9.32391 19.579 9.51468 19.7197 9.65533C19.8603 9.79598 20.0511 9.875 20.25 9.875C20.4489 9.875 20.6397 9.79598 20.7803 9.65533C20.921 9.51468 21 9.32391 21 9.125V4.625C21 4.42609 20.921 4.23532 20.7803 4.09467C20.6397 3.95402 20.4489 3.875 20.25 3.875ZM13.9912 19.3709C13.152 20.2098 12.0829 20.781 10.9191 21.0123C9.75528 21.2435 8.54902 21.1246 7.45282 20.6704C6.35662 20.2162 5.41971 19.4471 4.76054 18.4605C4.10137 17.4738 3.74954 16.3139 3.74954 15.1273C3.74954 13.9408 4.10137 12.7808 4.76054 11.7942C5.41971 10.8076 6.35662 10.0385 7.45282 9.58432C8.54902 9.13012 9.75528 9.01114 10.9191 9.24243C12.0829 9.47373 13.152 10.0449 13.9912 10.8837C15.1147 12.0103 15.7457 13.5363 15.7457 15.1273C15.7457 16.7183 15.1147 18.2444 13.9912 19.3709Z" fill="black"/>
</svg>
