<svg width="51" height="50" viewBox="0 0 51 50" fill="none" xmlns="http://www.w3.org/2000/svg">
<path d="M43.0314 7.75H33.4689C33.0462 7.75 32.6408 7.90804 32.342 8.18934C32.043 8.47064 31.8751 8.85218 31.8751 9.25C31.8751 9.64782 32.043 10.0294 32.342 10.3107C32.6408 10.592 33.0462 10.75 33.4689 10.75H39.1845L30.8033 18.6381C27.6374 16.2026 23.5982 15.0055 19.521 15.2942C15.4437 15.5829 11.6403 17.3355 8.89741 20.1894C6.1545 23.0434 4.68194 26.7802 4.7843 30.6274C4.88664 34.4744 6.55606 38.1374 9.44729 40.8586C12.3385 43.5796 16.2303 45.1508 20.3179 45.2472C24.4053 45.3436 28.3759 43.9576 31.4083 41.376C34.4404 38.7944 36.3026 35.2148 36.6094 31.3774C36.9163 27.54 35.6442 23.7382 33.0564 20.7588L41.4376 12.8725V18.25C41.4376 18.6478 41.6055 19.0294 41.9045 19.3107C42.2033 19.592 42.6087 19.75 43.0314 19.75C43.454 19.75 43.8595 19.592 44.1583 19.3107C44.4572 19.0294 44.6251 18.6478 44.6251 18.25V9.25C44.6251 8.85218 44.4572 8.47064 44.1583 8.18934C43.8595 7.90804 43.454 7.75 43.0314 7.75ZM29.7314 38.7418C27.9481 40.4196 25.6763 41.562 23.2032 42.0246C20.7301 42.487 18.1668 42.2492 15.8374 41.3408C13.5079 40.4324 11.517 38.8942 10.1163 36.921C8.71553 34.9476 7.96789 32.6278 7.96789 30.2546C7.96789 27.8816 8.71553 25.5616 10.1163 23.5884C11.517 21.6152 13.5079 20.077 15.8374 19.1686C18.1668 18.2602 20.7301 18.0223 23.2032 18.4849C25.6763 18.9475 27.9481 20.0898 29.7314 21.7674C32.1189 24.0206 33.4597 27.0726 33.4597 30.2546C33.4597 33.4366 32.1189 36.4888 29.7314 38.7418Z" fill="white"/>
</svg>
