<svg width="51" height="50" viewBox="0 0 51 50" fill="none" xmlns="http://www.w3.org/2000/svg">
<mask id="mask0_781_7493" style="mask-type:luminance" maskUnits="userSpaceOnUse" x="0" y="1" width="51" height="49">
<path d="M51 1.75H0V49.75H51V1.75Z" fill="white"/>
</mask>
<g mask="url(#mask0_781_7493)">
<path d="M41.4375 19.7498C41.4375 16.8471 40.5425 14.0067 38.8614 11.5731C37.1801 9.13958 34.7845 7.21746 31.9657 6.03984C29.1467 4.86222 26.0253 4.47972 22.9798 4.93874C19.9345 5.39774 17.096 6.67854 14.8087 8.62578C12.5215 10.573 10.8836 13.1031 10.0939 15.909C9.30412 18.715 9.39637 21.6765 10.3595 24.4341C11.3225 27.1917 13.1151 29.6269 15.5196 31.4447C17.9242 33.2625 20.8375 34.3845 23.9062 34.6749V39.2499H17.5312C17.1086 39.2499 16.7032 39.4079 16.4043 39.6891C16.1054 39.9705 15.9375 40.3521 15.9375 40.7499C15.9375 41.1477 16.1054 41.5291 16.4043 41.8105C16.7032 42.0919 17.1086 42.2499 17.5312 42.2499H23.9062V46.7499C23.9062 47.1477 24.0741 47.5291 24.3731 47.8105C24.6719 48.0919 25.0773 48.2499 25.5 48.2499C25.9227 48.2499 26.3281 48.0919 26.6269 47.8105C26.9259 47.5291 27.0938 47.1477 27.0938 46.7499V42.2499H33.4688C33.8914 42.2499 34.2969 42.0919 34.5956 41.8105C34.8946 41.5291 35.0625 41.1477 35.0625 40.7499C35.0625 40.3521 34.8946 39.9705 34.5956 39.6891C34.2969 39.4079 33.8914 39.2499 33.4688 39.2499H27.0938V34.6749C31.0231 34.2985 34.6645 32.5643 37.3139 29.8075C39.9634 27.0507 41.4326 23.4671 41.4375 19.7498ZM12.75 19.7498C12.75 17.3764 13.4978 15.0564 14.8988 13.083C16.2997 11.1096 18.291 9.57152 20.6208 8.66326C22.9506 7.75502 25.5142 7.51738 27.9873 7.9804C30.4606 8.44342 32.7324 9.58632 34.5155 11.2645C36.2988 12.9428 37.5131 15.081 38.005 17.4087C38.4969 19.7365 38.2445 22.1493 37.2795 24.3421C36.3146 26.5347 34.6802 28.4089 32.5835 29.7275C30.4867 31.0461 28.0217 31.7499 25.5 31.7499C22.1195 31.7463 18.8788 30.4809 16.4885 28.2313C14.0982 25.9817 12.7537 22.9313 12.75 19.7498Z" fill="white"/>
</g>
</svg>
