<svg width="24" height="25" viewBox="0 0 24 25" fill="none" xmlns="http://www.w3.org/2000/svg">
<path d="M17.9998 8.78502C17.9698 8.78502 17.9498 8.78502 17.9198 8.78502H17.8698C15.9798 8.72502 14.5698 7.26501 14.5698 5.46501C14.5698 3.62501 16.0698 2.13501 17.8998 2.13501C19.7298 2.13501 21.2298 3.63501 21.2298 5.46501C21.2198 7.27501 19.8098 8.73501 18.0098 8.79501C18.0098 8.78501 18.0098 8.78502 17.9998 8.78502ZM17.8998 3.62502C16.8898 3.62502 16.0698 4.44502 16.0698 5.45502C16.0698 6.44502 16.8398 7.24502 17.8298 7.28502C17.8398 7.27502 17.9198 7.27502 18.0098 7.28502C18.9798 7.23502 19.7298 6.43502 19.7398 5.45502C19.7398 4.44502 18.9198 3.62502 17.8998 3.62502Z" fill="#1E1E1E"/>
<path d="M18.01 16.155C17.62 16.155 17.23 16.125 16.84 16.055C16.43 15.985 16.16 15.595 16.23 15.185C16.3 14.775 16.69 14.505 17.1 14.575C18.33 14.785 19.63 14.555 20.5 13.975C20.97 13.665 21.22 13.275 21.22 12.885C21.22 12.495 20.96 12.115 20.5 11.805C19.63 11.225 18.31 10.995 17.07 11.215C16.66 11.295 16.27 11.015 16.2 10.605C16.13 10.195 16.4 9.80503 16.81 9.73503C18.44 9.44503 20.13 9.75502 21.33 10.555C22.21 11.145 22.72 11.985 22.72 12.885C22.72 13.775 22.22 14.625 21.33 15.225C20.42 15.825 19.24 16.155 18.01 16.155Z" fill="#1E1E1E"/>
<path d="M5.96998 8.785C5.95998 8.785 5.94998 8.785 5.94998 8.785C4.14998 8.725 2.73998 7.265 2.72998 5.465C2.72998 3.625 4.22998 2.125 6.05998 2.125C7.88998 2.125 9.38998 3.625 9.38998 5.455C9.38998 7.265 7.97998 8.725 6.17998 8.785L5.96998 8.035L6.03998 8.785C6.01998 8.785 5.98998 8.785 5.96998 8.785ZM6.06998 7.285C6.12998 7.285 6.17998 7.285 6.23998 7.295C7.12998 7.255 7.90998 6.455 7.90998 5.465C7.90998 4.455 7.08998 3.63499 6.07998 3.63499C5.06998 3.63499 4.24998 4.455 4.24998 5.465C4.24998 6.445 5.00998 7.235 5.97998 7.295C5.98998 7.285 6.02998 7.285 6.06998 7.285Z" fill="#1E1E1E"/>
<path d="M5.96 16.155C4.73 16.155 3.55 15.825 2.64 15.225C1.76 14.635 1.25 13.785 1.25 12.885C1.25 11.995 1.76 11.145 2.64 10.555C3.84 9.75502 5.53 9.44503 7.16 9.73503C7.57 9.80503 7.84 10.195 7.77 10.605C7.7 11.015 7.31 11.295 6.9 11.215C5.66 10.995 4.35 11.225 3.47 11.805C3 12.115 2.75 12.495 2.75 12.885C2.75 13.275 3.01 13.665 3.47 13.975C4.34 14.555 5.64 14.785 6.87 14.575C7.28 14.505 7.67 14.785 7.74 15.185C7.81 15.595 7.54 15.985 7.13 16.055C6.74 16.125 6.35 16.155 5.96 16.155Z" fill="#1E1E1E"/>
<path d="M11.9998 16.255C11.9698 16.255 11.9498 16.255 11.9198 16.255H11.8698C9.97982 16.195 8.56982 14.735 8.56982 12.935C8.56982 11.095 10.0698 9.60498 11.8998 9.60498C13.7298 9.60498 15.2298 11.105 15.2298 12.935C15.2198 14.745 13.8098 16.205 12.0098 16.265C12.0098 16.255 12.0098 16.255 11.9998 16.255ZM11.8998 11.095C10.8898 11.095 10.0698 11.915 10.0698 12.925C10.0698 13.915 10.8398 14.715 11.8298 14.755C11.8398 14.745 11.9198 14.745 12.0098 14.755C12.9798 14.705 13.7298 13.905 13.7398 12.925C13.7398 11.925 12.9198 11.095 11.8998 11.095Z" fill="#1E1E1E"/>
<path d="M11.9998 23.635C10.7998 23.635 9.59978 23.325 8.66978 22.695C7.78978 22.105 7.27979 21.265 7.27979 20.365C7.27979 19.475 7.77978 18.615 8.66978 18.025C10.5398 16.785 13.4698 16.785 15.3298 18.025C16.2098 18.615 16.7198 19.455 16.7198 20.355C16.7198 21.245 16.2198 22.105 15.3298 22.695C14.3998 23.315 13.1998 23.635 11.9998 23.635ZM9.49979 19.285C9.02979 19.595 8.77979 19.985 8.77979 20.375C8.77979 20.765 9.03979 21.145 9.49979 21.455C10.8498 22.365 13.1398 22.365 14.4898 21.455C14.9598 21.145 15.2098 20.755 15.2098 20.365C15.2098 19.975 14.9498 19.595 14.4898 19.285C13.1498 18.375 10.8598 18.385 9.49979 19.285Z" fill="#1E1E1E"/>
</svg>
