<svg width="774" height="150" viewBox="0 0 774 150" fill="none" xmlns="http://www.w3.org/2000/svg">
<g opacity="0.15" clip-path="url(#clip0_951_4340)">
<path d="M343.632 -104.153C428.676 -243.196 558.751 -119.126 608.721 8.97538C640.319 81.5714 729.472 69.1597 768.573 159.129C807.674 249.099 662.783 227.346 720.661 366.724C778.54 506.101 569.463 596.896 485.151 504.703C400.839 412.511 396.067 462.385 250.9 423.649C105.732 384.914 54.0072 150.263 180.574 108.73C307.141 67.1968 251.572 46.3632 343.632 -104.153Z" stroke="white" stroke-opacity="0.5" stroke-width="3"/>
<path d="M352.054 -79.0274C430.044 -206.7 551.495 -93.5603 597.485 24.9428C626.726 92.8136 709.38 82.4896 745.418 165.414C782.259 250.189 649.391 229.906 702.032 358.435C754.678 487.359 562.304 572.995 483.1 486.274C404.351 400.069 399.609 447.032 265.607 410.428C131.603 373.824 83.5751 157.788 200.688 118.229C316.519 79.795 267.233 59.9214 352.054 -79.0274Z" stroke="white" stroke-opacity="0.5" stroke-width="3"/>
<path d="M360.474 -53.8994C431.411 -170.203 544.239 -67.992 586.249 40.9121C613.133 104.058 689.288 95.8222 722.263 171.701C756.844 251.283 636 232.469 683.403 350.15C730.816 468.619 555.144 549.096 481.049 467.845C407.862 387.63 403.15 431.682 280.312 397.209C157.475 362.736 113.142 165.316 220.799 127.731C325.895 92.3961 282.894 73.4817 360.474 -53.8994Z" stroke="white" stroke-opacity="0.5" stroke-width="3"/>
<path d="M368.895 -28.7713C432.778 -133.704 536.981 -42.4242 575.012 56.8817C599.539 115.302 669.195 109.155 699.108 177.989C731.429 252.376 622.608 235.032 664.773 341.864C706.953 449.88 547.984 525.197 478.997 449.418C411.373 375.19 406.69 416.332 295.018 383.99C183.346 351.649 142.709 172.844 240.912 137.233C335.271 104.997 298.554 87.0427 368.895 -28.7713Z" stroke="white" stroke-opacity="0.5" stroke-width="3"/>
<path d="M377.315 -3.64241C434.145 -97.2055 529.724 -16.8546 563.775 72.8524C585.945 126.547 649.102 122.488 675.952 184.277C706.013 253.47 609.216 237.597 646.143 333.579C683.091 431.142 540.823 501.299 476.945 430.992C414.882 362.751 410.231 400.984 309.723 370.773C209.217 340.563 172.276 180.373 261.023 146.735C344.647 117.599 314.214 100.604 377.315 -3.64241Z" stroke="white" stroke-opacity="0.5" stroke-width="3"/>
<path d="M385.345 21.8297C435.122 -60.3634 522.076 9.05721 552.148 89.1661C571.961 138.137 628.619 136.165 652.406 190.908C680.208 254.908 595.433 240.504 627.123 325.638C658.838 412.747 533.272 477.745 474.503 412.909C418.003 350.655 413.381 385.977 324.039 357.899C234.697 329.82 201.452 188.245 280.744 156.581C353.632 130.544 329.484 114.509 385.345 21.8297Z" stroke="white" stroke-opacity="0.5" stroke-width="3"/>
<path d="M392.913 47.7084C435.636 -23.1155 513.967 35.3753 540.059 105.885C557.515 150.131 607.674 150.246 628.397 197.945C653.939 256.751 581.19 243.818 607.641 318.102C634.123 394.757 525.26 454.596 471.599 395.231C420.661 338.966 416.068 371.377 337.892 345.429C259.715 319.482 230.166 196.522 300.004 166.833C362.156 143.894 344.292 128.819 392.913 47.7084Z" stroke="white" stroke-opacity="0.5" stroke-width="3"/>
<path d="M400.456 73.6096C436.126 14.1555 505.833 61.7173 527.945 122.629C543.044 162.149 586.704 164.353 604.365 205.006C627.647 258.617 566.92 247.154 588.134 310.59C609.384 376.792 517.222 431.471 468.67 377.577C423.295 327.3 418.733 356.8 351.72 332.985C284.708 309.169 258.856 204.824 319.239 177.108C370.655 157.269 359.075 143.154 400.456 73.6096Z" stroke="white" stroke-opacity="0.5" stroke-width="3"/>
<path d="M407.962 99.5441C436.579 51.4597 497.661 88.0909 515.794 139.404C528.537 174.199 565.697 178.49 580.295 212.099C601.317 260.516 552.614 250.523 568.59 303.11C584.606 358.858 509.147 408.378 465.704 359.956C425.891 315.666 421.358 342.257 365.512 320.571C309.665 298.886 287.509 213.158 338.436 187.416C379.117 170.676 373.822 157.521 407.962 99.5441Z" stroke="white" stroke-opacity="0.5" stroke-width="3"/>
<path d="M415.416 125.527C436.98 88.8132 489.437 114.515 503.59 156.229C513.977 186.3 544.637 192.679 556.173 219.242C574.935 262.466 538.256 253.943 548.994 295.681C559.778 340.974 501.02 385.336 462.685 342.384C428.435 304.083 423.932 327.762 379.251 308.209C334.569 288.655 316.109 221.542 357.581 197.773C387.526 184.133 388.515 171.937 415.416 125.527Z" stroke="white" stroke-opacity="0.5" stroke-width="3"/>
<path d="M422.788 151.587C437.299 126.242 481.132 141.014 491.307 173.13C499.335 198.475 523.497 206.942 531.97 226.46C548.471 264.489 523.815 257.437 529.316 288.326C534.868 323.166 492.812 362.367 459.586 324.887C430.898 292.574 426.425 313.343 392.908 295.92C359.392 278.499 344.629 230 376.645 208.206C395.854 197.664 403.128 186.428 422.788 151.587Z" stroke="white" stroke-opacity="0.5" stroke-width="3"/>
</g>
<defs>
<clipPath id="clip0_951_4340">
<rect width="485" height="603" fill="white" transform="translate(453.033 -214) rotate(48.7029)"/>
</clipPath>
</defs>
</svg>
