<svg width="28" height="22" viewBox="0 0 28 22" fill="none" xmlns="http://www.w3.org/2000/svg">
<path d="M27.3806 12.5054C27.2843 12.5824 27.1748 12.6384 27.0582 12.6702C26.9416 12.7021 26.8202 12.7091 26.7011 12.691C26.5819 12.6728 26.4673 12.6298 26.3637 12.5645C26.2601 12.4991 26.1697 12.4126 26.0974 12.31C25.545 11.5184 24.8259 10.8761 23.9981 10.4349C23.1703 9.99364 22.2568 9.76576 21.3313 9.76959C21.1511 9.76957 20.9748 9.71291 20.8246 9.60668C20.6745 9.50045 20.557 9.34938 20.4869 9.17236C20.4393 9.05215 20.4148 8.923 20.4148 8.79253C20.4148 8.66205 20.4393 8.5329 20.4869 8.41269C20.557 8.23567 20.6745 8.0846 20.8246 7.97837C20.9748 7.87214 21.1511 7.81548 21.3313 7.81546C21.8456 7.81541 22.3495 7.66162 22.7859 7.37156C23.2223 7.08149 23.5737 6.66678 23.8 6.17453C24.0264 5.68228 24.1187 5.13222 24.0666 4.58683C24.0144 4.04144 23.8198 3.52258 23.5048 3.08918C23.1899 2.65579 22.7672 2.32524 22.2849 2.13507C21.8025 1.94491 21.2798 1.90275 20.7761 2.01339C20.2724 2.12403 19.808 2.38303 19.4354 2.76097C19.0629 3.13892 18.7973 3.62066 18.6687 4.15147C18.6386 4.27577 18.5858 4.39253 18.5134 4.4951C18.441 4.59766 18.3503 4.68401 18.2466 4.74922C18.1429 4.81444 18.0281 4.85723 17.9089 4.87516C17.7896 4.89309 17.6682 4.88581 17.5516 4.85373C17.435 4.82166 17.3255 4.76541 17.2293 4.68821C17.1331 4.611 17.0521 4.51436 16.9909 4.40378C16.9297 4.2932 16.8896 4.17087 16.8727 4.04375C16.8559 3.91664 16.8628 3.78724 16.8928 3.66294C17.0713 2.92686 17.4084 2.24534 17.8775 1.6726C18.3465 1.09986 18.9344 0.651714 19.5945 0.363819C20.2545 0.0759237 20.9685 -0.043774 21.6796 0.0142497C22.3908 0.0722733 23.0793 0.306417 23.6906 0.69805C24.3019 1.08968 24.819 1.62799 25.2008 2.27015C25.5826 2.91231 25.8185 3.6406 25.8898 4.39705C25.961 5.15351 25.8657 5.91726 25.6114 6.62753C25.357 7.33781 24.9507 7.975 24.4247 8.48841C25.671 9.06366 26.7544 9.9765 27.5674 11.1363C27.6396 11.2392 27.692 11.3563 27.7217 11.4808C27.7514 11.6054 27.7578 11.7349 27.7405 11.8621C27.7231 11.9893 27.6824 12.1116 27.6207 12.222C27.5589 12.3323 27.4773 12.4286 27.3806 12.5054ZM21.2076 20.0288C21.2739 20.14 21.3184 20.2643 21.3385 20.3944C21.3585 20.5244 21.3537 20.6574 21.3243 20.7854C21.2949 20.9134 21.2415 21.0337 21.1673 21.1391C21.0932 21.2446 20.9998 21.3329 20.8928 21.3988C20.7857 21.4648 20.6673 21.507 20.5446 21.5229C20.4219 21.5388 20.2974 21.528 20.1787 21.4913C20.06 21.4546 19.9494 21.3927 19.8538 21.3092C19.7581 21.2258 19.6792 21.1226 19.6219 21.0058C19.0445 19.9636 18.2222 19.0999 17.2361 18.4999C16.25 17.8999 15.1342 17.5843 13.9988 17.5843C12.8634 17.5843 11.7476 17.8999 10.7615 18.4999C9.77537 19.0999 8.95306 19.9636 8.37568 21.0058C8.31838 21.1226 8.23952 21.2258 8.14384 21.3092C8.04815 21.3927 7.93762 21.4546 7.8189 21.4913C7.70018 21.528 7.57572 21.5388 7.45301 21.5229C7.33029 21.507 7.21186 21.4648 7.10484 21.3988C6.99782 21.3329 6.90441 21.2446 6.83025 21.1391C6.75608 21.0337 6.70269 20.9134 6.67328 20.7854C6.64387 20.6574 6.63905 20.5244 6.65912 20.3944C6.67918 20.2643 6.72371 20.14 6.79003 20.0288C7.67863 18.4012 9.03354 17.1204 10.6556 16.3745C9.74288 15.6296 9.07207 14.5984 8.7375 13.426C8.40292 12.2537 8.42139 10.999 8.79033 9.83836C9.15926 8.67774 9.8601 7.66955 10.7943 6.95549C11.7286 6.24144 12.8492 5.85742 13.9988 5.85742C15.1484 5.85742 16.269 6.24144 17.2033 6.95549C18.1375 7.66955 18.8383 8.67774 19.2073 9.83836C19.5762 10.999 19.5947 12.2537 19.2601 13.426C18.9255 14.5984 18.2547 15.6296 17.342 16.3745C18.9641 17.1204 20.319 18.4012 21.2076 20.0288ZM13.9988 15.632C14.7239 15.632 15.4327 15.4028 16.0357 14.9733C16.6386 14.5439 17.1085 13.9335 17.386 13.2193C17.6635 12.5052 17.7361 11.7194 17.5946 10.9613C17.4531 10.2031 17.104 9.50674 16.5912 8.96016C16.0785 8.41358 15.4252 8.04136 14.714 7.89056C14.0029 7.73976 13.2657 7.81715 12.5958 8.11296C11.9259 8.40877 11.3533 8.9097 10.9504 9.55241C10.5476 10.1951 10.3325 10.9507 10.3325 11.7237C10.3325 12.7603 10.7188 13.7543 11.4064 14.4873C12.0939 15.2202 13.0264 15.632 13.9988 15.632ZM7.58285 8.79253C7.58285 8.53339 7.48629 8.28487 7.3144 8.10164C7.14251 7.9184 6.90938 7.81546 6.66629 7.81546C6.15202 7.81541 5.64806 7.66162 5.21167 7.37156C4.77528 7.08149 4.42394 6.66678 4.19756 6.17453C3.97119 5.68228 3.87885 5.13222 3.93103 4.58683C3.98322 4.04144 4.17784 3.52258 4.49278 3.08918C4.80773 2.65579 5.23038 2.32524 5.71272 2.13507C6.19506 1.94491 6.71777 1.90275 7.22146 2.01339C7.72515 2.12403 8.18964 2.38303 8.56217 2.76097C8.9347 3.13892 9.20034 3.62066 9.32891 4.15147C9.38968 4.4025 9.54151 4.61752 9.751 4.74922C9.96049 4.88092 10.2105 4.91852 10.446 4.85373C10.6815 4.78895 10.8832 4.6271 11.0067 4.40378C11.1303 4.18046 11.1655 3.91397 11.1047 3.66294C10.9263 2.92686 10.5892 2.24534 10.1201 1.6726C9.65113 1.09986 9.0632 0.651714 8.40312 0.363819C7.74305 0.0759237 7.02905 -0.043774 6.31795 0.0142497C5.60684 0.0722733 4.91825 0.306417 4.30697 0.69805C3.69569 1.08968 3.17859 1.62799 2.79681 2.27015C2.41504 2.91231 2.17912 3.6406 2.10784 4.39705C2.03656 5.15351 2.13188 5.91726 2.38622 6.62753C2.64056 7.33781 3.04689 7.975 3.57289 8.48841C2.32783 9.0642 1.24564 9.977 0.43366 11.1363C0.287656 11.3436 0.224884 11.6042 0.259154 11.8609C0.293425 12.1175 0.42193 12.3491 0.6164 12.5048C0.81087 12.6604 1.05538 12.7273 1.29613 12.6908C1.53688 12.6543 1.75416 12.5173 1.90016 12.31C2.4526 11.5184 3.17168 10.8761 3.9995 10.4349C4.82732 9.99364 5.74076 9.76576 6.66629 9.76959C6.90938 9.76959 7.14251 9.66665 7.3144 9.48341C7.48629 9.30018 7.58285 9.05166 7.58285 8.79253Z" fill="black"/>
</svg>
