<svg width="16" height="4" viewBox="0 0 16 4" fill="none" xmlns="http://www.w3.org/2000/svg">
<path d="M9.375 2C9.375 2.2225 9.30902 2.44001 9.1854 2.62502C9.06179 2.81002 8.88609 2.95422 8.68052 3.03936C8.47495 3.12451 8.24875 3.14679 8.03052 3.10338C7.81229 3.05998 7.61184 2.95283 7.45451 2.79549C7.29717 2.63816 7.19003 2.43771 7.14662 2.21948C7.10321 2.00125 7.12549 1.77505 7.21064 1.56948C7.29578 1.36391 7.43998 1.18821 7.62498 1.0646C7.80999 0.94098 8.0275 0.875 8.25 0.875C8.54837 0.875 8.83452 0.993526 9.0455 1.2045C9.25647 1.41548 9.375 1.70163 9.375 2ZM14.625 0.875C14.4025 0.875 14.185 0.94098 14 1.0646C13.815 1.18821 13.6708 1.36391 13.5856 1.56948C13.5005 1.77505 13.4782 2.00125 13.5216 2.21948C13.565 2.43771 13.6722 2.63816 13.8295 2.79549C13.9868 2.95283 14.1873 3.05998 14.4055 3.10338C14.6238 3.14679 14.85 3.12451 15.0555 3.03936C15.2611 2.95422 15.4368 2.81002 15.5604 2.62502C15.684 2.44001 15.75 2.2225 15.75 2C15.75 1.70163 15.6315 1.41548 15.4205 1.2045C15.2095 0.993526 14.9234 0.875 14.625 0.875ZM1.875 0.875C1.6525 0.875 1.43499 0.94098 1.24998 1.0646C1.06498 1.18821 0.920785 1.36391 0.835636 1.56948C0.750487 1.77505 0.728209 2.00125 0.771617 2.21948C0.815025 2.43771 0.922171 2.63816 1.07951 2.79549C1.23684 2.95283 1.4373 3.05998 1.65552 3.10338C1.87375 3.14679 2.09995 3.12451 2.30552 3.03936C2.51109 2.95422 2.68679 2.81002 2.8104 2.62502C2.93402 2.44001 3 2.2225 3 2C3 1.70163 2.88147 1.41548 2.6705 1.2045C2.45952 0.993526 2.17337 0.875 1.875 0.875Z" fill="black"/>
</svg>
