<svg width="16" height="15" viewBox="0 0 16 15" fill="none" xmlns="http://www.w3.org/2000/svg">
<path d="M15.7348 4.55867L8.23484 0.558667C8.1625 0.520147 8.0818 0.5 7.99984 0.5C7.91789 0.5 7.83718 0.520147 7.76484 0.558667L0.264844 4.55867C0.184846 4.6013 0.117944 4.66488 0.0712937 4.7426C0.0246433 4.82033 0 4.90927 0 4.99992C0 5.09057 0.0246433 5.17951 0.0712937 5.25723C0.117944 5.33495 0.184846 5.39853 0.264844 5.44117L1.99984 6.36679V9.39304C1.99932 9.63864 2.08971 9.87574 2.25359 10.0587C3.07234 10.9705 4.90672 12.4999 7.99984 12.4999C9.02544 12.5084 10.0434 12.3226 10.9998 11.9524V13.9999C10.9998 14.1325 11.0525 14.2597 11.1463 14.3535C11.2401 14.4472 11.3672 14.4999 11.4998 14.4999C11.6325 14.4999 11.7596 14.4472 11.8534 14.3535C11.9472 14.2597 11.9998 14.1325 11.9998 13.9999V11.4693C12.6518 11.0929 13.241 10.617 13.7461 10.0587C13.91 9.87574 14.0004 9.63864 13.9998 9.39304V6.36679L15.7348 5.44117C15.8148 5.39853 15.8817 5.33495 15.9284 5.25723C15.975 5.17951 15.9997 5.09057 15.9997 4.99992C15.9997 4.90927 15.975 4.82033 15.9284 4.7426C15.8817 4.66488 15.8148 4.6013 15.7348 4.55867ZM7.99984 11.4999C5.29547 11.4999 3.70484 10.1787 2.99984 9.39304V6.89992L7.76484 9.44117C7.83718 9.47969 7.91789 9.49983 7.99984 9.49983C8.0818 9.49983 8.1625 9.47969 8.23484 9.44117L10.9998 7.96679V10.863C10.2123 11.2305 9.21984 11.4999 7.99984 11.4999ZM12.9998 9.39054C12.7001 9.72313 12.3648 10.0218 11.9998 10.2812V7.43304L12.9998 6.89992V9.39054ZM11.7498 6.43367L11.7361 6.42554L8.23609 4.55867C8.11932 4.49902 7.98379 4.48764 7.8587 4.52696C7.73361 4.56629 7.62898 4.65318 7.56734 4.76891C7.50571 4.88464 7.492 5.01996 7.52917 5.1457C7.56635 5.27145 7.65143 5.37755 7.76609 5.44117L10.6873 6.99992L7.99984 8.43304L1.56234 4.99992L7.99984 1.56679L14.4373 4.99992L11.7498 6.43367Z" fill="black"/>
</svg>
