<svg width="18" height="10" viewBox="0 0 18 10" fill="none" xmlns="http://www.w3.org/2000/svg">
<path d="M8.46932 9.53055L0.969322 2.03055C0.899641 1.96087 0.844366 1.87815 0.806654 1.7871C0.768942 1.69606 0.749531 1.59847 0.749531 1.49993C0.749531 1.40138 0.768942 1.3038 0.806654 1.21276C0.844366 1.12171 0.899641 1.03899 0.969322 0.969303C1.03901 0.899621 1.12173 0.844345 1.21278 0.806633C1.30382 0.768921 1.4014 0.749512 1.49995 0.749512C1.59849 0.749512 1.69608 0.768921 1.78712 0.806633C1.87817 0.844345 1.96089 0.899621 2.03057 0.969303L8.99995 7.93962L15.9693 0.969303C16.1101 0.828573 16.3009 0.749512 16.4999 0.749512C16.699 0.749512 16.8898 0.828573 17.0306 0.969303C17.1713 1.11003 17.2504 1.30091 17.2504 1.49993C17.2504 1.69895 17.1713 1.88982 17.0306 2.03055L9.53057 9.53055C9.46092 9.60029 9.3782 9.65561 9.28715 9.69335C9.19611 9.73109 9.09851 9.75052 8.99995 9.75052C8.90139 9.75052 8.80379 9.73109 8.71274 9.69335C8.6217 9.65561 8.53898 9.60029 8.46932 9.53055Z" fill="black"/>
</svg>
