<svg width="17" height="18" viewBox="0 0 17 18" fill="none" xmlns="http://www.w3.org/2000/svg">
<path d="M15.0625 1.625H13.0938V0.96875C13.0938 0.794702 13.0246 0.627782 12.9015 0.504711C12.7785 0.38164 12.6115 0.3125 12.4375 0.3125C12.2635 0.3125 12.0965 0.38164 11.9735 0.504711C11.8504 0.627782 11.7812 0.794702 11.7812 0.96875V1.625H5.21875V0.96875C5.21875 0.794702 5.14961 0.627782 5.02654 0.504711C4.90347 0.38164 4.73655 0.3125 4.5625 0.3125C4.38845 0.3125 4.22153 0.38164 4.09846 0.504711C3.97539 0.627782 3.90625 0.794702 3.90625 0.96875V1.625H1.9375C1.5894 1.625 1.25556 1.76328 1.00942 2.00942C0.763281 2.25556 0.625 2.5894 0.625 2.9375V16.0625C0.625 16.4106 0.763281 16.7444 1.00942 16.9906C1.25556 17.2367 1.5894 17.375 1.9375 17.375H15.0625C15.4106 17.375 15.7444 17.2367 15.9906 16.9906C16.2367 16.7444 16.375 16.4106 16.375 16.0625V2.9375C16.375 2.5894 16.2367 2.25556 15.9906 2.00942C15.7444 1.76328 15.4106 1.625 15.0625 1.625ZM3.90625 2.9375V3.59375C3.90625 3.7678 3.97539 3.93472 4.09846 4.05779C4.22153 4.18086 4.38845 4.25 4.5625 4.25C4.73655 4.25 4.90347 4.18086 5.02654 4.05779C5.14961 3.93472 5.21875 3.7678 5.21875 3.59375V2.9375H11.7812V3.59375C11.7812 3.7678 11.8504 3.93472 11.9735 4.05779C12.0965 4.18086 12.2635 4.25 12.4375 4.25C12.6115 4.25 12.7785 4.18086 12.9015 4.05779C13.0246 3.93472 13.0938 3.7678 13.0938 3.59375V2.9375H15.0625V5.5625H1.9375V2.9375H3.90625ZM15.0625 16.0625H1.9375V6.875H15.0625V16.0625ZM9.8125 11.4688C9.8125 11.7283 9.73552 11.9821 9.5913 12.1979C9.44708 12.4138 9.2421 12.582 9.00227 12.6813C8.76244 12.7807 8.49854 12.8067 8.24394 12.756C7.98934 12.7054 7.75548 12.5804 7.57192 12.3968C7.38837 12.2133 7.26336 11.9794 7.21272 11.7248C7.16208 11.4702 7.18807 11.2063 7.28741 10.9665C7.38675 10.7266 7.55497 10.5217 7.77081 10.3774C7.98665 10.2332 8.24041 10.1562 8.5 10.1562C8.8481 10.1562 9.18194 10.2945 9.42808 10.5407C9.67422 10.7868 9.8125 11.1207 9.8125 11.4688Z" fill="black"/>
</svg>
