<svg width="18" height="10" viewBox="0 0 18 10" fill="none" xmlns="http://www.w3.org/2000/svg">
<path d="M2.03063 9.03073C1.96095 9.10041 1.87823 9.15568 1.78718 9.1934C1.69614 9.23111 1.59856 9.25052 1.50001 9.25052C1.40146 9.25052 1.30388 9.23111 1.21284 9.1934C1.12179 9.15568 1.03907 9.10041 0.969383 9.03073C0.899702 8.96104 0.844427 8.87832 0.806715 8.78727C0.769003 8.69623 0.749592 8.59865 0.749592 8.5001C0.749592 8.40156 0.769003 8.30397 0.806715 8.21293C0.844427 8.12188 0.899702 8.03916 0.969383 7.96948L8.46939 0.469476C8.53904 0.399744 8.62176 0.344425 8.7128 0.306682C8.80385 0.268939 8.90145 0.249512 9.00001 0.249512C9.09857 0.249512 9.19617 0.268939 9.28722 0.306682C9.37826 0.344425 9.46098 0.399744 9.53064 0.469476L17.0306 7.96948C17.1714 8.11021 17.2504 8.30108 17.2504 8.5001C17.2504 8.69912 17.1714 8.89 17.0306 9.03073C16.8899 9.17146 16.699 9.25052 16.5 9.25052C16.301 9.25052 16.1101 9.17146 15.9694 9.03073L9.00001 2.06041L2.03063 9.03073Z" fill="black"/>
</svg>
