<svg width="18" height="10" viewBox="0 0 18 10" fill="none" xmlns="http://www.w3.org/2000/svg">
<path d="M15.9694 0.969273C16.0391 0.89959 16.1218 0.844316 16.2129 0.806603C16.3039 0.768891 16.4015 0.74948 16.5001 0.74948C16.5986 0.74948 16.6962 0.768891 16.7872 0.806603C16.8783 0.844316 16.961 0.89959 17.0307 0.969273C17.1004 1.03896 17.1556 1.12168 17.1933 1.21273C17.2311 1.30377 17.2505 1.40135 17.2505 1.4999C17.2505 1.59844 17.2311 1.69603 17.1933 1.78707C17.1556 1.87812 17.1004 1.96084 17.0307 2.03052L9.53068 9.53052C9.46102 9.60026 9.3783 9.65557 9.28726 9.69332C9.19621 9.73106 9.09861 9.75049 9.00005 9.75049C8.90149 9.75049 8.80389 9.73106 8.71285 9.69332C8.6218 9.65557 8.53908 9.60026 8.46943 9.53052L0.969426 2.03052C0.828695 1.88979 0.749634 1.69892 0.749634 1.4999C0.749634 1.30088 0.828695 1.11 0.969426 0.969273C1.11016 0.828543 1.30103 0.74948 1.50005 0.74948C1.69907 0.74948 1.88995 0.828543 2.03068 0.969273L9.00005 7.93959L15.9694 0.969273Z" fill="black"/>
</svg>
