<svg width="14" height="13" viewBox="0 0 14 13" fill="none" xmlns="http://www.w3.org/2000/svg">
<path d="M13.1581 2.52566L7.15812 0.525662C7.05548 0.491446 6.94452 0.491446 6.84188 0.525662L0.841875 2.52566C0.742316 2.55885 0.655723 2.62253 0.594365 2.70766C0.533006 2.7928 0.499992 2.89509 0.5 3.00004V8.00004C0.5 8.13265 0.552678 8.25982 0.646447 8.35359C0.740215 8.44736 0.867392 8.50004 1 8.50004C1.13261 8.50004 1.25979 8.44736 1.35355 8.35359C1.44732 8.25982 1.5 8.13265 1.5 8.00004V3.69379L3.59937 4.39316C3.0416 5.29429 2.86423 6.37994 3.10621 7.41173C3.34819 8.44352 3.98974 9.33711 4.89 9.89629C3.765 10.3375 2.7925 11.1357 2.08125 12.2269C2.04426 12.2819 2.01857 12.3437 2.00566 12.4087C1.99276 12.4737 1.9929 12.5406 2.00609 12.6055C2.01927 12.6704 2.04523 12.7321 2.08246 12.7869C2.11969 12.8418 2.16744 12.8886 2.22294 12.9248C2.27844 12.961 2.34058 12.9858 2.40576 12.9978C2.47093 13.0098 2.53783 13.0087 2.60257 12.9946C2.66732 12.9804 2.72861 12.9536 2.78289 12.9156C2.83717 12.8776 2.88335 12.8292 2.91875 12.7732C3.86063 11.3282 5.34812 10.5 7 10.5C8.65187 10.5 10.1394 11.3282 11.0813 12.7732C11.1546 12.8822 11.2679 12.9579 11.3966 12.9841C11.5254 13.0102 11.6592 12.9846 11.7692 12.9128C11.8793 12.8411 11.9566 12.7289 11.9846 12.6005C12.0126 12.4722 11.9889 12.338 11.9187 12.2269C11.2075 11.1357 10.2312 10.3375 9.11 9.89629C10.0094 9.33713 10.6503 8.44412 10.8923 7.41309C11.1342 6.38205 10.9574 5.29715 10.4006 4.39629L13.1581 3.47754C13.2577 3.44437 13.3443 3.3807 13.4057 3.29556C13.4671 3.21042 13.5001 3.10812 13.5001 3.00316C13.5001 2.8982 13.4671 2.79591 13.4057 2.71076C13.3443 2.62562 13.2577 2.56196 13.1581 2.52879V2.52566ZM10 6.50004C10.0001 6.97432 9.88782 7.44188 9.67226 7.86435C9.4567 8.28682 9.14405 8.65217 8.75996 8.93041C8.37586 9.20865 7.93127 9.39186 7.46266 9.465C6.99405 9.53814 6.51477 9.49914 6.06416 9.35119C5.61354 9.20323 5.20442 8.95055 4.87037 8.61387C4.53632 8.27718 4.28685 7.86609 4.14244 7.41433C3.99803 6.96256 3.96279 6.48299 4.03961 6.01497C4.11644 5.54695 4.30313 5.10381 4.58437 4.72191L6.84188 5.47191C6.94452 5.50613 7.05548 5.50613 7.15812 5.47191L9.41562 4.72191C9.79549 5.23691 10.0003 5.8601 10 6.50004ZM7 4.47316L2.58125 3.00004L7 1.52691L11.4187 3.00004L7 4.47316Z" fill="black"/>
</svg>
